mtllib concrete_bollard.mtl
o concrete_bollard
v 0.6 0 0
v 0.6 0.3 0
v 0.5706 0 0.1854
v 0.5706 0.3 0.1854
v 0.4854 0 0.3527
v 0.4854 0.3 0.3527
v 0.3527 0 0.4854
v 0.3527 0.3 0.4854
v 0.1854 0 0.5706
v 0.1854 0.3 0.5706
v 0 0 0.6
v 0 0.3 0.6
v -0.1854 0 0.5706
v -0.1854 0.3 0.5706
v -0.3527 0 0.4854
v -0.3527 0.3 0.4854
v -0.4854 0 0.3527
v -0.4854 0.3 0.3527
v -0.5706 0 0.1854
v -0.5706 0.3 0.1854
v -0.6 0 0
v -0.6 0.3 0
v -0.5706 0 -0.1854
v -0.5706 0.3 -0.1854
v -0.4854 0 -0.3527
v -0.4854 0.3 -0.3527
v -0.3527 0 -0.4854
v -0.3527 0.3 -0.4854
v -0.1854 0 -0.5706
v -0.1854 0.3 -0.5706
v 0 0 -0.6
v 0 0.3 -0.6
v 0.1854 0 -0.5706
v 0.1854 0.3 -0.5706
v 0.3527 0 -0.4854
v 0.3527 0.3 -0.4854
v 0.4854 0 -0.3527
v 0.4854 0.3 -0.3527
v 0.5706 0 -0.1854
v 0.5706 0.3 -0.1854
v 0 0 0
v 0 0.3 0
v 0.38 0.15 0
v 0.38 2.55 0
v 0.3614 0.15 0.1174
v 0.3614 2.55 0.1174
v 0.3074 0.15 0.2234
v 0.3074 2.55 0.2234
v 0.2234 0.15 0.3074
v 0.2234 2.55 0.3074
v 0.1174 0.15 0.3614
v 0.1174 2.55 0.3614
v 0 0.15 0.38
v 0 2.55 0.38
v -0.1174 0.15 0.3614
v -0.1174 2.55 0.3614
v -0.2234 0.15 0.3074
v -0.2234 2.55 0.3074
v -0.3074 0.15 0.2234
v -0.3074 2.55 0.2234
v -0.3614 0.15 0.1174
v -0.3614 2.55 0.1174
v -0.38 0.15 0
v -0.38 2.55 0
v -0.3614 0.15 -0.1174
v -0.3614 2.55 -0.1174
v -0.3074 0.15 -0.2234
v -0.3074 2.55 -0.2234
v -0.2234 0.15 -0.3074
v -0.2234 2.55 -0.3074
v -0.1174 0.15 -0.3614
v -0.1174 2.55 -0.3614
v 0 0.15 -0.38
v 0 2.55 -0.38
v 0.1174 0.15 -0.3614
v 0.1174 2.55 -0.3614
v 0.2234 0.15 -0.3074
v 0.2234 2.55 -0.3074
v 0.3074 0.15 -0.2234
v 0.3074 2.55 -0.2234
v 0.3614 0.15 -0.1174
v 0.3614 2.55 -0.1174
v 0 0.15 0
v 0 2.55 0
v 0.32 2.51 0
v 0.32 2.69 0
v 0.3043 2.51 0.0989
v 0.3043 2.69 0.0989
v 0.2589 2.51 0.1881
v 0.2589 2.69 0.1881
v 0.1881 2.51 0.2589
v 0.1881 2.69 0.2589
v 0.0989 2.51 0.3043
v 0.0989 2.69 0.3043
v 0 2.51 0.32
v 0 2.69 0.32
v -0.0989 2.51 0.3043
v -0.0989 2.69 0.3043
v -0.1881 2.51 0.2589
v -0.1881 2.69 0.2589
v -0.2589 2.51 0.1881
v -0.2589 2.69 0.1881
v -0.3043 2.51 0.0989
v -0.3043 2.69 0.0989
v -0.32 2.51 0
v -0.32 2.69 0
v -0.3043 2.51 -0.0989
v -0.3043 2.69 -0.0989
v -0.2589 2.51 -0.1881
v -0.2589 2.69 -0.1881
v -0.1881 2.51 -0.2589
v -0.1881 2.69 -0.2589
v -0.0989 2.51 -0.3043
v -0.0989 2.69 -0.3043
v 0 2.51 -0.32
v 0 2.69 -0.32
v 0.0989 2.51 -0.3043
v 0.0989 2.69 -0.3043
v 0.1881 2.51 -0.2589
v 0.1881 2.69 -0.2589
v 0.2589 2.51 -0.1881
v 0.2589 2.69 -0.1881
v 0.3043 2.51 -0.0989
v 0.3043 2.69 -0.0989
v 0 2.51 0
v 0 2.69 0
vt 0 0
vt 1 0
vt 1 1
vt 0 1
vt 0 0
vt 1 0
vt 1 1
vt 0 1
vt 0 0
vt 1 0
vt 1 1
vt 0 1
vt 0 0
vt 1 0
vt 1 1
vt 0 1
vt 0 0
vt 1 0
vt 1 1
vt 0 1
vt 0 0
vt 1 0
vt 1 1
vt 0 1
vt 0 0
vt 1 0
vt 1 1
vt 0 1
vt 0 0
vt 1 0
vt 1 1
vt 0 1
vt 0 0
vt 1 0
vt 1 1
vt 0 1
vt 0 0
vt 1 0
vt 1 1
vt 0 1
vt 0 0
vt 1 0
vt 1 1
vt 0 1
vt 0 0
vt 1 0
vt 1 1
vt 0 1
vt 0 0
vt 1 0
vt 1 1
vt 0 1
vt 0 0
vt 1 0
vt 1 1
vt 0 1
vt 0 0
vt 1 0
vt 1 1
vt 0 1
vt 0 0
vt 1 0
vt 1 1
vt 0 1
vt 0 0
vt 1 0
vt 1 1
vt 0 1
vt 0 0
vt 1 0
vt 1 1
vt 0 1
vt 0 0
vt 1 0
vt 1 1
vt 0 1
vt 0 0
vt 1 0
vt 1 1
vt 0 1
vt 0 0
vt 1 0
vt 1 1
vt 0 1
vt 0 0
vt 1 0
vt 1 1
vt 0 1
vt 0 0
vt 1 0
vt 1 1
vt 0 1
vt 0 0
vt 1 0
vt 1 1
vt 0 1
vt 0 0
vt 1 0
vt 1 1
vt 0 1
vt 0 0
vt 1 0
vt 1 1
vt 0 1
vt 0 0
vt 1 0
vt 1 1
vt 0 1
vt 0 0
vt 1 0
vt 1 1
vt 0 1
vt 0 0
vt 1 0
vt 1 1
vt 0 1
vt 0 0
vt 1 0
vt 1 1
vt 0 1
vt 0 0
vt 1 0
vt 1 1
vt 0 1
vt 0 0
vt 1 0
vt 1 1
vt 0 1
vt 0 0
vt 1 0
vt 1 1
vt 0 1
vt 0 0
vt 1 0
vt 1 1
vt 0 1
vt 0 0
vt 1 0
vt 1 1
vt 0 1
vt 0 0
vt 1 0
vt 1 1
vt 0 1
vt 0 0
vt 1 0
vt 1 1
vt 0 1
vt 0 0
vt 1 0
vt 1 1
vt 0 1
vt 0 0
vt 1 0
vt 1 1
vt 0 1
vt 0 0
vt 1 0
vt 1 1
vt 0 1
vt 0 0
vt 1 0
vt 1 1
vt 0 1
vt 0 0
vt 1 0
vt 1 1
vt 0 1
vt 0 0
vt 1 0
vt 1 1
vt 0 1
vt 0 0
vt 1 0
vt 1 1
vt 0 1
vt 0 0
vt 1 0
vt 1 1
vt 0 1
vt 0 0
vt 1 0
vt 1 1
vt 0 1
vt 0 0
vt 1 0
vt 1 1
vt 0 1
vt 0 0
vt 1 0
vt 1 1
vt 0 1
vt 0 0
vt 1 0
vt 1 1
vt 0 1
vt 0 0
vt 1 0
vt 1 1
vt 0 1
vt 0 0
vt 1 0
vt 1 1
vt 0 1
vt 0 0
vt 1 0
vt 1 1
vt 0 1
vt 0 0
vt 1 0
vt 1 1
vt 0 1
vt 0 0
vt 1 0
vt 1 1
vt 0 1
vt 0 0
vt 1 0
vt 1 1
vt 0 1
vt 0 0
vt 1 0
vt 1 1
vt 0 1
vt 0 0
vt 1 0
vt 1 1
vt 0 1
vt 0 0
vt 1 0
vt 1 1
vt 0 1
vt 0 0
vt 1 0
vt 1 1
vt 0 1
vt 0 0
vt 1 0
vt 1 1
vt 0 1
vt 0 0
vt 1 0
vt 1 1
vt 0 1
vt 0 0
vt 1 0
vt 1 1
vt 0 1
vt 0 0
vt 1 0
vt 1 1
vt 0 1
vt 0 0
vt 1 0
vt 1 1
vt 0 1
vt 0 0
vt 1 0
vt 1 1
vt 0 1
vt 0 0
vt 1 0
vt 1 1
vt 0 1
vt 0 0
vt 1 0
vt 1 1
vt 0 1
vt 0 0
vt 1 0
vt 1 1
vt 0 1
vt 0 0
vt 1 0
vt 1 1
vt 0 1
vt 0 0
vt 1 0
vt 1 1
vt 0 1
vt 0 0
vt 1 0
vt 1 1
vt 0 1
vt 0 0
vt 1 0
vt 1 1
vt 0 1
vt 0 0
vt 1 0
vt 1 1
vt 0 1
vt 0 0
vt 1 0
vt 1 1
vt 0 1
vt 0 0
vt 1 0
vt 1 1
vt 0 1
vt 0 0
vt 1 0
vt 1 1
vt 0 1
vt 0 0
vt 1 0
vt 1 1
vt 0 1
vt 0 0
vt 1 0
vt 1 1
vt 0 1
vt 0 0
vt 1 0
vt 1 1
vt 0 1
vt 0 0
vt 1 0
vt 1 1
vt 0 1
vt 0 0
vt 1 0
vt 1 1
vt 0 1
vt 0 0
vt 1 0
vt 1 1
vt 0 1
vt 0 0
vt 1 0
vt 1 1
vt 0 1
vt 0 0
vt 1 0
vt 1 1
vt 0 1
vt 0 0
vt 1 0
vt 1 1
vt 0 1
vt 0 0
vt 1 0
vt 1 1
vt 0 1
vt 0 0
vt 1 0
vt 1 1
vt 0 1
vt 0 0
vt 1 0
vt 1 1
vt 0 1
vt 0 0
vt 1 0
vt 1 1
vt 0 1
vt 0 0
vt 1 0
vt 1 1
vt 0 1
vt 0 0
vt 1 0
vt 1 1
vt 0 1
vt 0 0
vt 1 0
vt 1 1
vt 0 1
vt 0 0
vt 1 0
vt 1 1
vt 0 1
vt 0 0
vt 1 0
vt 1 1
vt 0 1
vt 0 0
vt 1 0
vt 1 1
vt 0 1
vt 0 0
vt 1 0
vt 1 1
vt 0 1
vt 0 0
vt 1 0
vt 1 1
vt 0 1
vt 0 0
vt 1 0
vt 1 1
vt 0 1
vt 0 0
vt 1 0
vt 1 1
vt 0 1
vt 0 0
vt 1 0
vt 1 1
vt 0 1
vt 0 0
vt 1 0
vt 1 1
vt 0 1
vt 0 0
vt 1 0
vt 1 1
vt 0 1
vt 0 0
vt 1 0
vt 1 1
vt 0 1
vt 0 0
vt 1 0
vt 1 1
vt 0 1
vt 0 0
vt 1 0
vt 1 1
vt 0 1
vt 0 0
vt 1 0
vt 1 1
vt 0 1
vt 0 0
vt 1 0
vt 1 1
vt 0 1
vt 0 0
vt 1 0
vt 1 1
vt 0 1
vt 0 0
vt 1 0
vt 1 1
vt 0 1
vt 0 0
vt 1 0
vt 1 1
vt 0 1
vt 0 0
vt 1 0
vt 1 1
vt 0 1
vt 0 0
vt 1 0
vt 1 1
vt 0 1
vt 0 0
vt 1 0
vt 1 1
vt 0 1
vt 0 0
vt 1 0
vt 1 1
vt 0 1
vt 0 0
vt 1 0
vt 1 1
vt 0 1
vt 0 0
vt 1 0
vt 1 1
vt 0 1
vt 0 0
vt 1 0
vt 1 1
vt 0 1
vt 0 0
vt 1 0
vt 1 1
vt 0 1
vt 0 0
vt 1 0
vt 1 1
vt 0 1
vt 0 0
vt 1 0
vt 1 1
vt 0 1
vt 0 0
vt 1 0
vt 1 1
vt 0 1
vt 0 0
vt 1 0
vt 1 1
vt 0 1
vt 0 0
vt 1 0
vt 1 1
vt 0 1
vt 0 0
vt 1 0
vt 1 1
vt 0 1
vt 0 0
vt 1 0
vt 1 1
vt 0 1
vt 0 0
vt 1 0
vt 1 1
vt 0 1
vt 0 0
vt 1 0
vt 1 1
vt 0 1
vt 0 0
vt 1 0
vt 1 1
vt 0 1
vt 0 0
vt 1 0
vt 1 1
vt 0 1
vt 0 0
vt 1 0
vt 1 1
vt 0 1
vt 0 0
vt 1 0
vt 1 1
vt 0 1
vt 0 0
vt 1 0
vt 1 1
vt 0 1
vt 0 0
vt 1 0
vt 1 1
vt 0 1
vt 0 0
vt 1 0
vt 1 1
vt 0 1
vt 0 0
vt 1 0
vt 1 1
vt 0 1
vt 0 0
vt 1 0
vt 1 1
vt 0 1
vt 0 0
vt 1 0
vt 1 1
vt 0 1
vt 0 0
vt 1 0
vt 1 1
vt 0 1
vt 0 0
vt 1 0
vt 1 1
vt 0 1
vt 0 0
vt 1 0
vt 1 1
vt 0 1
vt 0 0
vt 1 0
vt 1 1
vt 0 1
vt 0 0
vt 1 0
vt 1 1
vt 0 1
vt 0 0
vt 1 0
vt 1 1
vt 0 1
vt 0 0
vt 1 0
vt 1 1
vt 0 1
vt 0 0
vt 1 0
vt 1 1
vt 0 1
vt 0 0
vt 1 0
vt 1 1
vt 0 1
vt 0 0
vt 1 0
vt 1 1
vt 0 1
vt 0 0
vt 1 0
vt 1 1
vt 0 1
vt 0 0
vt 1 0
vt 1 1
vt 0 1
vt 0 0
vt 1 0
vt 1 1
vt 0 1
vt 0 0
vt 1 0
vt 1 1
vt 0 1
vt 0 0
vt 1 0
vt 1 1
vt 0 1
vt 0 0
vt 1 0
vt 1 1
vt 0 1
vt 0 0
vt 1 0
vt 1 1
vt 0 1
vt 0 0
vt 1 0
vt 1 1
vt 0 1
vt 0 0
vt 1 0
vt 1 1
vt 0 1
vt 0 0
vt 1 0
vt 1 1
vt 0 1
vt 0 0
vt 1 0
vt 1 1
vt 0 1
vt 0 0
vt 1 0
vt 1 1
vt 0 1
vt 0 0
vt 1 0
vt 1 1
vt 0 1
vt 0 0
vt 1 0
vt 1 1
vt 0 1
vt 0 0
vt 1 0
vt 1 1
vt 0 1
vt 0 0
vt 1 0
vt 1 1
vt 0 1
vt 0 0
vt 1 0
vt 1 1
vt 0 1
vt 0 0
vt 1 0
vt 1 1
vt 0 1
vt 0 0
vt 1 0
vt 1 1
vt 0 1
vt 0 0
vt 1 0
vt 1 1
vt 0 1
vt 0 0
vt 1 0
vt 1 1
vt 0 1
vt 0 0
vt 1 0
vt 1 1
vt 0 1
vt 0 0
vt 1 0
vt 1 1
vt 0 1
vt 0 0
vt 1 0
vt 1 1
vt 0 1
vt 0 0
vt 1 0
vt 1 1
vt 0 1
vt 0 0
vt 1 0
vt 1 1
vt 0 1
vt 0 0
vt 1 0
vt 1 1
vt 0 1
vt 0 0
vt 1 0
vt 1 1
vt 0 1
vt 0 0
vt 1 0
vt 1 1
vt 0 1
vt 0 0
vt 1 0
vt 1 1
vt 0 1
vt 0 0
vt 1 0
vt 1 1
vt 0 1
vt 0 0
vt 1 0
vt 1 1
vt 0 1
vt 0 0
vt 1 0
vt 1 1
vt 0 1
usemtl mat_dark
f 1/1 3/2 4/3 2/4
f 41/5 1/6 3/7 41/8
f 42/9 4/10 2/11 42/12
f 3/13 5/14 6/15 4/16
f 41/17 3/18 5/19 41/20
f 42/21 6/22 4/23 42/24
f 5/25 7/26 8/27 6/28
f 41/29 5/30 7/31 41/32
f 42/33 8/34 6/35 42/36
f 7/37 9/38 10/39 8/40
f 41/41 7/42 9/43 41/44
f 42/45 10/46 8/47 42/48
f 9/49 11/50 12/51 10/52
f 41/53 9/54 11/55 41/56
f 42/57 12/58 10/59 42/60
f 11/61 13/62 14/63 12/64
f 41/65 11/66 13/67 41/68
f 42/69 14/70 12/71 42/72
f 13/73 15/74 16/75 14/76
f 41/77 13/78 15/79 41/80
f 42/81 16/82 14/83 42/84
f 15/85 17/86 18/87 16/88
f 41/89 15/90 17/91 41/92
f 42/93 18/94 16/95 42/96
f 17/97 19/98 20/99 18/100
f 41/101 17/102 19/103 41/104
f 42/105 20/106 18/107 42/108
f 19/109 21/110 22/111 20/112
f 41/113 19/114 21/115 41/116
f 42/117 22/118 20/119 42/120
f 21/121 23/122 24/123 22/124
f 41/125 21/126 23/127 41/128
f 42/129 24/130 22/131 42/132
f 23/133 25/134 26/135 24/136
f 41/137 23/138 25/139 41/140
f 42/141 26/142 24/143 42/144
f 25/145 27/146 28/147 26/148
f 41/149 25/150 27/151 41/152
f 42/153 28/154 26/155 42/156
f 27/157 29/158 30/159 28/160
f 41/161 27/162 29/163 41/164
f 42/165 30/166 28/167 42/168
f 29/169 31/170 32/171 30/172
f 41/173 29/174 31/175 41/176
f 42/177 32/178 30/179 42/180
f 31/181 33/182 34/183 32/184
f 41/185 31/186 33/187 41/188
f 42/189 34/190 32/191 42/192
f 33/193 35/194 36/195 34/196
f 41/197 33/198 35/199 41/200
f 42/201 36/202 34/203 42/204
f 35/205 37/206 38/207 36/208
f 41/209 35/210 37/211 41/212
f 42/213 38/214 36/215 42/216
f 37/217 39/218 40/219 38/220
f 41/221 37/222 39/223 41/224
f 42/225 40/226 38/227 42/228
f 39/229 1/230 2/231 40/232
f 41/233 39/234 1/235 41/236
f 42/237 2/238 40/239 42/240
usemtl mat_texture
f 43/241 45/242 46/243 44/244
f 83/245 43/246 45/247 83/248
f 84/249 46/250 44/251 84/252
f 45/253 47/254 48/255 46/256
f 83/257 45/258 47/259 83/260
f 84/261 48/262 46/263 84/264
f 47/265 49/266 50/267 48/268
f 83/269 47/270 49/271 83/272
f 84/273 50/274 48/275 84/276
f 49/277 51/278 52/279 50/280
f 83/281 49/282 51/283 83/284
f 84/285 52/286 50/287 84/288
f 51/289 53/290 54/291 52/292
f 83/293 51/294 53/295 83/296
f 84/297 54/298 52/299 84/300
f 53/301 55/302 56/303 54/304
f 83/305 53/306 55/307 83/308
f 84/309 56/310 54/311 84/312
f 55/313 57/314 58/315 56/316
f 83/317 55/318 57/319 83/320
f 84/321 58/322 56/323 84/324
f 57/325 59/326 60/327 58/328
f 83/329 57/330 59/331 83/332
f 84/333 60/334 58/335 84/336
f 59/337 61/338 62/339 60/340
f 83/341 59/342 61/343 83/344
f 84/345 62/346 60/347 84/348
f 61/349 63/350 64/351 62/352
f 83/353 61/354 63/355 83/356
f 84/357 64/358 62/359 84/360
f 63/361 65/362 66/363 64/364
f 83/365 63/366 65/367 83/368
f 84/369 66/370 64/371 84/372
f 65/373 67/374 68/375 66/376
f 83/377 65/378 67/379 83/380
f 84/381 68/382 66/383 84/384
f 67/385 69/386 70/387 68/388
f 83/389 67/390 69/391 83/392
f 84/393 70/394 68/395 84/396
f 69/397 71/398 72/399 70/400
f 83/401 69/402 71/403 83/404
f 84/405 72/406 70/407 84/408
f 71/409 73/410 74/411 72/412
f 83/413 71/414 73/415 83/416
f 84/417 74/418 72/419 84/420
f 73/421 75/422 76/423 74/424
f 83/425 73/426 75/427 83/428
f 84/429 76/430 74/431 84/432
f 75/433 77/434 78/435 76/436
f 83/437 75/438 77/439 83/440
f 84/441 78/442 76/443 84/444
f 77/445 79/446 80/447 78/448
f 83/449 77/450 79/451 83/452
f 84/453 80/454 78/455 84/456
f 79/457 81/458 82/459 80/460
f 83/461 79/462 81/463 83/464
f 84/465 82/466 80/467 84/468
f 81/469 43/470 44/471 82/472
f 83/473 81/474 43/475 83/476
f 84/477 44/478 82/479 84/480
usemtl mat_metal
f 85/481 87/482 88/483 86/484
f 125/485 85/486 87/487 125/488
f 126/489 88/490 86/491 126/492
f 87/493 89/494 90/495 88/496
f 125/497 87/498 89/499 125/500
f 126/501 90/502 88/503 126/504
f 89/505 91/506 92/507 90/508
f 125/509 89/510 91/511 125/512
f 126/513 92/514 90/515 126/516
f 91/517 93/518 94/519 92/520
f 125/521 91/522 93/523 125/524
f 126/525 94/526 92/527 126/528
f 93/529 95/530 96/531 94/532
f 125/533 93/534 95/535 125/536
f 126/537 96/538 94/539 126/540
f 95/541 97/542 98/543 96/544
f 125/545 95/546 97/547 125/548
f 126/549 98/550 96/551 126/552
f 97/553 99/554 100/555 98/556
f 125/557 97/558 99/559 125/560
f 126/561 100/562 98/563 126/564
f 99/565 101/566 102/567 100/568
f 125/569 99/570 101/571 125/572
f 126/573 102/574 100/575 126/576
f 101/577 103/578 104/579 102/580
f 125/581 101/582 103/583 125/584
f 126/585 104/586 102/587 126/588
f 103/589 105/590 106/591 104/592
f 125/593 103/594 105/595 125/596
f 126/597 106/598 104/599 126/600
f 105/601 107/602 108/603 106/604
f 125/605 105/606 107/607 125/608
f 126/609 108/610 106/611 126/612
f 107/613 109/614 110/615 108/616
f 125/617 107/618 109/619 125/620
f 126/621 110/622 108/623 126/624
f 109/625 111/626 112/627 110/628
f 125/629 109/630 111/631 125/632
f 126/633 112/634 110/635 126/636
f 111/637 113/638 114/639 112/640
f 125/641 111/642 113/643 125/644
f 126/645 114/646 112/647 126/648
f 113/649 115/650 116/651 114/652
f 125/653 113/654 115/655 125/656
f 126/657 116/658 114/659 126/660
f 115/661 117/662 118/663 116/664
f 125/665 115/666 117/667 125/668
f 126/669 118/670 116/671 126/672
f 117/673 119/674 120/675 118/676
f 125/677 117/678 119/679 125/680
f 126/681 120/682 118/683 126/684
f 119/685 121/686 122/687 120/688
f 125/689 119/690 121/691 125/692
f 126/693 122/694 120/695 126/696
f 121/697 123/698 124/699 122/700
f 125/701 121/702 123/703 125/704
f 126/705 124/706 122/707 126/708
f 123/709 85/710 86/711 124/712
f 125/713 123/714 85/715 125/716
f 126/717 86/718 124/719 126/720
