mtllib manhole_cover.mtl
o manhole_cover
v 1.55 0 0
v 1.55 0.16 0
v 1.5202 0 0.3024
v 1.5202 0.16 0.3024
v 1.432 0 0.5932
v 1.432 0.16 0.5932
v 1.2888 0 0.8611
v 1.2888 0.16 0.8611
v 1.096 0 1.096
v 1.096 0.16 1.096
v 0.8611 0 1.2888
v 0.8611 0.16 1.2888
v 0.5932 0 1.432
v 0.5932 0.16 1.432
v 0.3024 0 1.5202
v 0.3024 0.16 1.5202
v 0 0 1.55
v 0 0.16 1.55
v -0.3024 0 1.5202
v -0.3024 0.16 1.5202
v -0.5932 0 1.432
v -0.5932 0.16 1.432
v -0.8611 0 1.2888
v -0.8611 0.16 1.2888
v -1.096 0 1.096
v -1.096 0.16 1.096
v -1.2888 0 0.8611
v -1.2888 0.16 0.8611
v -1.432 0 0.5932
v -1.432 0.16 0.5932
v -1.5202 0 0.3024
v -1.5202 0.16 0.3024
v -1.55 0 0
v -1.55 0.16 0
v -1.5202 0 -0.3024
v -1.5202 0.16 -0.3024
v -1.432 0 -0.5932
v -1.432 0.16 -0.5932
v -1.2888 0 -0.8611
v -1.2888 0.16 -0.8611
v -1.096 0 -1.096
v -1.096 0.16 -1.096
v -0.8611 0 -1.2888
v -0.8611 0.16 -1.2888
v -0.5932 0 -1.432
v -0.5932 0.16 -1.432
v -0.3024 0 -1.5202
v -0.3024 0.16 -1.5202
v 0 0 -1.55
v 0 0.16 -1.55
v 0.3024 0 -1.5202
v 0.3024 0.16 -1.5202
v 0.5932 0 -1.432
v 0.5932 0.16 -1.432
v 0.8611 0 -1.2888
v 0.8611 0.16 -1.2888
v 1.096 0 -1.096
v 1.096 0.16 -1.096
v 1.2888 0 -0.8611
v 1.2888 0.16 -0.8611
v 1.432 0 -0.5932
v 1.432 0.16 -0.5932
v 1.5202 0 -0.3024
v 1.5202 0.16 -0.3024
v 0 0 0
v 0 0.16 0
v -1.1 0.155 -0.06
v 1.1 0.155 -0.06
v 1.1 0.205 -0.06
v -1.1 0.205 -0.06
v -1.1 0.155 0.06
v 1.1 0.155 0.06
v 1.1 0.205 0.06
v -1.1 0.205 0.06
v -0.06 0.165 -1.1
v 0.06 0.165 -1.1
v 0.06 0.215 -1.1
v -0.06 0.215 -1.1
v -0.06 0.165 1.1
v 0.06 0.165 1.1
v 0.06 0.215 1.1
v -0.06 0.215 1.1
vt 0 0
vt 1 0
vt 1 1
vt 0 1
vt 0 0
vt 1 0
vt 1 1
vt 0 1
vt 0 0
vt 1 0
vt 1 1
vt 0 1
vt 0 0
vt 1 0
vt 1 1
vt 0 1
vt 0 0
vt 1 0
vt 1 1
vt 0 1
vt 0 0
vt 1 0
vt 1 1
vt 0 1
vt 0 0
vt 1 0
vt 1 1
vt 0 1
vt 0 0
vt 1 0
vt 1 1
vt 0 1
vt 0 0
vt 1 0
vt 1 1
vt 0 1
vt 0 0
vt 1 0
vt 1 1
vt 0 1
vt 0 0
vt 1 0
vt 1 1
vt 0 1
vt 0 0
vt 1 0
vt 1 1
vt 0 1
vt 0 0
vt 1 0
vt 1 1
vt 0 1
vt 0 0
vt 1 0
vt 1 1
vt 0 1
vt 0 0
vt 1 0
vt 1 1
vt 0 1
vt 0 0
vt 1 0
vt 1 1
vt 0 1
vt 0 0
vt 1 0
vt 1 1
vt 0 1
vt 0 0
vt 1 0
vt 1 1
vt 0 1
vt 0 0
vt 1 0
vt 1 1
vt 0 1
vt 0 0
vt 1 0
vt 1 1
vt 0 1
vt 0 0
vt 1 0
vt 1 1
vt 0 1
vt 0 0
vt 1 0
vt 1 1
vt 0 1
vt 0 0
vt 1 0
vt 1 1
vt 0 1
vt 0 0
vt 1 0
vt 1 1
vt 0 1
vt 0 0
vt 1 0
vt 1 1
vt 0 1
vt 0 0
vt 1 0
vt 1 1
vt 0 1
vt 0 0
vt 1 0
vt 1 1
vt 0 1
vt 0 0
vt 1 0
vt 1 1
vt 0 1
vt 0 0
vt 1 0
vt 1 1
vt 0 1
vt 0 0
vt 1 0
vt 1 1
vt 0 1
vt 0 0
vt 1 0
vt 1 1
vt 0 1
vt 0 0
vt 1 0
vt 1 1
vt 0 1
vt 0 0
vt 1 0
vt 1 1
vt 0 1
vt 0 0
vt 1 0
vt 1 1
vt 0 1
vt 0 0
vt 1 0
vt 1 1
vt 0 1
vt 0 0
vt 1 0
vt 1 1
vt 0 1
vt 0 0
vt 1 0
vt 1 1
vt 0 1
vt 0 0
vt 1 0
vt 1 1
vt 0 1
vt 0 0
vt 1 0
vt 1 1
vt 0 1
vt 0 0
vt 1 0
vt 1 1
vt 0 1
vt 0 0
vt 1 0
vt 1 1
vt 0 1
vt 0 0
vt 1 0
vt 1 1
vt 0 1
vt 0 0
vt 1 0
vt 1 1
vt 0 1
vt 0 0
vt 1 0
vt 1 1
vt 0 1
vt 0 0
vt 1 0
vt 1 1
vt 0 1
vt 0 0
vt 1 0
vt 1 1
vt 0 1
vt 0 0
vt 1 0
vt 1 1
vt 0 1
vt 0 0
vt 1 0
vt 1 1
vt 0 1
vt 0 0
vt 1 0
vt 1 1
vt 0 1
vt 0 0
vt 1 0
vt 1 1
vt 0 1
vt 0 0
vt 1 0
vt 1 1
vt 0 1
vt 0 0
vt 1 0
vt 1 1
vt 0 1
vt 0 0
vt 1 0
vt 1 1
vt 0 1
vt 0 0
vt 1 0
vt 1 1
vt 0 1
vt 0 0
vt 1 0
vt 1 1
vt 0 1
vt 0 0
vt 1 0
vt 1 1
vt 0 1
vt 0 0
vt 1 0
vt 1 1
vt 0 1
vt 0 0
vt 1 0
vt 1 1
vt 0 1
vt 0 0
vt 1 0
vt 1 1
vt 0 1
vt 0 0
vt 1 0
vt 1 1
vt 0 1
vt 0 0
vt 1 0
vt 1 1
vt 0 1
vt 0 0
vt 1 0
vt 1 1
vt 0 1
vt 0 0
vt 1 0
vt 1 1
vt 0 1
vt 0 0
vt 1 0
vt 1 1
vt 0 1
vt 0 0
vt 1 0
vt 1 1
vt 0 1
vt 0 0
vt 1 0
vt 1 1
vt 0 1
vt 0 0
vt 1 0
vt 1 1
vt 0 1
vt 0 0
vt 1 0
vt 1 1
vt 0 1
vt 0 0
vt 1 0
vt 1 1
vt 0 1
vt 0 0
vt 1 0
vt 1 1
vt 0 1
vt 0 0
vt 1 0
vt 1 1
vt 0 1
vt 0 0
vt 1 0
vt 1 1
vt 0 1
vt 0 0
vt 1 0
vt 1 1
vt 0 1
vt 0 0
vt 1 0
vt 1 1
vt 0 1
vt 0 0
vt 1 0
vt 1 1
vt 0 1
vt 0 0
vt 1 0
vt 1 1
vt 0 1
vt 0 0
vt 1 0
vt 1 1
vt 0 1
vt 0 0
vt 1 0
vt 1 1
vt 0 1
vt 0 0
vt 1 0
vt 1 1
vt 0 1
vt 0 0
vt 1 0
vt 1 1
vt 0 1
vt 0 0
vt 1 0
vt 1 1
vt 0 1
vt 0 0
vt 1 0
vt 1 1
vt 0 1
vt 0 0
vt 1 0
vt 1 1
vt 0 1
vt 0 0
vt 1 0
vt 1 1
vt 0 1
vt 0 0
vt 1 0
vt 1 1
vt 0 1
vt 0 0
vt 1 0
vt 1 1
vt 0 1
vt 0 0
vt 1 0
vt 1 1
vt 0 1
vt 0 0
vt 1 0
vt 1 1
vt 0 1
vt 0 0
vt 1 0
vt 1 1
vt 0 1
vt 0 0
vt 1 0
vt 1 1
vt 0 1
vt 0 0
vt 1 0
vt 1 1
vt 0 1
vt 0 0
vt 1 0
vt 1 1
vt 0 1
vt 0 0
vt 1 0
vt 1 1
vt 0 1
vt 0 0
vt 1 0
vt 1 1
vt 0 1
vt 0 0
vt 1 0
vt 1 1
vt 0 1
vt 0 0
vt 1 0
vt 1 1
vt 0 1
vt 0 0
vt 1 0
vt 1 1
vt 0 1
vt 0 0
vt 1 0
vt 1 1
vt 0 1
vt 0 0
vt 1 0
vt 1 1
vt 0 1
vt 0 0
vt 1 0
vt 1 1
vt 0 1
vt 0 0
vt 1 0
vt 1 1
vt 0 1
vt 0 0
vt 1 0
vt 1 1
vt 0 1
vt 0 0
vt 1 0
vt 1 1
vt 0 1
vt 0 0
vt 1 0
vt 1 1
vt 0 1
vt 0 0
vt 1 0
vt 1 1
vt 0 1
vt 0 0
vt 1 0
vt 1 1
vt 0 1
vt 0 0
vt 1 0
vt 1 1
vt 0 1
vt 0 0
vt 1 0
vt 1 1
vt 0 1
usemtl mat_texture
f 1/1 3/2 4/3 2/4
f 65/5 1/6 3/7 65/8
f 66/9 4/10 2/11 66/12
f 3/13 5/14 6/15 4/16
f 65/17 3/18 5/19 65/20
f 66/21 6/22 4/23 66/24
f 5/25 7/26 8/27 6/28
f 65/29 5/30 7/31 65/32
f 66/33 8/34 6/35 66/36
f 7/37 9/38 10/39 8/40
f 65/41 7/42 9/43 65/44
f 66/45 10/46 8/47 66/48
f 9/49 11/50 12/51 10/52
f 65/53 9/54 11/55 65/56
f 66/57 12/58 10/59 66/60
f 11/61 13/62 14/63 12/64
f 65/65 11/66 13/67 65/68
f 66/69 14/70 12/71 66/72
f 13/73 15/74 16/75 14/76
f 65/77 13/78 15/79 65/80
f 66/81 16/82 14/83 66/84
f 15/85 17/86 18/87 16/88
f 65/89 15/90 17/91 65/92
f 66/93 18/94 16/95 66/96
f 17/97 19/98 20/99 18/100
f 65/101 17/102 19/103 65/104
f 66/105 20/106 18/107 66/108
f 19/109 21/110 22/111 20/112
f 65/113 19/114 21/115 65/116
f 66/117 22/118 20/119 66/120
f 21/121 23/122 24/123 22/124
f 65/125 21/126 23/127 65/128
f 66/129 24/130 22/131 66/132
f 23/133 25/134 26/135 24/136
f 65/137 23/138 25/139 65/140
f 66/141 26/142 24/143 66/144
f 25/145 27/146 28/147 26/148
f 65/149 25/150 27/151 65/152
f 66/153 28/154 26/155 66/156
f 27/157 29/158 30/159 28/160
f 65/161 27/162 29/163 65/164
f 66/165 30/166 28/167 66/168
f 29/169 31/170 32/171 30/172
f 65/173 29/174 31/175 65/176
f 66/177 32/178 30/179 66/180
f 31/181 33/182 34/183 32/184
f 65/185 31/186 33/187 65/188
f 66/189 34/190 32/191 66/192
f 33/193 35/194 36/195 34/196
f 65/197 33/198 35/199 65/200
f 66/201 36/202 34/203 66/204
f 35/205 37/206 38/207 36/208
f 65/209 35/210 37/211 65/212
f 66/213 38/214 36/215 66/216
f 37/217 39/218 40/219 38/220
f 65/221 37/222 39/223 65/224
f 66/225 40/226 38/227 66/228
f 39/229 41/230 42/231 40/232
f 65/233 39/234 41/235 65/236
f 66/237 42/238 40/239 66/240
f 41/241 43/242 44/243 42/244
f 65/245 41/246 43/247 65/248
f 66/249 44/250 42/251 66/252
f 43/253 45/254 46/255 44/256
f 65/257 43/258 45/259 65/260
f 66/261 46/262 44/263 66/264
f 45/265 47/266 48/267 46/268
f 65/269 45/270 47/271 65/272
f 66/273 48/274 46/275 66/276
f 47/277 49/278 50/279 48/280
f 65/281 47/282 49/283 65/284
f 66/285 50/286 48/287 66/288
f 49/289 51/290 52/291 50/292
f 65/293 49/294 51/295 65/296
f 66/297 52/298 50/299 66/300
f 51/301 53/302 54/303 52/304
f 65/305 51/306 53/307 65/308
f 66/309 54/310 52/311 66/312
f 53/313 55/314 56/315 54/316
f 65/317 53/318 55/319 65/320
f 66/321 56/322 54/323 66/324
f 55/325 57/326 58/327 56/328
f 65/329 55/330 57/331 65/332
f 66/333 58/334 56/335 66/336
f 57/337 59/338 60/339 58/340
f 65/341 57/342 59/343 65/344
f 66/345 60/346 58/347 66/348
f 59/349 61/350 62/351 60/352
f 65/353 59/354 61/355 65/356
f 66/357 62/358 60/359 66/360
f 61/361 63/362 64/363 62/364
f 65/365 61/366 63/367 65/368
f 66/369 64/370 62/371 66/372
f 63/373 1/374 2/375 64/376
f 65/377 63/378 1/379 65/380
f 66/381 2/382 64/383 66/384
usemtl mat_metal
f 67/385 68/386 69/387 70/388
f 72/389 71/390 74/391 73/392
f 71/393 67/394 70/395 74/396
f 68/397 72/398 73/399 69/400
f 70/401 69/402 73/403 74/404
f 71/405 72/406 68/407 67/408
f 75/409 76/410 77/411 78/412
f 80/413 79/414 82/415 81/416
f 79/417 75/418 78/419 82/420
f 76/421 80/422 81/423 77/424
f 78/425 77/426 81/427 82/428
f 79/429 80/430 76/431 75/432
