mtllib bike_rack.mtl
o bike_rack
v -2.32 -0.05 -0.45
v -2.32 1.85 -0.45
v -2.3307 -0.05 -0.41
v -2.3307 1.85 -0.41
v -2.36 -0.05 -0.3807
v -2.36 1.85 -0.3807
v -2.4 -0.05 -0.37
v -2.4 1.85 -0.37
v -2.44 -0.05 -0.3807
v -2.44 1.85 -0.3807
v -2.4693 -0.05 -0.41
v -2.4693 1.85 -0.41
v -2.48 -0.05 -0.45
v -2.48 1.85 -0.45
v -2.4693 -0.05 -0.49
v -2.4693 1.85 -0.49
v -2.44 -0.05 -0.5193
v -2.44 1.85 -0.5193
v -2.4 -0.05 -0.53
v -2.4 1.85 -0.53
v -2.36 -0.05 -0.5193
v -2.36 1.85 -0.5193
v -2.3307 -0.05 -0.49
v -2.3307 1.85 -0.49
v -2.4 -0.05 -0.45
v -2.4 1.85 -0.45
v -2.32 -0.05 0.45
v -2.32 1.85 0.45
v -2.3307 -0.05 0.49
v -2.3307 1.85 0.49
v -2.36 -0.05 0.5193
v -2.36 1.85 0.5193
v -2.4 -0.05 0.53
v -2.4 1.85 0.53
v -2.44 -0.05 0.5193
v -2.44 1.85 0.5193
v -2.4693 -0.05 0.49
v -2.4693 1.85 0.49
v -2.48 -0.05 0.45
v -2.48 1.85 0.45
v -2.4693 -0.05 0.41
v -2.4693 1.85 0.41
v -2.44 -0.05 0.3807
v -2.44 1.85 0.3807
v -2.4 -0.05 0.37
v -2.4 1.85 0.37
v -2.36 -0.05 0.3807
v -2.36 1.85 0.3807
v -2.3307 -0.05 0.41
v -2.3307 1.85 0.41
v -2.4 -0.05 0.45
v -2.4 1.85 0.45
v -2.5 1.75 -0.5
v -2.3 1.75 -0.5
v -2.3 1.95 -0.5
v -2.5 1.95 -0.5
v -2.5 1.75 0.5
v -2.3 1.75 0.5
v -2.3 1.95 0.5
v -2.5 1.95 0.5
v -1.12 -0.05 -0.45
v -1.12 1.85 -0.45
v -1.1307 -0.05 -0.41
v -1.1307 1.85 -0.41
v -1.16 -0.05 -0.3807
v -1.16 1.85 -0.3807
v -1.2 -0.05 -0.37
v -1.2 1.85 -0.37
v -1.24 -0.05 -0.3807
v -1.24 1.85 -0.3807
v -1.2693 -0.05 -0.41
v -1.2693 1.85 -0.41
v -1.28 -0.05 -0.45
v -1.28 1.85 -0.45
v -1.2693 -0.05 -0.49
v -1.2693 1.85 -0.49
v -1.24 -0.05 -0.5193
v -1.24 1.85 -0.5193
v -1.2 -0.05 -0.53
v -1.2 1.85 -0.53
v -1.16 -0.05 -0.5193
v -1.16 1.85 -0.5193
v -1.1307 -0.05 -0.49
v -1.1307 1.85 -0.49
v -1.2 -0.05 -0.45
v -1.2 1.85 -0.45
v -1.12 -0.05 0.45
v -1.12 1.85 0.45
v -1.1307 -0.05 0.49
v -1.1307 1.85 0.49
v -1.16 -0.05 0.5193
v -1.16 1.85 0.5193
v -1.2 -0.05 0.53
v -1.2 1.85 0.53
v -1.24 -0.05 0.5193
v -1.24 1.85 0.5193
v -1.2693 -0.05 0.49
v -1.2693 1.85 0.49
v -1.28 -0.05 0.45
v -1.28 1.85 0.45
v -1.2693 -0.05 0.41
v -1.2693 1.85 0.41
v -1.24 -0.05 0.3807
v -1.24 1.85 0.3807
v -1.2 -0.05 0.37
v -1.2 1.85 0.37
v -1.16 -0.05 0.3807
v -1.16 1.85 0.3807
v -1.1307 -0.05 0.41
v -1.1307 1.85 0.41
v -1.2 -0.05 0.45
v -1.2 1.85 0.45
v -1.3 1.75 -0.5
v -1.1 1.75 -0.5
v -1.1 1.95 -0.5
v -1.3 1.95 -0.5
v -1.3 1.75 0.5
v -1.1 1.75 0.5
v -1.1 1.95 0.5
v -1.3 1.95 0.5
v 0.08 -0.05 -0.45
v 0.08 1.85 -0.45
v 0.0693 -0.05 -0.41
v 0.0693 1.85 -0.41
v 0.04 -0.05 -0.3807
v 0.04 1.85 -0.3807
v 0 -0.05 -0.37
v 0 1.85 -0.37
v -0.04 -0.05 -0.3807
v -0.04 1.85 -0.3807
v -0.0693 -0.05 -0.41
v -0.0693 1.85 -0.41
v -0.08 -0.05 -0.45
v -0.08 1.85 -0.45
v -0.0693 -0.05 -0.49
v -0.0693 1.85 -0.49
v -0.04 -0.05 -0.5193
v -0.04 1.85 -0.5193
v 0 -0.05 -0.53
v 0 1.85 -0.53
v 0.04 -0.05 -0.5193
v 0.04 1.85 -0.5193
v 0.0693 -0.05 -0.49
v 0.0693 1.85 -0.49
v 0 -0.05 -0.45
v 0 1.85 -0.45
v 0.08 -0.05 0.45
v 0.08 1.85 0.45
v 0.0693 -0.05 0.49
v 0.0693 1.85 0.49
v 0.04 -0.05 0.5193
v 0.04 1.85 0.5193
v 0 -0.05 0.53
v 0 1.85 0.53
v -0.04 -0.05 0.5193
v -0.04 1.85 0.5193
v -0.0693 -0.05 0.49
v -0.0693 1.85 0.49
v -0.08 -0.05 0.45
v -0.08 1.85 0.45
v -0.0693 -0.05 0.41
v -0.0693 1.85 0.41
v -0.04 -0.05 0.3807
v -0.04 1.85 0.3807
v 0 -0.05 0.37
v 0 1.85 0.37
v 0.04 -0.05 0.3807
v 0.04 1.85 0.3807
v 0.0693 -0.05 0.41
v 0.0693 1.85 0.41
v 0 -0.05 0.45
v 0 1.85 0.45
v -0.1 1.75 -0.5
v 0.1 1.75 -0.5
v 0.1 1.95 -0.5
v -0.1 1.95 -0.5
v -0.1 1.75 0.5
v 0.1 1.75 0.5
v 0.1 1.95 0.5
v -0.1 1.95 0.5
v 1.28 -0.05 -0.45
v 1.28 1.85 -0.45
v 1.2693 -0.05 -0.41
v 1.2693 1.85 -0.41
v 1.24 -0.05 -0.3807
v 1.24 1.85 -0.3807
v 1.2 -0.05 -0.37
v 1.2 1.85 -0.37
v 1.16 -0.05 -0.3807
v 1.16 1.85 -0.3807
v 1.1307 -0.05 -0.41
v 1.1307 1.85 -0.41
v 1.12 -0.05 -0.45
v 1.12 1.85 -0.45
v 1.1307 -0.05 -0.49
v 1.1307 1.85 -0.49
v 1.16 -0.05 -0.5193
v 1.16 1.85 -0.5193
v 1.2 -0.05 -0.53
v 1.2 1.85 -0.53
v 1.24 -0.05 -0.5193
v 1.24 1.85 -0.5193
v 1.2693 -0.05 -0.49
v 1.2693 1.85 -0.49
v 1.2 -0.05 -0.45
v 1.2 1.85 -0.45
v 1.28 -0.05 0.45
v 1.28 1.85 0.45
v 1.2693 -0.05 0.49
v 1.2693 1.85 0.49
v 1.24 -0.05 0.5193
v 1.24 1.85 0.5193
v 1.2 -0.05 0.53
v 1.2 1.85 0.53
v 1.16 -0.05 0.5193
v 1.16 1.85 0.5193
v 1.1307 -0.05 0.49
v 1.1307 1.85 0.49
v 1.12 -0.05 0.45
v 1.12 1.85 0.45
v 1.1307 -0.05 0.41
v 1.1307 1.85 0.41
v 1.16 -0.05 0.3807
v 1.16 1.85 0.3807
v 1.2 -0.05 0.37
v 1.2 1.85 0.37
v 1.24 -0.05 0.3807
v 1.24 1.85 0.3807
v 1.2693 -0.05 0.41
v 1.2693 1.85 0.41
v 1.2 -0.05 0.45
v 1.2 1.85 0.45
v 1.1 1.75 -0.5
v 1.3 1.75 -0.5
v 1.3 1.95 -0.5
v 1.1 1.95 -0.5
v 1.1 1.75 0.5
v 1.3 1.75 0.5
v 1.3 1.95 0.5
v 1.1 1.95 0.5
v 2.48 -0.05 -0.45
v 2.48 1.85 -0.45
v 2.4693 -0.05 -0.41
v 2.4693 1.85 -0.41
v 2.44 -0.05 -0.3807
v 2.44 1.85 -0.3807
v 2.4 -0.05 -0.37
v 2.4 1.85 -0.37
v 2.36 -0.05 -0.3807
v 2.36 1.85 -0.3807
v 2.3307 -0.05 -0.41
v 2.3307 1.85 -0.41
v 2.32 -0.05 -0.45
v 2.32 1.85 -0.45
v 2.3307 -0.05 -0.49
v 2.3307 1.85 -0.49
v 2.36 -0.05 -0.5193
v 2.36 1.85 -0.5193
v 2.4 -0.05 -0.53
v 2.4 1.85 -0.53
v 2.44 -0.05 -0.5193
v 2.44 1.85 -0.5193
v 2.4693 -0.05 -0.49
v 2.4693 1.85 -0.49
v 2.4 -0.05 -0.45
v 2.4 1.85 -0.45
v 2.48 -0.05 0.45
v 2.48 1.85 0.45
v 2.4693 -0.05 0.49
v 2.4693 1.85 0.49
v 2.44 -0.05 0.5193
v 2.44 1.85 0.5193
v 2.4 -0.05 0.53
v 2.4 1.85 0.53
v 2.36 -0.05 0.5193
v 2.36 1.85 0.5193
v 2.3307 -0.05 0.49
v 2.3307 1.85 0.49
v 2.32 -0.05 0.45
v 2.32 1.85 0.45
v 2.3307 -0.05 0.41
v 2.3307 1.85 0.41
v 2.36 -0.05 0.3807
v 2.36 1.85 0.3807
v 2.4 -0.05 0.37
v 2.4 1.85 0.37
v 2.44 -0.05 0.3807
v 2.44 1.85 0.3807
v 2.4693 -0.05 0.41
v 2.4693 1.85 0.41
v 2.4 -0.05 0.45
v 2.4 1.85 0.45
v 2.3 1.75 -0.5
v 2.5 1.75 -0.5
v 2.5 1.95 -0.5
v 2.3 1.95 -0.5
v 2.3 1.75 0.5
v 2.5 1.75 0.5
v 2.5 1.95 0.5
v 2.3 1.95 0.5
v -3.2 0 -0.83
v 3.2 0 -0.83
v 3.2 0.12 -0.83
v -3.2 0.12 -0.83
v -3.2 0 -0.61
v 3.2 0 -0.61
v 3.2 0.12 -0.61
v -3.2 0.12 -0.61
v -3.2 0 0.61
v 3.2 0 0.61
v 3.2 0.12 0.61
v -3.2 0.12 0.61
v -3.2 0 0.83
v 3.2 0 0.83
v 3.2 0.12 0.83
v -3.2 0.12 0.83
vt 0 0
vt 1 0
vt 1 1
vt 0 1
vt 0 0
vt 1 0
vt 1 1
vt 0 1
vt 0 0
vt 1 0
vt 1 1
vt 0 1
vt 0 0
vt 1 0
vt 1 1
vt 0 1
vt 0 0
vt 1 0
vt 1 1
vt 0 1
vt 0 0
vt 1 0
vt 1 1
vt 0 1
vt 0 0
vt 1 0
vt 1 1
vt 0 1
vt 0 0
vt 1 0
vt 1 1
vt 0 1
vt 0 0
vt 1 0
vt 1 1
vt 0 1
vt 0 0
vt 1 0
vt 1 1
vt 0 1
vt 0 0
vt 1 0
vt 1 1
vt 0 1
vt 0 0
vt 1 0
vt 1 1
vt 0 1
vt 0 0
vt 1 0
vt 1 1
vt 0 1
vt 0 0
vt 1 0
vt 1 1
vt 0 1
vt 0 0
vt 1 0
vt 1 1
vt 0 1
vt 0 0
vt 1 0
vt 1 1
vt 0 1
vt 0 0
vt 1 0
vt 1 1
vt 0 1
vt 0 0
vt 1 0
vt 1 1
vt 0 1
vt 0 0
vt 1 0
vt 1 1
vt 0 1
vt 0 0
vt 1 0
vt 1 1
vt 0 1
vt 0 0
vt 1 0
vt 1 1
vt 0 1
vt 0 0
vt 1 0
vt 1 1
vt 0 1
vt 0 0
vt 1 0
vt 1 1
vt 0 1
vt 0 0
vt 1 0
vt 1 1
vt 0 1
vt 0 0
vt 1 0
vt 1 1
vt 0 1
vt 0 0
vt 1 0
vt 1 1
vt 0 1
vt 0 0
vt 1 0
vt 1 1
vt 0 1
vt 0 0
vt 1 0
vt 1 1
vt 0 1
vt 0 0
vt 1 0
vt 1 1
vt 0 1
vt 0 0
vt 1 0
vt 1 1
vt 0 1
vt 0 0
vt 1 0
vt 1 1
vt 0 1
vt 0 0
vt 1 0
vt 1 1
vt 0 1
vt 0 0
vt 1 0
vt 1 1
vt 0 1
vt 0 0
vt 1 0
vt 1 1
vt 0 1
vt 0 0
vt 1 0
vt 1 1
vt 0 1
vt 0 0
vt 1 0
vt 1 1
vt 0 1
vt 0 0
vt 1 0
vt 1 1
vt 0 1
vt 0 0
vt 1 0
vt 1 1
vt 0 1
vt 0 0
vt 1 0
vt 1 1
vt 0 1
vt 0 0
vt 1 0
vt 1 1
vt 0 1
vt 0 0
vt 1 0
vt 1 1
vt 0 1
vt 0 0
vt 1 0
vt 1 1
vt 0 1
vt 0 0
vt 1 0
vt 1 1
vt 0 1
vt 0 0
vt 1 0
vt 1 1
vt 0 1
vt 0 0
vt 1 0
vt 1 1
vt 0 1
vt 0 0
vt 1 0
vt 1 1
vt 0 1
vt 0 0
vt 1 0
vt 1 1
vt 0 1
vt 0 0
vt 1 0
vt 1 1
vt 0 1
vt 0 0
vt 1 0
vt 1 1
vt 0 1
vt 0 0
vt 1 0
vt 1 1
vt 0 1
vt 0 0
vt 1 0
vt 1 1
vt 0 1
vt 0 0
vt 1 0
vt 1 1
vt 0 1
vt 0 0
vt 1 0
vt 1 1
vt 0 1
vt 0 0
vt 1 0
vt 1 1
vt 0 1
vt 0 0
vt 1 0
vt 1 1
vt 0 1
vt 0 0
vt 1 0
vt 1 1
vt 0 1
vt 0 0
vt 1 0
vt 1 1
vt 0 1
vt 0 0
vt 1 0
vt 1 1
vt 0 1
vt 0 0
vt 1 0
vt 1 1
vt 0 1
vt 0 0
vt 1 0
vt 1 1
vt 0 1
vt 0 0
vt 1 0
vt 1 1
vt 0 1
vt 0 0
vt 1 0
vt 1 1
vt 0 1
vt 0 0
vt 1 0
vt 1 1
vt 0 1
vt 0 0
vt 1 0
vt 1 1
vt 0 1
vt 0 0
vt 1 0
vt 1 1
vt 0 1
vt 0 0
vt 1 0
vt 1 1
vt 0 1
vt 0 0
vt 1 0
vt 1 1
vt 0 1
vt 0 0
vt 1 0
vt 1 1
vt 0 1
vt 0 0
vt 1 0
vt 1 1
vt 0 1
vt 0 0
vt 1 0
vt 1 1
vt 0 1
vt 0 0
vt 1 0
vt 1 1
vt 0 1
vt 0 0
vt 1 0
vt 1 1
vt 0 1
vt 0 0
vt 1 0
vt 1 1
vt 0 1
vt 0 0
vt 1 0
vt 1 1
vt 0 1
vt 0 0
vt 1 0
vt 1 1
vt 0 1
vt 0 0
vt 1 0
vt 1 1
vt 0 1
vt 0 0
vt 1 0
vt 1 1
vt 0 1
vt 0 0
vt 1 0
vt 1 1
vt 0 1
vt 0 0
vt 1 0
vt 1 1
vt 0 1
vt 0 0
vt 1 0
vt 1 1
vt 0 1
vt 0 0
vt 1 0
vt 1 1
vt 0 1
vt 0 0
vt 1 0
vt 1 1
vt 0 1
vt 0 0
vt 1 0
vt 1 1
vt 0 1
vt 0 0
vt 1 0
vt 1 1
vt 0 1
vt 0 0
vt 1 0
vt 1 1
vt 0 1
vt 0 0
vt 1 0
vt 1 1
vt 0 1
vt 0 0
vt 1 0
vt 1 1
vt 0 1
vt 0 0
vt 1 0
vt 1 1
vt 0 1
vt 0 0
vt 1 0
vt 1 1
vt 0 1
vt 0 0
vt 1 0
vt 1 1
vt 0 1
vt 0 0
vt 1 0
vt 1 1
vt 0 1
vt 0 0
vt 1 0
vt 1 1
vt 0 1
vt 0 0
vt 1 0
vt 1 1
vt 0 1
vt 0 0
vt 1 0
vt 1 1
vt 0 1
vt 0 0
vt 1 0
vt 1 1
vt 0 1
vt 0 0
vt 1 0
vt 1 1
vt 0 1
vt 0 0
vt 1 0
vt 1 1
vt 0 1
vt 0 0
vt 1 0
vt 1 1
vt 0 1
vt 0 0
vt 1 0
vt 1 1
vt 0 1
vt 0 0
vt 1 0
vt 1 1
vt 0 1
vt 0 0
vt 1 0
vt 1 1
vt 0 1
vt 0 0
vt 1 0
vt 1 1
vt 0 1
vt 0 0
vt 1 0
vt 1 1
vt 0 1
vt 0 0
vt 1 0
vt 1 1
vt 0 1
vt 0 0
vt 1 0
vt 1 1
vt 0 1
vt 0 0
vt 1 0
vt 1 1
vt 0 1
vt 0 0
vt 1 0
vt 1 1
vt 0 1
vt 0 0
vt 1 0
vt 1 1
vt 0 1
vt 0 0
vt 1 0
vt 1 1
vt 0 1
vt 0 0
vt 1 0
vt 1 1
vt 0 1
vt 0 0
vt 1 0
vt 1 1
vt 0 1
vt 0 0
vt 1 0
vt 1 1
vt 0 1
vt 0 0
vt 1 0
vt 1 1
vt 0 1
vt 0 0
vt 1 0
vt 1 1
vt 0 1
vt 0 0
vt 1 0
vt 1 1
vt 0 1
vt 0 0
vt 1 0
vt 1 1
vt 0 1
vt 0 0
vt 1 0
vt 1 1
vt 0 1
vt 0 0
vt 1 0
vt 1 1
vt 0 1
vt 0 0
vt 1 0
vt 1 1
vt 0 1
vt 0 0
vt 1 0
vt 1 1
vt 0 1
vt 0 0
vt 1 0
vt 1 1
vt 0 1
vt 0 0
vt 1 0
vt 1 1
vt 0 1
vt 0 0
vt 1 0
vt 1 1
vt 0 1
vt 0 0
vt 1 0
vt 1 1
vt 0 1
vt 0 0
vt 1 0
vt 1 1
vt 0 1
vt 0 0
vt 1 0
vt 1 1
vt 0 1
vt 0 0
vt 1 0
vt 1 1
vt 0 1
vt 0 0
vt 1 0
vt 1 1
vt 0 1
vt 0 0
vt 1 0
vt 1 1
vt 0 1
vt 0 0
vt 1 0
vt 1 1
vt 0 1
vt 0 0
vt 1 0
vt 1 1
vt 0 1
vt 0 0
vt 1 0
vt 1 1
vt 0 1
vt 0 0
vt 1 0
vt 1 1
vt 0 1
vt 0 0
vt 1 0
vt 1 1
vt 0 1
vt 0 0
vt 1 0
vt 1 1
vt 0 1
vt 0 0
vt 1 0
vt 1 1
vt 0 1
vt 0 0
vt 1 0
vt 1 1
vt 0 1
vt 0 0
vt 1 0
vt 1 1
vt 0 1
vt 0 0
vt 1 0
vt 1 1
vt 0 1
vt 0 0
vt 1 0
vt 1 1
vt 0 1
vt 0 0
vt 1 0
vt 1 1
vt 0 1
vt 0 0
vt 1 0
vt 1 1
vt 0 1
vt 0 0
vt 1 0
vt 1 1
vt 0 1
vt 0 0
vt 1 0
vt 1 1
vt 0 1
vt 0 0
vt 1 0
vt 1 1
vt 0 1
vt 0 0
vt 1 0
vt 1 1
vt 0 1
vt 0 0
vt 1 0
vt 1 1
vt 0 1
vt 0 0
vt 1 0
vt 1 1
vt 0 1
vt 0 0
vt 1 0
vt 1 1
vt 0 1
vt 0 0
vt 1 0
vt 1 1
vt 0 1
vt 0 0
vt 1 0
vt 1 1
vt 0 1
vt 0 0
vt 1 0
vt 1 1
vt 0 1
vt 0 0
vt 1 0
vt 1 1
vt 0 1
vt 0 0
vt 1 0
vt 1 1
vt 0 1
vt 0 0
vt 1 0
vt 1 1
vt 0 1
vt 0 0
vt 1 0
vt 1 1
vt 0 1
vt 0 0
vt 1 0
vt 1 1
vt 0 1
vt 0 0
vt 1 0
vt 1 1
vt 0 1
vt 0 0
vt 1 0
vt 1 1
vt 0 1
vt 0 0
vt 1 0
vt 1 1
vt 0 1
vt 0 0
vt 1 0
vt 1 1
vt 0 1
vt 0 0
vt 1 0
vt 1 1
vt 0 1
vt 0 0
vt 1 0
vt 1 1
vt 0 1
vt 0 0
vt 1 0
vt 1 1
vt 0 1
vt 0 0
vt 1 0
vt 1 1
vt 0 1
vt 0 0
vt 1 0
vt 1 1
vt 0 1
vt 0 0
vt 1 0
vt 1 1
vt 0 1
vt 0 0
vt 1 0
vt 1 1
vt 0 1
vt 0 0
vt 1 0
vt 1 1
vt 0 1
vt 0 0
vt 1 0
vt 1 1
vt 0 1
vt 0 0
vt 1 0
vt 1 1
vt 0 1
vt 0 0
vt 1 0
vt 1 1
vt 0 1
vt 0 0
vt 1 0
vt 1 1
vt 0 1
vt 0 0
vt 1 0
vt 1 1
vt 0 1
vt 0 0
vt 1 0
vt 1 1
vt 0 1
vt 0 0
vt 1 0
vt 1 1
vt 0 1
vt 0 0
vt 1 0
vt 1 1
vt 0 1
vt 0 0
vt 1 0
vt 1 1
vt 0 1
vt 0 0
vt 1 0
vt 1 1
vt 0 1
vt 0 0
vt 1 0
vt 1 1
vt 0 1
vt 0 0
vt 1 0
vt 1 1
vt 0 1
vt 0 0
vt 1 0
vt 1 1
vt 0 1
vt 0 0
vt 1 0
vt 1 1
vt 0 1
vt 0 0
vt 1 0
vt 1 1
vt 0 1
vt 0 0
vt 1 0
vt 1 1
vt 0 1
vt 0 0
vt 1 0
vt 1 1
vt 0 1
vt 0 0
vt 1 0
vt 1 1
vt 0 1
vt 0 0
vt 1 0
vt 1 1
vt 0 1
vt 0 0
vt 1 0
vt 1 1
vt 0 1
vt 0 0
vt 1 0
vt 1 1
vt 0 1
vt 0 0
vt 1 0
vt 1 1
vt 0 1
vt 0 0
vt 1 0
vt 1 1
vt 0 1
vt 0 0
vt 1 0
vt 1 1
vt 0 1
vt 0 0
vt 1 0
vt 1 1
vt 0 1
vt 0 0
vt 1 0
vt 1 1
vt 0 1
vt 0 0
vt 1 0
vt 1 1
vt 0 1
vt 0 0
vt 1 0
vt 1 1
vt 0 1
vt 0 0
vt 1 0
vt 1 1
vt 0 1
vt 0 0
vt 1 0
vt 1 1
vt 0 1
vt 0 0
vt 1 0
vt 1 1
vt 0 1
vt 0 0
vt 1 0
vt 1 1
vt 0 1
vt 0 0
vt 1 0
vt 1 1
vt 0 1
vt 0 0
vt 1 0
vt 1 1
vt 0 1
vt 0 0
vt 1 0
vt 1 1
vt 0 1
vt 0 0
vt 1 0
vt 1 1
vt 0 1
vt 0 0
vt 1 0
vt 1 1
vt 0 1
vt 0 0
vt 1 0
vt 1 1
vt 0 1
vt 0 0
vt 1 0
vt 1 1
vt 0 1
vt 0 0
vt 1 0
vt 1 1
vt 0 1
vt 0 0
vt 1 0
vt 1 1
vt 0 1
vt 0 0
vt 1 0
vt 1 1
vt 0 1
vt 0 0
vt 1 0
vt 1 1
vt 0 1
vt 0 0
vt 1 0
vt 1 1
vt 0 1
vt 0 0
vt 1 0
vt 1 1
vt 0 1
vt 0 0
vt 1 0
vt 1 1
vt 0 1
vt 0 0
vt 1 0
vt 1 1
vt 0 1
vt 0 0
vt 1 0
vt 1 1
vt 0 1
vt 0 0
vt 1 0
vt 1 1
vt 0 1
vt 0 0
vt 1 0
vt 1 1
vt 0 1
vt 0 0
vt 1 0
vt 1 1
vt 0 1
vt 0 0
vt 1 0
vt 1 1
vt 0 1
vt 0 0
vt 1 0
vt 1 1
vt 0 1
vt 0 0
vt 1 0
vt 1 1
vt 0 1
vt 0 0
vt 1 0
vt 1 1
vt 0 1
vt 0 0
vt 1 0
vt 1 1
vt 0 1
vt 0 0
vt 1 0
vt 1 1
vt 0 1
vt 0 0
vt 1 0
vt 1 1
vt 0 1
vt 0 0
vt 1 0
vt 1 1
vt 0 1
vt 0 0
vt 1 0
vt 1 1
vt 0 1
vt 0 0
vt 1 0
vt 1 1
vt 0 1
vt 0 0
vt 1 0
vt 1 1
vt 0 1
vt 0 0
vt 1 0
vt 1 1
vt 0 1
vt 0 0
vt 1 0
vt 1 1
vt 0 1
vt 0 0
vt 1 0
vt 1 1
vt 0 1
vt 0 0
vt 1 0
vt 1 1
vt 0 1
vt 0 0
vt 1 0
vt 1 1
vt 0 1
vt 0 0
vt 1 0
vt 1 1
vt 0 1
vt 0 0
vt 1 0
vt 1 1
vt 0 1
vt 0 0
vt 1 0
vt 1 1
vt 0 1
vt 0 0
vt 1 0
vt 1 1
vt 0 1
vt 0 0
vt 1 0
vt 1 1
vt 0 1
vt 0 0
vt 1 0
vt 1 1
vt 0 1
vt 0 0
vt 1 0
vt 1 1
vt 0 1
vt 0 0
vt 1 0
vt 1 1
vt 0 1
vt 0 0
vt 1 0
vt 1 1
vt 0 1
vt 0 0
vt 1 0
vt 1 1
vt 0 1
vt 0 0
vt 1 0
vt 1 1
vt 0 1
vt 0 0
vt 1 0
vt 1 1
vt 0 1
vt 0 0
vt 1 0
vt 1 1
vt 0 1
vt 0 0
vt 1 0
vt 1 1
vt 0 1
vt 0 0
vt 1 0
vt 1 1
vt 0 1
vt 0 0
vt 1 0
vt 1 1
vt 0 1
vt 0 0
vt 1 0
vt 1 1
vt 0 1
vt 0 0
vt 1 0
vt 1 1
vt 0 1
vt 0 0
vt 1 0
vt 1 1
vt 0 1
vt 0 0
vt 1 0
vt 1 1
vt 0 1
vt 0 0
vt 1 0
vt 1 1
vt 0 1
vt 0 0
vt 1 0
vt 1 1
vt 0 1
vt 0 0
vt 1 0
vt 1 1
vt 0 1
vt 0 0
vt 1 0
vt 1 1
vt 0 1
vt 0 0
vt 1 0
vt 1 1
vt 0 1
vt 0 0
vt 1 0
vt 1 1
vt 0 1
vt 0 0
vt 1 0
vt 1 1
vt 0 1
vt 0 0
vt 1 0
vt 1 1
vt 0 1
vt 0 0
vt 1 0
vt 1 1
vt 0 1
vt 0 0
vt 1 0
vt 1 1
vt 0 1
vt 0 0
vt 1 0
vt 1 1
vt 0 1
vt 0 0
vt 1 0
vt 1 1
vt 0 1
vt 0 0
vt 1 0
vt 1 1
vt 0 1
vt 0 0
vt 1 0
vt 1 1
vt 0 1
vt 0 0
vt 1 0
vt 1 1
vt 0 1
vt 0 0
vt 1 0
vt 1 1
vt 0 1
vt 0 0
vt 1 0
vt 1 1
vt 0 1
vt 0 0
vt 1 0
vt 1 1
vt 0 1
vt 0 0
vt 1 0
vt 1 1
vt 0 1
vt 0 0
vt 1 0
vt 1 1
vt 0 1
vt 0 0
vt 1 0
vt 1 1
vt 0 1
vt 0 0
vt 1 0
vt 1 1
vt 0 1
vt 0 0
vt 1 0
vt 1 1
vt 0 1
vt 0 0
vt 1 0
vt 1 1
vt 0 1
vt 0 0
vt 1 0
vt 1 1
vt 0 1
vt 0 0
vt 1 0
vt 1 1
vt 0 1
vt 0 0
vt 1 0
vt 1 1
vt 0 1
vt 0 0
vt 1 0
vt 1 1
vt 0 1
vt 0 0
vt 1 0
vt 1 1
vt 0 1
vt 0 0
vt 1 0
vt 1 1
vt 0 1
vt 0 0
vt 1 0
vt 1 1
vt 0 1
vt 0 0
vt 1 0
vt 1 1
vt 0 1
vt 0 0
vt 1 0
vt 1 1
vt 0 1
vt 0 0
vt 1 0
vt 1 1
vt 0 1
vt 0 0
vt 1 0
vt 1 1
vt 0 1
vt 0 0
vt 1 0
vt 1 1
vt 0 1
vt 0 0
vt 1 0
vt 1 1
vt 0 1
vt 0 0
vt 1 0
vt 1 1
vt 0 1
vt 0 0
vt 1 0
vt 1 1
vt 0 1
vt 0 0
vt 1 0
vt 1 1
vt 0 1
vt 0 0
vt 1 0
vt 1 1
vt 0 1
vt 0 0
vt 1 0
vt 1 1
vt 0 1
vt 0 0
vt 1 0
vt 1 1
vt 0 1
vt 0 0
vt 1 0
vt 1 1
vt 0 1
vt 0 0
vt 1 0
vt 1 1
vt 0 1
vt 0 0
vt 1 0
vt 1 1
vt 0 1
vt 0 0
vt 1 0
vt 1 1
vt 0 1
vt 0 0
vt 1 0
vt 1 1
vt 0 1
vt 0 0
vt 1 0
vt 1 1
vt 0 1
vt 0 0
vt 1 0
vt 1 1
vt 0 1
vt 0 0
vt 1 0
vt 1 1
vt 0 1
vt 0 0
vt 1 0
vt 1 1
vt 0 1
vt 0 0
vt 1 0
vt 1 1
vt 0 1
vt 0 0
vt 1 0
vt 1 1
vt 0 1
vt 0 0
vt 1 0
vt 1 1
vt 0 1
vt 0 0
vt 1 0
vt 1 1
vt 0 1
vt 0 0
vt 1 0
vt 1 1
vt 0 1
vt 0 0
vt 1 0
vt 1 1
vt 0 1
vt 0 0
vt 1 0
vt 1 1
vt 0 1
vt 0 0
vt 1 0
vt 1 1
vt 0 1
vt 0 0
vt 1 0
vt 1 1
vt 0 1
vt 0 0
vt 1 0
vt 1 1
vt 0 1
vt 0 0
vt 1 0
vt 1 1
vt 0 1
vt 0 0
vt 1 0
vt 1 1
vt 0 1
vt 0 0
vt 1 0
vt 1 1
vt 0 1
vt 0 0
vt 1 0
vt 1 1
vt 0 1
vt 0 0
vt 1 0
vt 1 1
vt 0 1
vt 0 0
vt 1 0
vt 1 1
vt 0 1
vt 0 0
vt 1 0
vt 1 1
vt 0 1
vt 0 0
vt 1 0
vt 1 1
vt 0 1
vt 0 0
vt 1 0
vt 1 1
vt 0 1
vt 0 0
vt 1 0
vt 1 1
vt 0 1
vt 0 0
vt 1 0
vt 1 1
vt 0 1
vt 0 0
vt 1 0
vt 1 1
vt 0 1
vt 0 0
vt 1 0
vt 1 1
vt 0 1
vt 0 0
vt 1 0
vt 1 1
vt 0 1
vt 0 0
vt 1 0
vt 1 1
vt 0 1
vt 0 0
vt 1 0
vt 1 1
vt 0 1
vt 0 0
vt 1 0
vt 1 1
vt 0 1
vt 0 0
vt 1 0
vt 1 1
vt 0 1
vt 0 0
vt 1 0
vt 1 1
vt 0 1
vt 0 0
vt 1 0
vt 1 1
vt 0 1
vt 0 0
vt 1 0
vt 1 1
vt 0 1
vt 0 0
vt 1 0
vt 1 1
vt 0 1
vt 0 0
vt 1 0
vt 1 1
vt 0 1
vt 0 0
vt 1 0
vt 1 1
vt 0 1
vt 0 0
vt 1 0
vt 1 1
vt 0 1
vt 0 0
vt 1 0
vt 1 1
vt 0 1
vt 0 0
vt 1 0
vt 1 1
vt 0 1
vt 0 0
vt 1 0
vt 1 1
vt 0 1
vt 0 0
vt 1 0
vt 1 1
vt 0 1
vt 0 0
vt 1 0
vt 1 1
vt 0 1
vt 0 0
vt 1 0
vt 1 1
vt 0 1
vt 0 0
vt 1 0
vt 1 1
vt 0 1
vt 0 0
vt 1 0
vt 1 1
vt 0 1
vt 0 0
vt 1 0
vt 1 1
vt 0 1
vt 0 0
vt 1 0
vt 1 1
vt 0 1
vt 0 0
vt 1 0
vt 1 1
vt 0 1
vt 0 0
vt 1 0
vt 1 1
vt 0 1
vt 0 0
vt 1 0
vt 1 1
vt 0 1
vt 0 0
vt 1 0
vt 1 1
vt 0 1
vt 0 0
vt 1 0
vt 1 1
vt 0 1
vt 0 0
vt 1 0
vt 1 1
vt 0 1
vt 0 0
vt 1 0
vt 1 1
vt 0 1
vt 0 0
vt 1 0
vt 1 1
vt 0 1
vt 0 0
vt 1 0
vt 1 1
vt 0 1
vt 0 0
vt 1 0
vt 1 1
vt 0 1
vt 0 0
vt 1 0
vt 1 1
vt 0 1
vt 0 0
vt 1 0
vt 1 1
vt 0 1
vt 0 0
vt 1 0
vt 1 1
vt 0 1
vt 0 0
vt 1 0
vt 1 1
vt 0 1
vt 0 0
vt 1 0
vt 1 1
vt 0 1
vt 0 0
vt 1 0
vt 1 1
vt 0 1
vt 0 0
vt 1 0
vt 1 1
vt 0 1
vt 0 0
vt 1 0
vt 1 1
vt 0 1
vt 0 0
vt 1 0
vt 1 1
vt 0 1
vt 0 0
vt 1 0
vt 1 1
vt 0 1
vt 0 0
vt 1 0
vt 1 1
vt 0 1
vt 0 0
vt 1 0
vt 1 1
vt 0 1
vt 0 0
vt 1 0
vt 1 1
vt 0 1
vt 0 0
vt 1 0
vt 1 1
vt 0 1
vt 0 0
vt 1 0
vt 1 1
vt 0 1
vt 0 0
vt 1 0
vt 1 1
vt 0 1
vt 0 0
vt 1 0
vt 1 1
vt 0 1
vt 0 0
vt 1 0
vt 1 1
vt 0 1
vt 0 0
vt 1 0
vt 1 1
vt 0 1
vt 0 0
vt 1 0
vt 1 1
vt 0 1
vt 0 0
vt 1 0
vt 1 1
vt 0 1
vt 0 0
vt 1 0
vt 1 1
vt 0 1
vt 0 0
vt 1 0
vt 1 1
vt 0 1
vt 0 0
vt 1 0
vt 1 1
vt 0 1
vt 0 0
vt 1 0
vt 1 1
vt 0 1
vt 0 0
vt 1 0
vt 1 1
vt 0 1
vt 0 0
vt 1 0
vt 1 1
vt 0 1
vt 0 0
vt 1 0
vt 1 1
vt 0 1
vt 0 0
vt 1 0
vt 1 1
vt 0 1
vt 0 0
vt 1 0
vt 1 1
vt 0 1
vt 0 0
vt 1 0
vt 1 1
vt 0 1
vt 0 0
vt 1 0
vt 1 1
vt 0 1
vt 0 0
vt 1 0
vt 1 1
vt 0 1
vt 0 0
vt 1 0
vt 1 1
vt 0 1
vt 0 0
vt 1 0
vt 1 1
vt 0 1
vt 0 0
vt 1 0
vt 1 1
vt 0 1
vt 0 0
vt 1 0
vt 1 1
vt 0 1
vt 0 0
vt 1 0
vt 1 1
vt 0 1
vt 0 0
vt 1 0
vt 1 1
vt 0 1
usemtl mat_metal
f 1/1 3/2 4/3 2/4
f 25/5 1/6 3/7 25/8
f 26/9 4/10 2/11 26/12
f 3/13 5/14 6/15 4/16
f 25/17 3/18 5/19 25/20
f 26/21 6/22 4/23 26/24
f 5/25 7/26 8/27 6/28
f 25/29 5/30 7/31 25/32
f 26/33 8/34 6/35 26/36
f 7/37 9/38 10/39 8/40
f 25/41 7/42 9/43 25/44
f 26/45 10/46 8/47 26/48
f 9/49 11/50 12/51 10/52
f 25/53 9/54 11/55 25/56
f 26/57 12/58 10/59 26/60
f 11/61 13/62 14/63 12/64
f 25/65 11/66 13/67 25/68
f 26/69 14/70 12/71 26/72
f 13/73 15/74 16/75 14/76
f 25/77 13/78 15/79 25/80
f 26/81 16/82 14/83 26/84
f 15/85 17/86 18/87 16/88
f 25/89 15/90 17/91 25/92
f 26/93 18/94 16/95 26/96
f 17/97 19/98 20/99 18/100
f 25/101 17/102 19/103 25/104
f 26/105 20/106 18/107 26/108
f 19/109 21/110 22/111 20/112
f 25/113 19/114 21/115 25/116
f 26/117 22/118 20/119 26/120
f 21/121 23/122 24/123 22/124
f 25/125 21/126 23/127 25/128
f 26/129 24/130 22/131 26/132
f 23/133 1/134 2/135 24/136
f 25/137 23/138 1/139 25/140
f 26/141 2/142 24/143 26/144
f 27/145 29/146 30/147 28/148
f 51/149 27/150 29/151 51/152
f 52/153 30/154 28/155 52/156
f 29/157 31/158 32/159 30/160
f 51/161 29/162 31/163 51/164
f 52/165 32/166 30/167 52/168
f 31/169 33/170 34/171 32/172
f 51/173 31/174 33/175 51/176
f 52/177 34/178 32/179 52/180
f 33/181 35/182 36/183 34/184
f 51/185 33/186 35/187 51/188
f 52/189 36/190 34/191 52/192
f 35/193 37/194 38/195 36/196
f 51/197 35/198 37/199 51/200
f 52/201 38/202 36/203 52/204
f 37/205 39/206 40/207 38/208
f 51/209 37/210 39/211 51/212
f 52/213 40/214 38/215 52/216
f 39/217 41/218 42/219 40/220
f 51/221 39/222 41/223 51/224
f 52/225 42/226 40/227 52/228
f 41/229 43/230 44/231 42/232
f 51/233 41/234 43/235 51/236
f 52/237 44/238 42/239 52/240
f 43/241 45/242 46/243 44/244
f 51/245 43/246 45/247 51/248
f 52/249 46/250 44/251 52/252
f 45/253 47/254 48/255 46/256
f 51/257 45/258 47/259 51/260
f 52/261 48/262 46/263 52/264
f 47/265 49/266 50/267 48/268
f 51/269 47/270 49/271 51/272
f 52/273 50/274 48/275 52/276
f 49/277 27/278 28/279 50/280
f 51/281 49/282 27/283 51/284
f 52/285 28/286 50/287 52/288
f 53/289 54/290 55/291 56/292
f 58/293 57/294 60/295 59/296
f 57/297 53/298 56/299 60/300
f 54/301 58/302 59/303 55/304
f 56/305 55/306 59/307 60/308
f 57/309 58/310 54/311 53/312
f 61/313 63/314 64/315 62/316
f 85/317 61/318 63/319 85/320
f 86/321 64/322 62/323 86/324
f 63/325 65/326 66/327 64/328
f 85/329 63/330 65/331 85/332
f 86/333 66/334 64/335 86/336
f 65/337 67/338 68/339 66/340
f 85/341 65/342 67/343 85/344
f 86/345 68/346 66/347 86/348
f 67/349 69/350 70/351 68/352
f 85/353 67/354 69/355 85/356
f 86/357 70/358 68/359 86/360
f 69/361 71/362 72/363 70/364
f 85/365 69/366 71/367 85/368
f 86/369 72/370 70/371 86/372
f 71/373 73/374 74/375 72/376
f 85/377 71/378 73/379 85/380
f 86/381 74/382 72/383 86/384
f 73/385 75/386 76/387 74/388
f 85/389 73/390 75/391 85/392
f 86/393 76/394 74/395 86/396
f 75/397 77/398 78/399 76/400
f 85/401 75/402 77/403 85/404
f 86/405 78/406 76/407 86/408
f 77/409 79/410 80/411 78/412
f 85/413 77/414 79/415 85/416
f 86/417 80/418 78/419 86/420
f 79/421 81/422 82/423 80/424
f 85/425 79/426 81/427 85/428
f 86/429 82/430 80/431 86/432
f 81/433 83/434 84/435 82/436
f 85/437 81/438 83/439 85/440
f 86/441 84/442 82/443 86/444
f 83/445 61/446 62/447 84/448
f 85/449 83/450 61/451 85/452
f 86/453 62/454 84/455 86/456
f 87/457 89/458 90/459 88/460
f 111/461 87/462 89/463 111/464
f 112/465 90/466 88/467 112/468
f 89/469 91/470 92/471 90/472
f 111/473 89/474 91/475 111/476
f 112/477 92/478 90/479 112/480
f 91/481 93/482 94/483 92/484
f 111/485 91/486 93/487 111/488
f 112/489 94/490 92/491 112/492
f 93/493 95/494 96/495 94/496
f 111/497 93/498 95/499 111/500
f 112/501 96/502 94/503 112/504
f 95/505 97/506 98/507 96/508
f 111/509 95/510 97/511 111/512
f 112/513 98/514 96/515 112/516
f 97/517 99/518 100/519 98/520
f 111/521 97/522 99/523 111/524
f 112/525 100/526 98/527 112/528
f 99/529 101/530 102/531 100/532
f 111/533 99/534 101/535 111/536
f 112/537 102/538 100/539 112/540
f 101/541 103/542 104/543 102/544
f 111/545 101/546 103/547 111/548
f 112/549 104/550 102/551 112/552
f 103/553 105/554 106/555 104/556
f 111/557 103/558 105/559 111/560
f 112/561 106/562 104/563 112/564
f 105/565 107/566 108/567 106/568
f 111/569 105/570 107/571 111/572
f 112/573 108/574 106/575 112/576
f 107/577 109/578 110/579 108/580
f 111/581 107/582 109/583 111/584
f 112/585 110/586 108/587 112/588
f 109/589 87/590 88/591 110/592
f 111/593 109/594 87/595 111/596
f 112/597 88/598 110/599 112/600
f 113/601 114/602 115/603 116/604
f 118/605 117/606 120/607 119/608
f 117/609 113/610 116/611 120/612
f 114/613 118/614 119/615 115/616
f 116/617 115/618 119/619 120/620
f 117/621 118/622 114/623 113/624
f 121/625 123/626 124/627 122/628
f 145/629 121/630 123/631 145/632
f 146/633 124/634 122/635 146/636
f 123/637 125/638 126/639 124/640
f 145/641 123/642 125/643 145/644
f 146/645 126/646 124/647 146/648
f 125/649 127/650 128/651 126/652
f 145/653 125/654 127/655 145/656
f 146/657 128/658 126/659 146/660
f 127/661 129/662 130/663 128/664
f 145/665 127/666 129/667 145/668
f 146/669 130/670 128/671 146/672
f 129/673 131/674 132/675 130/676
f 145/677 129/678 131/679 145/680
f 146/681 132/682 130/683 146/684
f 131/685 133/686 134/687 132/688
f 145/689 131/690 133/691 145/692
f 146/693 134/694 132/695 146/696
f 133/697 135/698 136/699 134/700
f 145/701 133/702 135/703 145/704
f 146/705 136/706 134/707 146/708
f 135/709 137/710 138/711 136/712
f 145/713 135/714 137/715 145/716
f 146/717 138/718 136/719 146/720
f 137/721 139/722 140/723 138/724
f 145/725 137/726 139/727 145/728
f 146/729 140/730 138/731 146/732
f 139/733 141/734 142/735 140/736
f 145/737 139/738 141/739 145/740
f 146/741 142/742 140/743 146/744
f 141/745 143/746 144/747 142/748
f 145/749 141/750 143/751 145/752
f 146/753 144/754 142/755 146/756
f 143/757 121/758 122/759 144/760
f 145/761 143/762 121/763 145/764
f 146/765 122/766 144/767 146/768
f 147/769 149/770 150/771 148/772
f 171/773 147/774 149/775 171/776
f 172/777 150/778 148/779 172/780
f 149/781 151/782 152/783 150/784
f 171/785 149/786 151/787 171/788
f 172/789 152/790 150/791 172/792
f 151/793 153/794 154/795 152/796
f 171/797 151/798 153/799 171/800
f 172/801 154/802 152/803 172/804
f 153/805 155/806 156/807 154/808
f 171/809 153/810 155/811 171/812
f 172/813 156/814 154/815 172/816
f 155/817 157/818 158/819 156/820
f 171/821 155/822 157/823 171/824
f 172/825 158/826 156/827 172/828
f 157/829 159/830 160/831 158/832
f 171/833 157/834 159/835 171/836
f 172/837 160/838 158/839 172/840
f 159/841 161/842 162/843 160/844
f 171/845 159/846 161/847 171/848
f 172/849 162/850 160/851 172/852
f 161/853 163/854 164/855 162/856
f 171/857 161/858 163/859 171/860
f 172/861 164/862 162/863 172/864
f 163/865 165/866 166/867 164/868
f 171/869 163/870 165/871 171/872
f 172/873 166/874 164/875 172/876
f 165/877 167/878 168/879 166/880
f 171/881 165/882 167/883 171/884
f 172/885 168/886 166/887 172/888
f 167/889 169/890 170/891 168/892
f 171/893 167/894 169/895 171/896
f 172/897 170/898 168/899 172/900
f 169/901 147/902 148/903 170/904
f 171/905 169/906 147/907 171/908
f 172/909 148/910 170/911 172/912
f 173/913 174/914 175/915 176/916
f 178/917 177/918 180/919 179/920
f 177/921 173/922 176/923 180/924
f 174/925 178/926 179/927 175/928
f 176/929 175/930 179/931 180/932
f 177/933 178/934 174/935 173/936
f 181/937 183/938 184/939 182/940
f 205/941 181/942 183/943 205/944
f 206/945 184/946 182/947 206/948
f 183/949 185/950 186/951 184/952
f 205/953 183/954 185/955 205/956
f 206/957 186/958 184/959 206/960
f 185/961 187/962 188/963 186/964
f 205/965 185/966 187/967 205/968
f 206/969 188/970 186/971 206/972
f 187/973 189/974 190/975 188/976
f 205/977 187/978 189/979 205/980
f 206/981 190/982 188/983 206/984
f 189/985 191/986 192/987 190/988
f 205/989 189/990 191/991 205/992
f 206/993 192/994 190/995 206/996
f 191/997 193/998 194/999 192/1000
f 205/1001 191/1002 193/1003 205/1004
f 206/1005 194/1006 192/1007 206/1008
f 193/1009 195/1010 196/1011 194/1012
f 205/1013 193/1014 195/1015 205/1016
f 206/1017 196/1018 194/1019 206/1020
f 195/1021 197/1022 198/1023 196/1024
f 205/1025 195/1026 197/1027 205/1028
f 206/1029 198/1030 196/1031 206/1032
f 197/1033 199/1034 200/1035 198/1036
f 205/1037 197/1038 199/1039 205/1040
f 206/1041 200/1042 198/1043 206/1044
f 199/1045 201/1046 202/1047 200/1048
f 205/1049 199/1050 201/1051 205/1052
f 206/1053 202/1054 200/1055 206/1056
f 201/1057 203/1058 204/1059 202/1060
f 205/1061 201/1062 203/1063 205/1064
f 206/1065 204/1066 202/1067 206/1068
f 203/1069 181/1070 182/1071 204/1072
f 205/1073 203/1074 181/1075 205/1076
f 206/1077 182/1078 204/1079 206/1080
f 207/1081 209/1082 210/1083 208/1084
f 231/1085 207/1086 209/1087 231/1088
f 232/1089 210/1090 208/1091 232/1092
f 209/1093 211/1094 212/1095 210/1096
f 231/1097 209/1098 211/1099 231/1100
f 232/1101 212/1102 210/1103 232/1104
f 211/1105 213/1106 214/1107 212/1108
f 231/1109 211/1110 213/1111 231/1112
f 232/1113 214/1114 212/1115 232/1116
f 213/1117 215/1118 216/1119 214/1120
f 231/1121 213/1122 215/1123 231/1124
f 232/1125 216/1126 214/1127 232/1128
f 215/1129 217/1130 218/1131 216/1132
f 231/1133 215/1134 217/1135 231/1136
f 232/1137 218/1138 216/1139 232/1140
f 217/1141 219/1142 220/1143 218/1144
f 231/1145 217/1146 219/1147 231/1148
f 232/1149 220/1150 218/1151 232/1152
f 219/1153 221/1154 222/1155 220/1156
f 231/1157 219/1158 221/1159 231/1160
f 232/1161 222/1162 220/1163 232/1164
f 221/1165 223/1166 224/1167 222/1168
f 231/1169 221/1170 223/1171 231/1172
f 232/1173 224/1174 222/1175 232/1176
f 223/1177 225/1178 226/1179 224/1180
f 231/1181 223/1182 225/1183 231/1184
f 232/1185 226/1186 224/1187 232/1188
f 225/1189 227/1190 228/1191 226/1192
f 231/1193 225/1194 227/1195 231/1196
f 232/1197 228/1198 226/1199 232/1200
f 227/1201 229/1202 230/1203 228/1204
f 231/1205 227/1206 229/1207 231/1208
f 232/1209 230/1210 228/1211 232/1212
f 229/1213 207/1214 208/1215 230/1216
f 231/1217 229/1218 207/1219 231/1220
f 232/1221 208/1222 230/1223 232/1224
f 233/1225 234/1226 235/1227 236/1228
f 238/1229 237/1230 240/1231 239/1232
f 237/1233 233/1234 236/1235 240/1236
f 234/1237 238/1238 239/1239 235/1240
f 236/1241 235/1242 239/1243 240/1244
f 237/1245 238/1246 234/1247 233/1248
f 241/1249 243/1250 244/1251 242/1252
f 265/1253 241/1254 243/1255 265/1256
f 266/1257 244/1258 242/1259 266/1260
f 243/1261 245/1262 246/1263 244/1264
f 265/1265 243/1266 245/1267 265/1268
f 266/1269 246/1270 244/1271 266/1272
f 245/1273 247/1274 248/1275 246/1276
f 265/1277 245/1278 247/1279 265/1280
f 266/1281 248/1282 246/1283 266/1284
f 247/1285 249/1286 250/1287 248/1288
f 265/1289 247/1290 249/1291 265/1292
f 266/1293 250/1294 248/1295 266/1296
f 249/1297 251/1298 252/1299 250/1300
f 265/1301 249/1302 251/1303 265/1304
f 266/1305 252/1306 250/1307 266/1308
f 251/1309 253/1310 254/1311 252/1312
f 265/1313 251/1314 253/1315 265/1316
f 266/1317 254/1318 252/1319 266/1320
f 253/1321 255/1322 256/1323 254/1324
f 265/1325 253/1326 255/1327 265/1328
f 266/1329 256/1330 254/1331 266/1332
f 255/1333 257/1334 258/1335 256/1336
f 265/1337 255/1338 257/1339 265/1340
f 266/1341 258/1342 256/1343 266/1344
f 257/1345 259/1346 260/1347 258/1348
f 265/1349 257/1350 259/1351 265/1352
f 266/1353 260/1354 258/1355 266/1356
f 259/1357 261/1358 262/1359 260/1360
f 265/1361 259/1362 261/1363 265/1364
f 266/1365 262/1366 260/1367 266/1368
f 261/1369 263/1370 264/1371 262/1372
f 265/1373 261/1374 263/1375 265/1376
f 266/1377 264/1378 262/1379 266/1380
f 263/1381 241/1382 242/1383 264/1384
f 265/1385 263/1386 241/1387 265/1388
f 266/1389 242/1390 264/1391 266/1392
f 267/1393 269/1394 270/1395 268/1396
f 291/1397 267/1398 269/1399 291/1400
f 292/1401 270/1402 268/1403 292/1404
f 269/1405 271/1406 272/1407 270/1408
f 291/1409 269/1410 271/1411 291/1412
f 292/1413 272/1414 270/1415 292/1416
f 271/1417 273/1418 274/1419 272/1420
f 291/1421 271/1422 273/1423 291/1424
f 292/1425 274/1426 272/1427 292/1428
f 273/1429 275/1430 276/1431 274/1432
f 291/1433 273/1434 275/1435 291/1436
f 292/1437 276/1438 274/1439 292/1440
f 275/1441 277/1442 278/1443 276/1444
f 291/1445 275/1446 277/1447 291/1448
f 292/1449 278/1450 276/1451 292/1452
f 277/1453 279/1454 280/1455 278/1456
f 291/1457 277/1458 279/1459 291/1460
f 292/1461 280/1462 278/1463 292/1464
f 279/1465 281/1466 282/1467 280/1468
f 291/1469 279/1470 281/1471 291/1472
f 292/1473 282/1474 280/1475 292/1476
f 281/1477 283/1478 284/1479 282/1480
f 291/1481 281/1482 283/1483 291/1484
f 292/1485 284/1486 282/1487 292/1488
f 283/1489 285/1490 286/1491 284/1492
f 291/1493 283/1494 285/1495 291/1496
f 292/1497 286/1498 284/1499 292/1500
f 285/1501 287/1502 288/1503 286/1504
f 291/1505 285/1506 287/1507 291/1508
f 292/1509 288/1510 286/1511 292/1512
f 287/1513 289/1514 290/1515 288/1516
f 291/1517 287/1518 289/1519 291/1520
f 292/1521 290/1522 288/1523 292/1524
f 289/1525 267/1526 268/1527 290/1528
f 291/1529 289/1530 267/1531 291/1532
f 292/1533 268/1534 290/1535 292/1536
f 293/1537 294/1538 295/1539 296/1540
f 298/1541 297/1542 300/1543 299/1544
f 297/1545 293/1546 296/1547 300/1548
f 294/1549 298/1550 299/1551 295/1552
f 296/1553 295/1554 299/1555 300/1556
f 297/1557 298/1558 294/1559 293/1560
usemtl mat_dark
f 301/1561 302/1562 303/1563 304/1564
f 306/1565 305/1566 308/1567 307/1568
f 305/1569 301/1570 304/1571 308/1572
f 302/1573 306/1574 307/1575 303/1576
f 304/1577 303/1578 307/1579 308/1580
f 305/1581 306/1582 302/1583 301/1584
f 309/1585 310/1586 311/1587 312/1588
f 314/1589 313/1590 316/1591 315/1592
f 313/1593 309/1594 312/1595 316/1596
f 310/1597 314/1598 315/1599 311/1600
f 312/1601 311/1602 315/1603 316/1604
f 313/1605 314/1606 310/1607 309/1608
