mtllib dumpster.mtl
o dumpster
v -3.2 0 -1.55
v 3.2 0 -1.55
v 3.2 2.9 -1.55
v -3.2 2.9 -1.55
v -3.2 0 1.55
v 3.2 0 1.55
v 3.2 2.9 1.55
v -3.2 2.9 1.55
v -3.25 2.975 -1.625
v -0.15 2.975 -1.625
v -0.15 3.325 -1.625
v -3.25 3.325 -1.625
v -3.25 2.975 1.625
v -0.15 2.975 1.625
v -0.15 3.325 1.625
v -3.25 3.325 1.625
v 0.15 2.975 -1.625
v 3.25 2.975 -1.625
v 3.25 3.325 -1.625
v 0.15 3.325 -1.625
v 0.15 2.975 1.625
v 3.25 2.975 1.625
v 3.25 3.325 1.625
v 0.15 3.325 1.625
v -2.675 0.5 -1.35
v -2.325 0.5 -1.35
v -2.675 0.4531 -1.175
v -2.325 0.4531 -1.175
v -2.675 0.325 -1.0469
v -2.325 0.325 -1.0469
v -2.675 0.15 -1
v -2.325 0.15 -1
v -2.675 -0.025 -1.0469
v -2.325 -0.025 -1.0469
v -2.675 -0.1531 -1.175
v -2.325 -0.1531 -1.175
v -2.675 -0.2 -1.35
v -2.325 -0.2 -1.35
v -2.675 -0.1531 -1.525
v -2.325 -0.1531 -1.525
v -2.675 -0.025 -1.6531
v -2.325 -0.025 -1.6531
v -2.675 0.15 -1.7
v -2.325 0.15 -1.7
v -2.675 0.325 -1.6531
v -2.325 0.325 -1.6531
v -2.675 0.4531 -1.525
v -2.325 0.4531 -1.525
v -2.675 0.15 -1.35
v -2.325 0.15 -1.35
v 2.325 0.5 -1.35
v 2.675 0.5 -1.35
v 2.325 0.4531 -1.175
v 2.675 0.4531 -1.175
v 2.325 0.325 -1.0469
v 2.675 0.325 -1.0469
v 2.325 0.15 -1
v 2.675 0.15 -1
v 2.325 -0.025 -1.0469
v 2.675 -0.025 -1.0469
v 2.325 -0.1531 -1.175
v 2.675 -0.1531 -1.175
v 2.325 -0.2 -1.35
v 2.675 -0.2 -1.35
v 2.325 -0.1531 -1.525
v 2.675 -0.1531 -1.525
v 2.325 -0.025 -1.6531
v 2.675 -0.025 -1.6531
v 2.325 0.15 -1.7
v 2.675 0.15 -1.7
v 2.325 0.325 -1.6531
v 2.675 0.325 -1.6531
v 2.325 0.4531 -1.525
v 2.675 0.4531 -1.525
v 2.325 0.15 -1.35
v 2.675 0.15 -1.35
vt 0 0
vt 1 0
vt 1 1
vt 0 1
vt 0 0
vt 1 0
vt 1 1
vt 0 1
vt 0 0
vt 1 0
vt 1 1
vt 0 1
vt 0 0
vt 1 0
vt 1 1
vt 0 1
vt 0 0
vt 1 0
vt 1 1
vt 0 1
vt 0 0
vt 1 0
vt 1 1
vt 0 1
vt 0 0
vt 1 0
vt 1 1
vt 0 1
vt 0 0
vt 1 0
vt 1 1
vt 0 1
vt 0 0
vt 1 0
vt 1 1
vt 0 1
vt 0 0
vt 1 0
vt 1 1
vt 0 1
vt 0 0
vt 1 0
vt 1 1
vt 0 1
vt 0 0
vt 1 0
vt 1 1
vt 0 1
vt 0 0
vt 1 0
vt 1 1
vt 0 1
vt 0 0
vt 1 0
vt 1 1
vt 0 1
vt 0 0
vt 1 0
vt 1 1
vt 0 1
vt 0 0
vt 1 0
vt 1 1
vt 0 1
vt 0 0
vt 1 0
vt 1 1
vt 0 1
vt 0 0
vt 1 0
vt 1 1
vt 0 1
vt 0 0
vt 1 0
vt 1 1
vt 0 1
vt 0 0
vt 1 0
vt 1 1
vt 0 1
vt 0 0
vt 1 0
vt 1 1
vt 0 1
vt 0 0
vt 1 0
vt 1 1
vt 0 1
vt 0 0
vt 1 0
vt 1 1
vt 0 1
vt 0 0
vt 1 0
vt 1 1
vt 0 1
vt 0 0
vt 1 0
vt 1 1
vt 0 1
vt 0 0
vt 1 0
vt 1 1
vt 0 1
vt 0 0
vt 1 0
vt 1 1
vt 0 1
vt 0 0
vt 1 0
vt 1 1
vt 0 1
vt 0 0
vt 1 0
vt 1 1
vt 0 1
vt 0 0
vt 1 0
vt 1 1
vt 0 1
vt 0 0
vt 1 0
vt 1 1
vt 0 1
vt 0 0
vt 1 0
vt 1 1
vt 0 1
vt 0 0
vt 1 0
vt 1 1
vt 0 1
vt 0 0
vt 1 0
vt 1 1
vt 0 1
vt 0 0
vt 1 0
vt 1 1
vt 0 1
vt 0 0
vt 1 0
vt 1 1
vt 0 1
vt 0 0
vt 1 0
vt 1 1
vt 0 1
vt 0 0
vt 1 0
vt 1 1
vt 0 1
vt 0 0
vt 1 0
vt 1 1
vt 0 1
vt 0 0
vt 1 0
vt 1 1
vt 0 1
vt 0 0
vt 1 0
vt 1 1
vt 0 1
vt 0 0
vt 1 0
vt 1 1
vt 0 1
vt 0 0
vt 1 0
vt 1 1
vt 0 1
vt 0 0
vt 1 0
vt 1 1
vt 0 1
vt 0 0
vt 1 0
vt 1 1
vt 0 1
vt 0 0
vt 1 0
vt 1 1
vt 0 1
vt 0 0
vt 1 0
vt 1 1
vt 0 1
vt 0 0
vt 1 0
vt 1 1
vt 0 1
vt 0 0
vt 1 0
vt 1 1
vt 0 1
vt 0 0
vt 1 0
vt 1 1
vt 0 1
vt 0 0
vt 1 0
vt 1 1
vt 0 1
vt 0 0
vt 1 0
vt 1 1
vt 0 1
vt 0 0
vt 1 0
vt 1 1
vt 0 1
vt 0 0
vt 1 0
vt 1 1
vt 0 1
vt 0 0
vt 1 0
vt 1 1
vt 0 1
vt 0 0
vt 1 0
vt 1 1
vt 0 1
vt 0 0
vt 1 0
vt 1 1
vt 0 1
vt 0 0
vt 1 0
vt 1 1
vt 0 1
vt 0 0
vt 1 0
vt 1 1
vt 0 1
vt 0 0
vt 1 0
vt 1 1
vt 0 1
vt 0 0
vt 1 0
vt 1 1
vt 0 1
vt 0 0
vt 1 0
vt 1 1
vt 0 1
vt 0 0
vt 1 0
vt 1 1
vt 0 1
vt 0 0
vt 1 0
vt 1 1
vt 0 1
vt 0 0
vt 1 0
vt 1 1
vt 0 1
vt 0 0
vt 1 0
vt 1 1
vt 0 1
vt 0 0
vt 1 0
vt 1 1
vt 0 1
vt 0 0
vt 1 0
vt 1 1
vt 0 1
vt 0 0
vt 1 0
vt 1 1
vt 0 1
vt 0 0
vt 1 0
vt 1 1
vt 0 1
vt 0 0
vt 1 0
vt 1 1
vt 0 1
vt 0 0
vt 1 0
vt 1 1
vt 0 1
vt 0 0
vt 1 0
vt 1 1
vt 0 1
vt 0 0
vt 1 0
vt 1 1
vt 0 1
vt 0 0
vt 1 0
vt 1 1
vt 0 1
vt 0 0
vt 1 0
vt 1 1
vt 0 1
vt 0 0
vt 1 0
vt 1 1
vt 0 1
vt 0 0
vt 1 0
vt 1 1
vt 0 1
vt 0 0
vt 1 0
vt 1 1
vt 0 1
vt 0 0
vt 1 0
vt 1 1
vt 0 1
vt 0 0
vt 1 0
vt 1 1
vt 0 1
vt 0 0
vt 1 0
vt 1 1
vt 0 1
vt 0 0
vt 1 0
vt 1 1
vt 0 1
vt 0 0
vt 1 0
vt 1 1
vt 0 1
vt 0 0
vt 1 0
vt 1 1
vt 0 1
vt 0 0
vt 1 0
vt 1 1
vt 0 1
vt 0 0
vt 1 0
vt 1 1
vt 0 1
vt 0 0
vt 1 0
vt 1 1
vt 0 1
vt 0 0
vt 1 0
vt 1 1
vt 0 1
vt 0 0
vt 1 0
vt 1 1
vt 0 1
usemtl mat_texture
f 1/1 2/2 3/3 4/4
f 6/5 5/6 8/7 7/8
f 5/9 1/10 4/11 8/12
f 2/13 6/14 7/15 3/16
f 4/17 3/18 7/19 8/20
f 5/21 6/22 2/23 1/24
usemtl mat_dark
f 9/25 10/26 11/27 12/28
f 14/29 13/30 16/31 15/32
f 13/33 9/34 12/35 16/36
f 10/37 14/38 15/39 11/40
f 12/41 11/42 15/43 16/44
f 13/45 14/46 10/47 9/48
f 17/49 18/50 19/51 20/52
f 22/53 21/54 24/55 23/56
f 21/57 17/58 20/59 24/60
f 18/61 22/62 23/63 19/64
f 20/65 19/66 23/67 24/68
f 21/69 22/70 18/71 17/72
f 25/73 27/74 28/75 26/76
f 49/77 25/78 27/79 49/80
f 50/81 28/82 26/83 50/84
f 27/85 29/86 30/87 28/88
f 49/89 27/90 29/91 49/92
f 50/93 30/94 28/95 50/96
f 29/97 31/98 32/99 30/100
f 49/101 29/102 31/103 49/104
f 50/105 32/106 30/107 50/108
f 31/109 33/110 34/111 32/112
f 49/113 31/114 33/115 49/116
f 50/117 34/118 32/119 50/120
f 33/121 35/122 36/123 34/124
f 49/125 33/126 35/127 49/128
f 50/129 36/130 34/131 50/132
f 35/133 37/134 38/135 36/136
f 49/137 35/138 37/139 49/140
f 50/141 38/142 36/143 50/144
f 37/145 39/146 40/147 38/148
f 49/149 37/150 39/151 49/152
f 50/153 40/154 38/155 50/156
f 39/157 41/158 42/159 40/160
f 49/161 39/162 41/163 49/164
f 50/165 42/166 40/167 50/168
f 41/169 43/170 44/171 42/172
f 49/173 41/174 43/175 49/176
f 50/177 44/178 42/179 50/180
f 43/181 45/182 46/183 44/184
f 49/185 43/186 45/187 49/188
f 50/189 46/190 44/191 50/192
f 45/193 47/194 48/195 46/196
f 49/197 45/198 47/199 49/200
f 50/201 48/202 46/203 50/204
f 47/205 25/206 26/207 48/208
f 49/209 47/210 25/211 49/212
f 50/213 26/214 48/215 50/216
f 51/217 53/218 54/219 52/220
f 75/221 51/222 53/223 75/224
f 76/225 54/226 52/227 76/228
f 53/229 55/230 56/231 54/232
f 75/233 53/234 55/235 75/236
f 76/237 56/238 54/239 76/240
f 55/241 57/242 58/243 56/244
f 75/245 55/246 57/247 75/248
f 76/249 58/250 56/251 76/252
f 57/253 59/254 60/255 58/256
f 75/257 57/258 59/259 75/260
f 76/261 60/262 58/263 76/264
f 59/265 61/266 62/267 60/268
f 75/269 59/270 61/271 75/272
f 76/273 62/274 60/275 76/276
f 61/277 63/278 64/279 62/280
f 75/281 61/282 63/283 75/284
f 76/285 64/286 62/287 76/288
f 63/289 65/290 66/291 64/292
f 75/293 63/294 65/295 75/296
f 76/297 66/298 64/299 76/300
f 65/301 67/302 68/303 66/304
f 75/305 65/306 67/307 75/308
f 76/309 68/310 66/311 76/312
f 67/313 69/314 70/315 68/316
f 75/317 67/318 69/319 75/320
f 76/321 70/322 68/323 76/324
f 69/325 71/326 72/327 70/328
f 75/329 69/330 71/331 75/332
f 76/333 72/334 70/335 76/336
f 71/337 73/338 74/339 72/340
f 75/341 71/342 73/343 75/344
f 76/345 74/346 72/347 76/348
f 73/349 51/350 52/351 74/352
f 75/353 73/354 51/355 75/356
f 76/357 52/358 74/359 76/360
