mtllib parking_meter.mtl
o parking_meter
v 0.11 0 0
v 0.11 3.2 0
v 0.0953 0 0.055
v 0.0953 3.2 0.055
v 0.055 0 0.0953
v 0.055 3.2 0.0953
v 0 0 0.11
v 0 3.2 0.11
v -0.055 0 0.0953
v -0.055 3.2 0.0953
v -0.0953 0 0.055
v -0.0953 3.2 0.055
v -0.11 0 0
v -0.11 3.2 0
v -0.0953 0 -0.055
v -0.0953 3.2 -0.055
v -0.055 0 -0.0953
v -0.055 3.2 -0.0953
v 0 0 -0.11
v 0 3.2 -0.11
v 0.055 0 -0.0953
v 0.055 3.2 -0.0953
v 0.0953 0 -0.055
v 0.0953 3.2 -0.055
v 0 0 0
v 0 3.2 0
v -0.55 2.775 -0.36
v 0.55 2.775 -0.36
v 0.55 4.125 -0.36
v -0.55 4.125 -0.36
v -0.55 2.775 0.36
v 0.55 2.775 0.36
v 0.55 4.125 0.36
v -0.55 4.125 0.36
v -0.325 3.46 -0.43
v 0.325 3.46 -0.43
v 0.325 3.78 -0.43
v -0.325 3.78 -0.43
v -0.325 3.46 -0.35
v 0.325 3.46 -0.35
v 0.325 3.78 -0.35
v -0.325 3.78 -0.35
v -0.45 0 -0.45
v 0.45 0 -0.45
v 0.45 0.16 -0.45
v -0.45 0.16 -0.45
v -0.45 0 0.45
v 0.45 0 0.45
v 0.45 0.16 0.45
v -0.45 0.16 0.45
vt 0 0
vt 1 0
vt 1 1
vt 0 1
vt 0 0
vt 1 0
vt 1 1
vt 0 1
vt 0 0
vt 1 0
vt 1 1
vt 0 1
vt 0 0
vt 1 0
vt 1 1
vt 0 1
vt 0 0
vt 1 0
vt 1 1
vt 0 1
vt 0 0
vt 1 0
vt 1 1
vt 0 1
vt 0 0
vt 1 0
vt 1 1
vt 0 1
vt 0 0
vt 1 0
vt 1 1
vt 0 1
vt 0 0
vt 1 0
vt 1 1
vt 0 1
vt 0 0
vt 1 0
vt 1 1
vt 0 1
vt 0 0
vt 1 0
vt 1 1
vt 0 1
vt 0 0
vt 1 0
vt 1 1
vt 0 1
vt 0 0
vt 1 0
vt 1 1
vt 0 1
vt 0 0
vt 1 0
vt 1 1
vt 0 1
vt 0 0
vt 1 0
vt 1 1
vt 0 1
vt 0 0
vt 1 0
vt 1 1
vt 0 1
vt 0 0
vt 1 0
vt 1 1
vt 0 1
vt 0 0
vt 1 0
vt 1 1
vt 0 1
vt 0 0
vt 1 0
vt 1 1
vt 0 1
vt 0 0
vt 1 0
vt 1 1
vt 0 1
vt 0 0
vt 1 0
vt 1 1
vt 0 1
vt 0 0
vt 1 0
vt 1 1
vt 0 1
vt 0 0
vt 1 0
vt 1 1
vt 0 1
vt 0 0
vt 1 0
vt 1 1
vt 0 1
vt 0 0
vt 1 0
vt 1 1
vt 0 1
vt 0 0
vt 1 0
vt 1 1
vt 0 1
vt 0 0
vt 1 0
vt 1 1
vt 0 1
vt 0 0
vt 1 0
vt 1 1
vt 0 1
vt 0 0
vt 1 0
vt 1 1
vt 0 1
vt 0 0
vt 1 0
vt 1 1
vt 0 1
vt 0 0
vt 1 0
vt 1 1
vt 0 1
vt 0 0
vt 1 0
vt 1 1
vt 0 1
vt 0 0
vt 1 0
vt 1 1
vt 0 1
vt 0 0
vt 1 0
vt 1 1
vt 0 1
vt 0 0
vt 1 0
vt 1 1
vt 0 1
vt 0 0
vt 1 0
vt 1 1
vt 0 1
vt 0 0
vt 1 0
vt 1 1
vt 0 1
vt 0 0
vt 1 0
vt 1 1
vt 0 1
vt 0 0
vt 1 0
vt 1 1
vt 0 1
vt 0 0
vt 1 0
vt 1 1
vt 0 1
vt 0 0
vt 1 0
vt 1 1
vt 0 1
vt 0 0
vt 1 0
vt 1 1
vt 0 1
vt 0 0
vt 1 0
vt 1 1
vt 0 1
vt 0 0
vt 1 0
vt 1 1
vt 0 1
vt 0 0
vt 1 0
vt 1 1
vt 0 1
vt 0 0
vt 1 0
vt 1 1
vt 0 1
vt 0 0
vt 1 0
vt 1 1
vt 0 1
vt 0 0
vt 1 0
vt 1 1
vt 0 1
vt 0 0
vt 1 0
vt 1 1
vt 0 1
vt 0 0
vt 1 0
vt 1 1
vt 0 1
vt 0 0
vt 1 0
vt 1 1
vt 0 1
vt 0 0
vt 1 0
vt 1 1
vt 0 1
vt 0 0
vt 1 0
vt 1 1
vt 0 1
vt 0 0
vt 1 0
vt 1 1
vt 0 1
usemtl mat_dark
f 1/1 3/2 4/3 2/4
f 25/5 1/6 3/7 25/8
f 26/9 4/10 2/11 26/12
f 3/13 5/14 6/15 4/16
f 25/17 3/18 5/19 25/20
f 26/21 6/22 4/23 26/24
f 5/25 7/26 8/27 6/28
f 25/29 5/30 7/31 25/32
f 26/33 8/34 6/35 26/36
f 7/37 9/38 10/39 8/40
f 25/41 7/42 9/43 25/44
f 26/45 10/46 8/47 26/48
f 9/49 11/50 12/51 10/52
f 25/53 9/54 11/55 25/56
f 26/57 12/58 10/59 26/60
f 11/61 13/62 14/63 12/64
f 25/65 11/66 13/67 25/68
f 26/69 14/70 12/71 26/72
f 13/73 15/74 16/75 14/76
f 25/77 13/78 15/79 25/80
f 26/81 16/82 14/83 26/84
f 15/85 17/86 18/87 16/88
f 25/89 15/90 17/91 25/92
f 26/93 18/94 16/95 26/96
f 17/97 19/98 20/99 18/100
f 25/101 17/102 19/103 25/104
f 26/105 20/106 18/107 26/108
f 19/109 21/110 22/111 20/112
f 25/113 19/114 21/115 25/116
f 26/117 22/118 20/119 26/120
f 21/121 23/122 24/123 22/124
f 25/125 21/126 23/127 25/128
f 26/129 24/130 22/131 26/132
f 23/133 1/134 2/135 24/136
f 25/137 23/138 1/139 25/140
f 26/141 2/142 24/143 26/144
usemtl mat_texture
f 27/145 28/146 29/147 30/148
f 32/149 31/150 34/151 33/152
f 31/153 27/154 30/155 34/156
f 28/157 32/158 33/159 29/160
f 30/161 29/162 33/163 34/164
f 31/165 32/166 28/167 27/168
usemtl mat_glass
f 35/169 36/170 37/171 38/172
f 40/173 39/174 42/175 41/176
f 39/177 35/178 38/179 42/180
f 36/181 40/182 41/183 37/184
f 38/185 37/186 41/187 42/188
f 39/189 40/190 36/191 35/192
usemtl mat_metal
f 43/193 44/194 45/195 46/196
f 48/197 47/198 50/199 49/200
f 47/201 43/202 46/203 50/204
f 44/205 48/206 49/207 45/208
f 46/209 45/210 49/211 50/212
f 47/213 48/214 44/215 43/216
