mtllib street_lamp.mtl
o street_lamp
v 0.85 0 0
v 0.85 0.4 0
v 0.7853 0 0.3253
v 0.7853 0.4 0.3253
v 0.601 0 0.601
v 0.601 0.4 0.601
v 0.3253 0 0.7853
v 0.3253 0.4 0.7853
v 0 0 0.85
v 0 0.4 0.85
v -0.3253 0 0.7853
v -0.3253 0.4 0.7853
v -0.601 0 0.601
v -0.601 0.4 0.601
v -0.7853 0 0.3253
v -0.7853 0.4 0.3253
v -0.85 0 0
v -0.85 0.4 0
v -0.7853 0 -0.3253
v -0.7853 0.4 -0.3253
v -0.601 0 -0.601
v -0.601 0.4 -0.601
v -0.3253 0 -0.7853
v -0.3253 0.4 -0.7853
v 0 0 -0.85
v 0 0.4 -0.85
v 0.3253 0 -0.7853
v 0.3253 0.4 -0.7853
v 0.601 0 -0.601
v 0.601 0.4 -0.601
v 0.7853 0 -0.3253
v 0.7853 0.4 -0.3253
v 0 0 0
v 0 0.4 0
v 0.16 0.2 0
v 0.16 12.2 0
v 0.1478 0.2 0.0612
v 0.1478 12.2 0.0612
v 0.1131 0.2 0.1131
v 0.1131 12.2 0.1131
v 0.0612 0.2 0.1478
v 0.0612 12.2 0.1478
v 0 0.2 0.16
v 0 12.2 0.16
v -0.0612 0.2 0.1478
v -0.0612 12.2 0.1478
v -0.1131 0.2 0.1131
v -0.1131 12.2 0.1131
v -0.1478 0.2 0.0612
v -0.1478 12.2 0.0612
v -0.16 0.2 0
v -0.16 12.2 0
v -0.1478 0.2 -0.0612
v -0.1478 12.2 -0.0612
v -0.1131 0.2 -0.1131
v -0.1131 12.2 -0.1131
v -0.0612 0.2 -0.1478
v -0.0612 12.2 -0.1478
v 0 0.2 -0.16
v 0 12.2 -0.16
v 0.0612 0.2 -0.1478
v 0.0612 12.2 -0.1478
v 0.1131 0.2 -0.1131
v 0.1131 12.2 -0.1131
v 0.1478 0.2 -0.0612
v 0.1478 12.2 -0.0612
v 0 0.2 0
v 0 12.2 0
v -0.05 11.91 -0.09
v 3.35 11.91 -0.09
v 3.35 12.09 -0.09
v -0.05 12.09 -0.09
v -0.05 11.91 0.09
v 3.35 11.91 0.09
v 3.35 12.09 0.09
v -0.05 12.09 0.09
v 2.45 11.325 -0.45
v 3.65 11.325 -0.45
v 3.65 11.875 -0.45
v 2.45 11.875 -0.45
v 2.45 11.325 0.45
v 3.65 11.325 0.45
v 3.65 11.875 0.45
v 2.45 11.875 0.45
v 2.9 11.29 -0.275
v 3.6 11.29 -0.275
v 3.6 11.41 -0.275
v 2.9 11.41 -0.275
v 2.9 11.29 0.275
v 3.6 11.29 0.275
v 3.6 11.41 0.275
v 2.9 11.41 0.275
vt 0 0
vt 1 0
vt 1 1
vt 0 1
vt 0 0
vt 1 0
vt 1 1
vt 0 1
vt 0 0
vt 1 0
vt 1 1
vt 0 1
vt 0 0
vt 1 0
vt 1 1
vt 0 1
vt 0 0
vt 1 0
vt 1 1
vt 0 1
vt 0 0
vt 1 0
vt 1 1
vt 0 1
vt 0 0
vt 1 0
vt 1 1
vt 0 1
vt 0 0
vt 1 0
vt 1 1
vt 0 1
vt 0 0
vt 1 0
vt 1 1
vt 0 1
vt 0 0
vt 1 0
vt 1 1
vt 0 1
vt 0 0
vt 1 0
vt 1 1
vt 0 1
vt 0 0
vt 1 0
vt 1 1
vt 0 1
vt 0 0
vt 1 0
vt 1 1
vt 0 1
vt 0 0
vt 1 0
vt 1 1
vt 0 1
vt 0 0
vt 1 0
vt 1 1
vt 0 1
vt 0 0
vt 1 0
vt 1 1
vt 0 1
vt 0 0
vt 1 0
vt 1 1
vt 0 1
vt 0 0
vt 1 0
vt 1 1
vt 0 1
vt 0 0
vt 1 0
vt 1 1
vt 0 1
vt 0 0
vt 1 0
vt 1 1
vt 0 1
vt 0 0
vt 1 0
vt 1 1
vt 0 1
vt 0 0
vt 1 0
vt 1 1
vt 0 1
vt 0 0
vt 1 0
vt 1 1
vt 0 1
vt 0 0
vt 1 0
vt 1 1
vt 0 1
vt 0 0
vt 1 0
vt 1 1
vt 0 1
vt 0 0
vt 1 0
vt 1 1
vt 0 1
vt 0 0
vt 1 0
vt 1 1
vt 0 1
vt 0 0
vt 1 0
vt 1 1
vt 0 1
vt 0 0
vt 1 0
vt 1 1
vt 0 1
vt 0 0
vt 1 0
vt 1 1
vt 0 1
vt 0 0
vt 1 0
vt 1 1
vt 0 1
vt 0 0
vt 1 0
vt 1 1
vt 0 1
vt 0 0
vt 1 0
vt 1 1
vt 0 1
vt 0 0
vt 1 0
vt 1 1
vt 0 1
vt 0 0
vt 1 0
vt 1 1
vt 0 1
vt 0 0
vt 1 0
vt 1 1
vt 0 1
vt 0 0
vt 1 0
vt 1 1
vt 0 1
vt 0 0
vt 1 0
vt 1 1
vt 0 1
vt 0 0
vt 1 0
vt 1 1
vt 0 1
vt 0 0
vt 1 0
vt 1 1
vt 0 1
vt 0 0
vt 1 0
vt 1 1
vt 0 1
vt 0 0
vt 1 0
vt 1 1
vt 0 1
vt 0 0
vt 1 0
vt 1 1
vt 0 1
vt 0 0
vt 1 0
vt 1 1
vt 0 1
vt 0 0
vt 1 0
vt 1 1
vt 0 1
vt 0 0
vt 1 0
vt 1 1
vt 0 1
vt 0 0
vt 1 0
vt 1 1
vt 0 1
vt 0 0
vt 1 0
vt 1 1
vt 0 1
vt 0 0
vt 1 0
vt 1 1
vt 0 1
vt 0 0
vt 1 0
vt 1 1
vt 0 1
vt 0 0
vt 1 0
vt 1 1
vt 0 1
vt 0 0
vt 1 0
vt 1 1
vt 0 1
vt 0 0
vt 1 0
vt 1 1
vt 0 1
vt 0 0
vt 1 0
vt 1 1
vt 0 1
vt 0 0
vt 1 0
vt 1 1
vt 0 1
vt 0 0
vt 1 0
vt 1 1
vt 0 1
vt 0 0
vt 1 0
vt 1 1
vt 0 1
vt 0 0
vt 1 0
vt 1 1
vt 0 1
vt 0 0
vt 1 0
vt 1 1
vt 0 1
vt 0 0
vt 1 0
vt 1 1
vt 0 1
vt 0 0
vt 1 0
vt 1 1
vt 0 1
vt 0 0
vt 1 0
vt 1 1
vt 0 1
vt 0 0
vt 1 0
vt 1 1
vt 0 1
vt 0 0
vt 1 0
vt 1 1
vt 0 1
vt 0 0
vt 1 0
vt 1 1
vt 0 1
vt 0 0
vt 1 0
vt 1 1
vt 0 1
vt 0 0
vt 1 0
vt 1 1
vt 0 1
vt 0 0
vt 1 0
vt 1 1
vt 0 1
vt 0 0
vt 1 0
vt 1 1
vt 0 1
vt 0 0
vt 1 0
vt 1 1
vt 0 1
vt 0 0
vt 1 0
vt 1 1
vt 0 1
vt 0 0
vt 1 0
vt 1 1
vt 0 1
vt 0 0
vt 1 0
vt 1 1
vt 0 1
vt 0 0
vt 1 0
vt 1 1
vt 0 1
vt 0 0
vt 1 0
vt 1 1
vt 0 1
vt 0 0
vt 1 0
vt 1 1
vt 0 1
vt 0 0
vt 1 0
vt 1 1
vt 0 1
vt 0 0
vt 1 0
vt 1 1
vt 0 1
vt 0 0
vt 1 0
vt 1 1
vt 0 1
vt 0 0
vt 1 0
vt 1 1
vt 0 1
vt 0 0
vt 1 0
vt 1 1
vt 0 1
vt 0 0
vt 1 0
vt 1 1
vt 0 1
vt 0 0
vt 1 0
vt 1 1
vt 0 1
vt 0 0
vt 1 0
vt 1 1
vt 0 1
vt 0 0
vt 1 0
vt 1 1
vt 0 1
vt 0 0
vt 1 0
vt 1 1
vt 0 1
vt 0 0
vt 1 0
vt 1 1
vt 0 1
vt 0 0
vt 1 0
vt 1 1
vt 0 1
vt 0 0
vt 1 0
vt 1 1
vt 0 1
vt 0 0
vt 1 0
vt 1 1
vt 0 1
vt 0 0
vt 1 0
vt 1 1
vt 0 1
vt 0 0
vt 1 0
vt 1 1
vt 0 1
vt 0 0
vt 1 0
vt 1 1
vt 0 1
vt 0 0
vt 1 0
vt 1 1
vt 0 1
vt 0 0
vt 1 0
vt 1 1
vt 0 1
vt 0 0
vt 1 0
vt 1 1
vt 0 1
vt 0 0
vt 1 0
vt 1 1
vt 0 1
vt 0 0
vt 1 0
vt 1 1
vt 0 1
vt 0 0
vt 1 0
vt 1 1
vt 0 1
vt 0 0
vt 1 0
vt 1 1
vt 0 1
vt 0 0
vt 1 0
vt 1 1
vt 0 1
vt 0 0
vt 1 0
vt 1 1
vt 0 1
vt 0 0
vt 1 0
vt 1 1
vt 0 1
vt 0 0
vt 1 0
vt 1 1
vt 0 1
vt 0 0
vt 1 0
vt 1 1
vt 0 1
vt 0 0
vt 1 0
vt 1 1
vt 0 1
vt 0 0
vt 1 0
vt 1 1
vt 0 1
vt 0 0
vt 1 0
vt 1 1
vt 0 1
vt 0 0
vt 1 0
vt 1 1
vt 0 1
vt 0 0
vt 1 0
vt 1 1
vt 0 1
vt 0 0
vt 1 0
vt 1 1
vt 0 1
vt 0 0
vt 1 0
vt 1 1
vt 0 1
vt 0 0
vt 1 0
vt 1 1
vt 0 1
vt 0 0
vt 1 0
vt 1 1
vt 0 1
usemtl mat_metal
f 1/1 3/2 4/3 2/4
f 33/5 1/6 3/7 33/8
f 34/9 4/10 2/11 34/12
f 3/13 5/14 6/15 4/16
f 33/17 3/18 5/19 33/20
f 34/21 6/22 4/23 34/24
f 5/25 7/26 8/27 6/28
f 33/29 5/30 7/31 33/32
f 34/33 8/34 6/35 34/36
f 7/37 9/38 10/39 8/40
f 33/41 7/42 9/43 33/44
f 34/45 10/46 8/47 34/48
f 9/49 11/50 12/51 10/52
f 33/53 9/54 11/55 33/56
f 34/57 12/58 10/59 34/60
f 11/61 13/62 14/63 12/64
f 33/65 11/66 13/67 33/68
f 34/69 14/70 12/71 34/72
f 13/73 15/74 16/75 14/76
f 33/77 13/78 15/79 33/80
f 34/81 16/82 14/83 34/84
f 15/85 17/86 18/87 16/88
f 33/89 15/90 17/91 33/92
f 34/93 18/94 16/95 34/96
f 17/97 19/98 20/99 18/100
f 33/101 17/102 19/103 33/104
f 34/105 20/106 18/107 34/108
f 19/109 21/110 22/111 20/112
f 33/113 19/114 21/115 33/116
f 34/117 22/118 20/119 34/120
f 21/121 23/122 24/123 22/124
f 33/125 21/126 23/127 33/128
f 34/129 24/130 22/131 34/132
f 23/133 25/134 26/135 24/136
f 33/137 23/138 25/139 33/140
f 34/141 26/142 24/143 34/144
f 25/145 27/146 28/147 26/148
f 33/149 25/150 27/151 33/152
f 34/153 28/154 26/155 34/156
f 27/157 29/158 30/159 28/160
f 33/161 27/162 29/163 33/164
f 34/165 30/166 28/167 34/168
f 29/169 31/170 32/171 30/172
f 33/173 29/174 31/175 33/176
f 34/177 32/178 30/179 34/180
f 31/181 1/182 2/183 32/184
f 33/185 31/186 1/187 33/188
f 34/189 2/190 32/191 34/192
usemtl mat_dark
f 35/193 37/194 38/195 36/196
f 67/197 35/198 37/199 67/200
f 68/201 38/202 36/203 68/204
f 37/205 39/206 40/207 38/208
f 67/209 37/210 39/211 67/212
f 68/213 40/214 38/215 68/216
f 39/217 41/218 42/219 40/220
f 67/221 39/222 41/223 67/224
f 68/225 42/226 40/227 68/228
f 41/229 43/230 44/231 42/232
f 67/233 41/234 43/235 67/236
f 68/237 44/238 42/239 68/240
f 43/241 45/242 46/243 44/244
f 67/245 43/246 45/247 67/248
f 68/249 46/250 44/251 68/252
f 45/253 47/254 48/255 46/256
f 67/257 45/258 47/259 67/260
f 68/261 48/262 46/263 68/264
f 47/265 49/266 50/267 48/268
f 67/269 47/270 49/271 67/272
f 68/273 50/274 48/275 68/276
f 49/277 51/278 52/279 50/280
f 67/281 49/282 51/283 67/284
f 68/285 52/286 50/287 68/288
f 51/289 53/290 54/291 52/292
f 67/293 51/294 53/295 67/296
f 68/297 54/298 52/299 68/300
f 53/301 55/302 56/303 54/304
f 67/305 53/306 55/307 67/308
f 68/309 56/310 54/311 68/312
f 55/313 57/314 58/315 56/316
f 67/317 55/318 57/319 67/320
f 68/321 58/322 56/323 68/324
f 57/325 59/326 60/327 58/328
f 67/329 57/330 59/331 67/332
f 68/333 60/334 58/335 68/336
f 59/337 61/338 62/339 60/340
f 67/341 59/342 61/343 67/344
f 68/345 62/346 60/347 68/348
f 61/349 63/350 64/351 62/352
f 67/353 61/354 63/355 67/356
f 68/357 64/358 62/359 68/360
f 63/361 65/362 66/363 64/364
f 67/365 63/366 65/367 67/368
f 68/369 66/370 64/371 68/372
f 65/373 35/374 36/375 66/376
f 67/377 65/378 35/379 67/380
f 68/381 36/382 66/383 68/384
f 69/385 70/386 71/387 72/388
f 74/389 73/390 76/391 75/392
f 73/393 69/394 72/395 76/396
f 70/397 74/398 75/399 71/400
f 72/401 71/402 75/403 76/404
f 73/405 74/406 70/407 69/408
usemtl mat_white
f 77/409 78/410 79/411 80/412
f 82/413 81/414 84/415 83/416
f 81/417 77/418 80/419 84/420
f 78/421 82/422 83/423 79/424
f 80/425 79/426 83/427 84/428
f 81/429 82/430 78/431 77/432
usemtl mat_yellow
f 85/433 86/434 87/435 88/436
f 90/437 89/438 92/439 91/440
f 89/441 85/442 88/443 92/444
f 86/445 90/446 91/447 87/448
f 88/449 87/450 91/451 92/452
f 89/453 90/454 86/455 85/456
