mtllib coche_lowpoly.mtl
o coche_lowpoly
v -0.84 0.42 2.06
v -0.84 0.42 -2.06
v 0.84 0.42 -2.06
v 0.84 0.42 2.06
v -0.92 1.1 1.98
v 0.92 1.1 1.98
v 0.92 1.1 -1.98
v -0.92 1.1 -1.98
v -0.84 0.42 2.06
v 0.84 0.42 2.06
v 0.92 1.1 1.98
v -0.92 1.1 1.98
v -0.84 0.42 -2.06
v -0.92 1.1 -1.98
v 0.92 1.1 -1.98
v 0.84 0.42 -2.06
v -0.84 0.42 2.06
v -0.92 1.1 1.98
v -0.92 1.1 -1.98
v -0.84 0.42 -2.06
v 0.84 0.42 2.06
v 0.84 0.42 -2.06
v 0.92 1.1 -1.98
v 0.92 1.1 1.98
v -0.82 1.08 1.02
v -0.82 1.08 -1.02
v 0.82 1.08 -1.02
v 0.82 1.08 1.02
v -0.6 1.78 0.62
v 0.6 1.78 0.62
v 0.6 1.78 -0.58
v -0.6 1.78 -0.58
v -0.82 1.08 1.02
v 0.82 1.08 1.02
v 0.6 1.78 0.62
v -0.6 1.78 0.62
v -0.82 1.08 -1.02
v -0.6 1.78 -0.58
v 0.6 1.78 -0.58
v 0.82 1.08 -1.02
v -0.82 1.08 1.02
v -0.6 1.78 0.62
v -0.6 1.78 -0.58
v -0.82 1.08 -1.02
v 0.82 1.08 1.02
v 0.82 1.08 -1.02
v 0.6 1.78 -0.58
v 0.6 1.78 0.62
v 0.8198 1.157 0.7978
v 0.8198 1.157 -0.7934
v 0.6482 1.703 -0.4502
v 0.6482 1.703 0.4858
v -0.6482 1.703 0.4858
v -0.6482 1.703 -0.4502
v -0.8198 1.157 -0.7934
v -0.8198 1.157 0.7978
v -0.5904 1.178 0.99
v 0.5904 1.178 0.99
v 0.432 1.682 0.702
v -0.432 1.682 0.702
v -0.444 1.689 -0.6632
v 0.444 1.689 -0.6632
v 0.6068 1.171 -0.9888
v -0.6068 1.171 -0.9888
v -0.96 0.68 1.96
v 0.96 0.68 1.96
v 0.96 0.4 1.96
v -0.96 0.4 1.96
v 0.96 0.4 2.18
v 0.96 0.68 2.18
v -0.96 0.68 2.18
v -0.96 0.4 2.18
v -0.96 0.4 2.18
v -0.96 0.68 2.18
v -0.96 0.68 1.96
v -0.96 0.4 1.96
v 0.96 0.68 1.96
v 0.96 0.68 2.18
v 0.96 0.4 2.18
v 0.96 0.4 1.96
v 0.96 0.4 1.96
v 0.96 0.4 2.18
v -0.96 0.4 2.18
v -0.96 0.4 1.96
v -0.96 0.68 2.18
v 0.96 0.68 2.18
v 0.96 0.68 1.96
v -0.96 0.68 1.96
v -0.96 0.68 -2.18
v 0.96 0.68 -2.18
v 0.96 0.4 -2.18
v -0.96 0.4 -2.18
v 0.96 0.4 -1.96
v 0.96 0.68 -1.96
v -0.96 0.68 -1.96
v -0.96 0.4 -1.96
v -0.96 0.4 -1.96
v -0.96 0.68 -1.96
v -0.96 0.68 -2.18
v -0.96 0.4 -2.18
v 0.96 0.68 -2.18
v 0.96 0.68 -1.96
v 0.96 0.4 -1.96
v 0.96 0.4 -2.18
v 0.96 0.4 -2.18
v 0.96 0.4 -1.96
v -0.96 0.4 -1.96
v -0.96 0.4 -2.18
v -0.96 0.68 -1.96
v 0.96 0.68 -1.96
v 0.96 0.68 -2.18
v -0.96 0.68 -2.18
v -0.5 0.94 2
v 0.5 0.94 2
v 0.5 0.7 2
v -0.5 0.7 2
v 0.5 0.7 2.08
v 0.5 0.94 2.08
v -0.5 0.94 2.08
v -0.5 0.7 2.08
v -0.5 0.7 2.08
v -0.5 0.94 2.08
v -0.5 0.94 2
v -0.5 0.7 2
v 0.5 0.94 2
v 0.5 0.94 2.08
v 0.5 0.7 2.08
v 0.5 0.7 2
v 0.5 0.7 2
v 0.5 0.7 2.08
v -0.5 0.7 2.08
v -0.5 0.7 2
v -0.5 0.94 2.08
v 0.5 0.94 2.08
v 0.5 0.94 2
v -0.5 0.94 2
v 0.5 0.98 2
v 0.84 0.98 2
v 0.84 0.74 2
v 0.5 0.74 2
v 0.84 0.74 2.1
v 0.84 0.98 2.1
v 0.5 0.98 2.1
v 0.5 0.74 2.1
v 0.5 0.74 2.1
v 0.5 0.98 2.1
v 0.5 0.98 2
v 0.5 0.74 2
v 0.84 0.98 2
v 0.84 0.98 2.1
v 0.84 0.74 2.1
v 0.84 0.74 2
v 0.84 0.74 2
v 0.84 0.74 2.1
v 0.5 0.74 2.1
v 0.5 0.74 2
v 0.5 0.98 2.1
v 0.84 0.98 2.1
v 0.84 0.98 2
v 0.5 0.98 2
v -0.84 0.98 2
v -0.5 0.98 2
v -0.5 0.74 2
v -0.84 0.74 2
v -0.5 0.74 2.1
v -0.5 0.98 2.1
v -0.84 0.98 2.1
v -0.84 0.74 2.1
v -0.84 0.74 2.1
v -0.84 0.98 2.1
v -0.84 0.98 2
v -0.84 0.74 2
v -0.5 0.98 2
v -0.5 0.98 2.1
v -0.5 0.74 2.1
v -0.5 0.74 2
v -0.5 0.74 2
v -0.5 0.74 2.1
v -0.84 0.74 2.1
v -0.84 0.74 2
v -0.84 0.98 2.1
v -0.5 0.98 2.1
v -0.5 0.98 2
v -0.84 0.98 2
v 0.48 1.02 -2.1
v 0.86 1.02 -2.1
v 0.86 0.72 -2.1
v 0.48 0.72 -2.1
v 0.86 0.72 -2
v 0.86 1.02 -2
v 0.48 1.02 -2
v 0.48 0.72 -2
v 0.48 0.72 -2
v 0.48 1.02 -2
v 0.48 1.02 -2.1
v 0.48 0.72 -2.1
v 0.86 1.02 -2.1
v 0.86 1.02 -2
v 0.86 0.72 -2
v 0.86 0.72 -2.1
v 0.86 0.72 -2.1
v 0.86 0.72 -2
v 0.48 0.72 -2
v 0.48 0.72 -2.1
v 0.48 1.02 -2
v 0.86 1.02 -2
v 0.86 1.02 -2.1
v 0.48 1.02 -2.1
v -0.86 1.02 -2.1
v -0.48 1.02 -2.1
v -0.48 0.72 -2.1
v -0.86 0.72 -2.1
v -0.48 0.72 -2
v -0.48 1.02 -2
v -0.86 1.02 -2
v -0.86 0.72 -2
v -0.86 0.72 -2
v -0.86 1.02 -2
v -0.86 1.02 -2.1
v -0.86 0.72 -2.1
v -0.48 1.02 -2.1
v -0.48 1.02 -2
v -0.48 0.72 -2
v -0.48 0.72 -2.1
v -0.48 0.72 -2.1
v -0.48 0.72 -2
v -0.86 0.72 -2
v -0.86 0.72 -2.1
v -0.86 1.02 -2
v -0.48 1.02 -2
v -0.48 1.02 -2.1
v -0.86 1.02 -2.1
v -0.3 0.62 2.18
v 0.3 0.62 2.18
v 0.3 0.46 2.18
v -0.3 0.46 2.18
v 0.3 0.46 2.22
v 0.3 0.62 2.22
v -0.3 0.62 2.22
v -0.3 0.46 2.22
v -0.3 0.46 2.22
v -0.3 0.62 2.22
v -0.3 0.62 2.18
v -0.3 0.46 2.18
v 0.3 0.62 2.18
v 0.3 0.62 2.22
v 0.3 0.46 2.22
v 0.3 0.46 2.18
v 0.3 0.46 2.18
v 0.3 0.46 2.22
v -0.3 0.46 2.22
v -0.3 0.46 2.18
v -0.3 0.62 2.22
v 0.3 0.62 2.22
v 0.3 0.62 2.18
v -0.3 0.62 2.18
v -0.3 0.62 -2.22
v 0.3 0.62 -2.22
v 0.3 0.46 -2.22
v -0.3 0.46 -2.22
v 0.3 0.46 -2.18
v 0.3 0.62 -2.18
v -0.3 0.62 -2.18
v -0.3 0.46 -2.18
v -0.3 0.46 -2.18
v -0.3 0.62 -2.18
v -0.3 0.62 -2.22
v -0.3 0.46 -2.22
v 0.3 0.62 -2.22
v 0.3 0.62 -2.18
v 0.3 0.46 -2.18
v 0.3 0.46 -2.22
v 0.3 0.46 -2.22
v 0.3 0.46 -2.18
v -0.3 0.46 -2.18
v -0.3 0.46 -2.22
v -0.3 0.62 -2.18
v 0.3 0.62 -2.18
v 0.3 0.62 -2.22
v -0.3 0.62 -2.22
v 0.74 1.29 0.66
v 0.95 1.29 0.66
v 0.95 1.17 0.66
v 0.74 1.17 0.66
v 0.95 1.17 0.82
v 0.95 1.29 0.82
v 0.74 1.29 0.82
v 0.74 1.17 0.82
v 0.74 1.17 0.82
v 0.74 1.29 0.82
v 0.74 1.29 0.66
v 0.74 1.17 0.66
v 0.95 1.29 0.66
v 0.95 1.29 0.82
v 0.95 1.17 0.82
v 0.95 1.17 0.66
v 0.95 1.17 0.66
v 0.95 1.17 0.82
v 0.74 1.17 0.82
v 0.74 1.17 0.66
v 0.74 1.29 0.82
v 0.95 1.29 0.82
v 0.95 1.29 0.66
v 0.74 1.29 0.66
v -0.95 1.29 0.66
v -0.74 1.29 0.66
v -0.74 1.17 0.66
v -0.95 1.17 0.66
v -0.74 1.17 0.82
v -0.74 1.29 0.82
v -0.95 1.29 0.82
v -0.95 1.17 0.82
v -0.95 1.17 0.82
v -0.95 1.29 0.82
v -0.95 1.29 0.66
v -0.95 1.17 0.66
v -0.74 1.29 0.66
v -0.74 1.29 0.82
v -0.74 1.17 0.82
v -0.74 1.17 0.66
v -0.74 1.17 0.66
v -0.74 1.17 0.82
v -0.95 1.17 0.82
v -0.95 1.17 0.66
v -0.95 1.29 0.82
v -0.74 1.29 0.82
v -0.74 1.29 0.66
v -0.95 1.29 0.66
v -0.98 0.88 1.32
v -0.98 0.79597 1.57863
v -0.66 0.79597 1.57863
v -0.66 0.88 1.32
v -0.98 0.6952 1.32
v -0.98 0.64646 1.47
v -0.98 0.79597 1.57863
v -0.98 0.88 1.32
v -0.66 0.88 1.32
v -0.66 0.79597 1.57863
v -0.66 0.64646 1.47
v -0.66 0.6952 1.32
v -0.98 0.64646 1.47
v -0.98 0.6952 1.32
v -0.98 0.44 1.32
v -0.66 0.6952 1.32
v -0.66 0.64646 1.47
v -0.66 0.44 1.32
v -0.98 0.79597 1.57863
v -0.98 0.57597 1.73846
v -0.66 0.57597 1.73846
v -0.66 0.79597 1.57863
v -0.98 0.64646 1.47
v -0.98 0.51886 1.56271
v -0.98 0.57597 1.73846
v -0.98 0.79597 1.57863
v -0.66 0.79597 1.57863
v -0.66 0.57597 1.73846
v -0.66 0.51886 1.56271
v -0.66 0.64646 1.47
v -0.98 0.51886 1.56271
v -0.98 0.64646 1.47
v -0.98 0.44 1.32
v -0.66 0.64646 1.47
v -0.66 0.51886 1.56271
v -0.66 0.44 1.32
v -0.98 0.57597 1.73846
v -0.98 0.30403 1.73846
v -0.66 0.30403 1.73846
v -0.66 0.57597 1.73846
v -0.98 0.51886 1.56271
v -0.98 0.36114 1.56271
v -0.98 0.30403 1.73846
v -0.98 0.57597 1.73846
v -0.66 0.57597 1.73846
v -0.66 0.30403 1.73846
v -0.66 0.36114 1.56271
v -0.66 0.51886 1.56271
v -0.98 0.36114 1.56271
v -0.98 0.51886 1.56271
v -0.98 0.44 1.32
v -0.66 0.51886 1.56271
v -0.66 0.36114 1.56271
v -0.66 0.44 1.32
v -0.98 0.30403 1.73846
v -0.98 0.08403 1.57863
v -0.66 0.08403 1.57863
v -0.66 0.30403 1.73846
v -0.98 0.36114 1.56271
v -0.98 0.23354 1.47
v -0.98 0.08403 1.57863
v -0.98 0.30403 1.73846
v -0.66 0.30403 1.73846
v -0.66 0.08403 1.57863
v -0.66 0.23354 1.47
v -0.66 0.36114 1.56271
v -0.98 0.23354 1.47
v -0.98 0.36114 1.56271
v -0.98 0.44 1.32
v -0.66 0.36114 1.56271
v -0.66 0.23354 1.47
v -0.66 0.44 1.32
v -0.98 0.08403 1.57863
v -0.98 0 1.32
v -0.66 0 1.32
v -0.66 0.08403 1.57863
v -0.98 0.23354 1.47
v -0.98 0.1848 1.32
v -0.98 0 1.32
v -0.98 0.08403 1.57863
v -0.66 0.08403 1.57863
v -0.66 0 1.32
v -0.66 0.1848 1.32
v -0.66 0.23354 1.47
v -0.98 0.1848 1.32
v -0.98 0.23354 1.47
v -0.98 0.44 1.32
v -0.66 0.23354 1.47
v -0.66 0.1848 1.32
v -0.66 0.44 1.32
v -0.98 0 1.32
v -0.98 0.08403 1.06137
v -0.66 0.08403 1.06137
v -0.66 0 1.32
v -0.98 0.1848 1.32
v -0.98 0.23354 1.17
v -0.98 0.08403 1.06137
v -0.98 0 1.32
v -0.66 0 1.32
v -0.66 0.08403 1.06137
v -0.66 0.23354 1.17
v -0.66 0.1848 1.32
v -0.98 0.23354 1.17
v -0.98 0.1848 1.32
v -0.98 0.44 1.32
v -0.66 0.1848 1.32
v -0.66 0.23354 1.17
v -0.66 0.44 1.32
v -0.98 0.08403 1.06137
v -0.98 0.30403 0.90154
v -0.66 0.30403 0.90154
v -0.66 0.08403 1.06137
v -0.98 0.23354 1.17
v -0.98 0.36114 1.07729
v -0.98 0.30403 0.90154
v -0.98 0.08403 1.06137
v -0.66 0.08403 1.06137
v -0.66 0.30403 0.90154
v -0.66 0.36114 1.07729
v -0.66 0.23354 1.17
v -0.98 0.36114 1.07729
v -0.98 0.23354 1.17
v -0.98 0.44 1.32
v -0.66 0.23354 1.17
v -0.66 0.36114 1.07729
v -0.66 0.44 1.32
v -0.98 0.30403 0.90154
v -0.98 0.57597 0.90154
v -0.66 0.57597 0.90154
v -0.66 0.30403 0.90154
v -0.98 0.36114 1.07729
v -0.98 0.51886 1.07729
v -0.98 0.57597 0.90154
v -0.98 0.30403 0.90154
v -0.66 0.30403 0.90154
v -0.66 0.57597 0.90154
v -0.66 0.51886 1.07729
v -0.66 0.36114 1.07729
v -0.98 0.51886 1.07729
v -0.98 0.36114 1.07729
v -0.98 0.44 1.32
v -0.66 0.36114 1.07729
v -0.66 0.51886 1.07729
v -0.66 0.44 1.32
v -0.98 0.57597 0.90154
v -0.98 0.79597 1.06137
v -0.66 0.79597 1.06137
v -0.66 0.57597 0.90154
v -0.98 0.51886 1.07729
v -0.98 0.64646 1.17
v -0.98 0.79597 1.06137
v -0.98 0.57597 0.90154
v -0.66 0.57597 0.90154
v -0.66 0.79597 1.06137
v -0.66 0.64646 1.17
v -0.66 0.51886 1.07729
v -0.98 0.64646 1.17
v -0.98 0.51886 1.07729
v -0.98 0.44 1.32
v -0.66 0.51886 1.07729
v -0.66 0.64646 1.17
v -0.66 0.44 1.32
v -0.66 0.79597 1.06137
v -0.66 0.88 1.32
v -0.98 0.88 1.32
v -0.98 0.79597 1.06137
v -0.98 0.64646 1.17
v -0.98 0.6952 1.32
v -0.98 0.88 1.32
v -0.98 0.79597 1.06137
v -0.66 0.79597 1.06137
v -0.66 0.88 1.32
v -0.66 0.6952 1.32
v -0.66 0.64646 1.17
v -0.98 0.6952 1.32
v -0.98 0.64646 1.17
v -0.98 0.44 1.32
v -0.66 0.64646 1.17
v -0.66 0.6952 1.32
v -0.66 0.44 1.32
v -0.98 0.88 -1.32
v -0.98 0.79597 -1.06137
v -0.66 0.79597 -1.06137
v -0.66 0.88 -1.32
v -0.98 0.6952 -1.32
v -0.98 0.64646 -1.17
v -0.98 0.79597 -1.06137
v -0.98 0.88 -1.32
v -0.66 0.88 -1.32
v -0.66 0.79597 -1.06137
v -0.66 0.64646 -1.17
v -0.66 0.6952 -1.32
v -0.98 0.64646 -1.17
v -0.98 0.6952 -1.32
v -0.98 0.44 -1.32
v -0.66 0.6952 -1.32
v -0.66 0.64646 -1.17
v -0.66 0.44 -1.32
v -0.98 0.79597 -1.06137
v -0.98 0.57597 -0.90154
v -0.66 0.57597 -0.90154
v -0.66 0.79597 -1.06137
v -0.98 0.64646 -1.17
v -0.98 0.51886 -1.07729
v -0.98 0.57597 -0.90154
v -0.98 0.79597 -1.06137
v -0.66 0.79597 -1.06137
v -0.66 0.57597 -0.90154
v -0.66 0.51886 -1.07729
v -0.66 0.64646 -1.17
v -0.98 0.51886 -1.07729
v -0.98 0.64646 -1.17
v -0.98 0.44 -1.32
v -0.66 0.64646 -1.17
v -0.66 0.51886 -1.07729
v -0.66 0.44 -1.32
v -0.98 0.57597 -0.90154
v -0.98 0.30403 -0.90154
v -0.66 0.30403 -0.90154
v -0.66 0.57597 -0.90154
v -0.98 0.51886 -1.07729
v -0.98 0.36114 -1.07729
v -0.98 0.30403 -0.90154
v -0.98 0.57597 -0.90154
v -0.66 0.57597 -0.90154
v -0.66 0.30403 -0.90154
v -0.66 0.36114 -1.07729
v -0.66 0.51886 -1.07729
v -0.98 0.36114 -1.07729
v -0.98 0.51886 -1.07729
v -0.98 0.44 -1.32
v -0.66 0.51886 -1.07729
v -0.66 0.36114 -1.07729
v -0.66 0.44 -1.32
v -0.98 0.30403 -0.90154
v -0.98 0.08403 -1.06137
v -0.66 0.08403 -1.06137
v -0.66 0.30403 -0.90154
v -0.98 0.36114 -1.07729
v -0.98 0.23354 -1.17
v -0.98 0.08403 -1.06137
v -0.98 0.30403 -0.90154
v -0.66 0.30403 -0.90154
v -0.66 0.08403 -1.06137
v -0.66 0.23354 -1.17
v -0.66 0.36114 -1.07729
v -0.98 0.23354 -1.17
v -0.98 0.36114 -1.07729
v -0.98 0.44 -1.32
v -0.66 0.36114 -1.07729
v -0.66 0.23354 -1.17
v -0.66 0.44 -1.32
v -0.98 0.08403 -1.06137
v -0.98 0 -1.32
v -0.66 0 -1.32
v -0.66 0.08403 -1.06137
v -0.98 0.23354 -1.17
v -0.98 0.1848 -1.32
v -0.98 0 -1.32
v -0.98 0.08403 -1.06137
v -0.66 0.08403 -1.06137
v -0.66 0 -1.32
v -0.66 0.1848 -1.32
v -0.66 0.23354 -1.17
v -0.98 0.1848 -1.32
v -0.98 0.23354 -1.17
v -0.98 0.44 -1.32
v -0.66 0.23354 -1.17
v -0.66 0.1848 -1.32
v -0.66 0.44 -1.32
v -0.98 0 -1.32
v -0.98 0.08403 -1.57863
v -0.66 0.08403 -1.57863
v -0.66 0 -1.32
v -0.98 0.1848 -1.32
v -0.98 0.23354 -1.47
v -0.98 0.08403 -1.57863
v -0.98 0 -1.32
v -0.66 0 -1.32
v -0.66 0.08403 -1.57863
v -0.66 0.23354 -1.47
v -0.66 0.1848 -1.32
v -0.98 0.23354 -1.47
v -0.98 0.1848 -1.32
v -0.98 0.44 -1.32
v -0.66 0.1848 -1.32
v -0.66 0.23354 -1.47
v -0.66 0.44 -1.32
v -0.98 0.08403 -1.57863
v -0.98 0.30403 -1.73846
v -0.66 0.30403 -1.73846
v -0.66 0.08403 -1.57863
v -0.98 0.23354 -1.47
v -0.98 0.36114 -1.56271
v -0.98 0.30403 -1.73846
v -0.98 0.08403 -1.57863
v -0.66 0.08403 -1.57863
v -0.66 0.30403 -1.73846
v -0.66 0.36114 -1.56271
v -0.66 0.23354 -1.47
v -0.98 0.36114 -1.56271
v -0.98 0.23354 -1.47
v -0.98 0.44 -1.32
v -0.66 0.23354 -1.47
v -0.66 0.36114 -1.56271
v -0.66 0.44 -1.32
v -0.98 0.30403 -1.73846
v -0.98 0.57597 -1.73846
v -0.66 0.57597 -1.73846
v -0.66 0.30403 -1.73846
v -0.98 0.36114 -1.56271
v -0.98 0.51886 -1.56271
v -0.98 0.57597 -1.73846
v -0.98 0.30403 -1.73846
v -0.66 0.30403 -1.73846
v -0.66 0.57597 -1.73846
v -0.66 0.51886 -1.56271
v -0.66 0.36114 -1.56271
v -0.98 0.51886 -1.56271
v -0.98 0.36114 -1.56271
v -0.98 0.44 -1.32
v -0.66 0.36114 -1.56271
v -0.66 0.51886 -1.56271
v -0.66 0.44 -1.32
v -0.98 0.57597 -1.73846
v -0.98 0.79597 -1.57863
v -0.66 0.79597 -1.57863
v -0.66 0.57597 -1.73846
v -0.98 0.51886 -1.56271
v -0.98 0.64646 -1.47
v -0.98 0.79597 -1.57863
v -0.98 0.57597 -1.73846
v -0.66 0.57597 -1.73846
v -0.66 0.79597 -1.57863
v -0.66 0.64646 -1.47
v -0.66 0.51886 -1.56271
v -0.98 0.64646 -1.47
v -0.98 0.51886 -1.56271
v -0.98 0.44 -1.32
v -0.66 0.51886 -1.56271
v -0.66 0.64646 -1.47
v -0.66 0.44 -1.32
v -0.66 0.79597 -1.57863
v -0.66 0.88 -1.32
v -0.98 0.88 -1.32
v -0.98 0.79597 -1.57863
v -0.98 0.64646 -1.47
v -0.98 0.6952 -1.32
v -0.98 0.88 -1.32
v -0.98 0.79597 -1.57863
v -0.66 0.79597 -1.57863
v -0.66 0.88 -1.32
v -0.66 0.6952 -1.32
v -0.66 0.64646 -1.47
v -0.98 0.6952 -1.32
v -0.98 0.64646 -1.47
v -0.98 0.44 -1.32
v -0.66 0.64646 -1.47
v -0.66 0.6952 -1.32
v -0.66 0.44 -1.32
v 0.66 0.88 1.32
v 0.66 0.79597 1.57863
v 0.98 0.79597 1.57863
v 0.98 0.88 1.32
v 0.66 0.6952 1.32
v 0.66 0.64646 1.47
v 0.66 0.79597 1.57863
v 0.66 0.88 1.32
v 0.98 0.88 1.32
v 0.98 0.79597 1.57863
v 0.98 0.64646 1.47
v 0.98 0.6952 1.32
v 0.66 0.64646 1.47
v 0.66 0.6952 1.32
v 0.66 0.44 1.32
v 0.98 0.6952 1.32
v 0.98 0.64646 1.47
v 0.98 0.44 1.32
v 0.66 0.79597 1.57863
v 0.66 0.57597 1.73846
v 0.98 0.57597 1.73846
v 0.98 0.79597 1.57863
v 0.66 0.64646 1.47
v 0.66 0.51886 1.56271
v 0.66 0.57597 1.73846
v 0.66 0.79597 1.57863
v 0.98 0.79597 1.57863
v 0.98 0.57597 1.73846
v 0.98 0.51886 1.56271
v 0.98 0.64646 1.47
v 0.66 0.51886 1.56271
v 0.66 0.64646 1.47
v 0.66 0.44 1.32
v 0.98 0.64646 1.47
v 0.98 0.51886 1.56271
v 0.98 0.44 1.32
v 0.66 0.57597 1.73846
v 0.66 0.30403 1.73846
v 0.98 0.30403 1.73846
v 0.98 0.57597 1.73846
v 0.66 0.51886 1.56271
v 0.66 0.36114 1.56271
v 0.66 0.30403 1.73846
v 0.66 0.57597 1.73846
v 0.98 0.57597 1.73846
v 0.98 0.30403 1.73846
v 0.98 0.36114 1.56271
v 0.98 0.51886 1.56271
v 0.66 0.36114 1.56271
v 0.66 0.51886 1.56271
v 0.66 0.44 1.32
v 0.98 0.51886 1.56271
v 0.98 0.36114 1.56271
v 0.98 0.44 1.32
v 0.66 0.30403 1.73846
v 0.66 0.08403 1.57863
v 0.98 0.08403 1.57863
v 0.98 0.30403 1.73846
v 0.66 0.36114 1.56271
v 0.66 0.23354 1.47
v 0.66 0.08403 1.57863
v 0.66 0.30403 1.73846
v 0.98 0.30403 1.73846
v 0.98 0.08403 1.57863
v 0.98 0.23354 1.47
v 0.98 0.36114 1.56271
v 0.66 0.23354 1.47
v 0.66 0.36114 1.56271
v 0.66 0.44 1.32
v 0.98 0.36114 1.56271
v 0.98 0.23354 1.47
v 0.98 0.44 1.32
v 0.66 0.08403 1.57863
v 0.66 0 1.32
v 0.98 0 1.32
v 0.98 0.08403 1.57863
v 0.66 0.23354 1.47
v 0.66 0.1848 1.32
v 0.66 0 1.32
v 0.66 0.08403 1.57863
v 0.98 0.08403 1.57863
v 0.98 0 1.32
v 0.98 0.1848 1.32
v 0.98 0.23354 1.47
v 0.66 0.1848 1.32
v 0.66 0.23354 1.47
v 0.66 0.44 1.32
v 0.98 0.23354 1.47
v 0.98 0.1848 1.32
v 0.98 0.44 1.32
v 0.66 0 1.32
v 0.66 0.08403 1.06137
v 0.98 0.08403 1.06137
v 0.98 0 1.32
v 0.66 0.1848 1.32
v 0.66 0.23354 1.17
v 0.66 0.08403 1.06137
v 0.66 0 1.32
v 0.98 0 1.32
v 0.98 0.08403 1.06137
v 0.98 0.23354 1.17
v 0.98 0.1848 1.32
v 0.66 0.23354 1.17
v 0.66 0.1848 1.32
v 0.66 0.44 1.32
v 0.98 0.1848 1.32
v 0.98 0.23354 1.17
v 0.98 0.44 1.32
v 0.66 0.08403 1.06137
v 0.66 0.30403 0.90154
v 0.98 0.30403 0.90154
v 0.98 0.08403 1.06137
v 0.66 0.23354 1.17
v 0.66 0.36114 1.07729
v 0.66 0.30403 0.90154
v 0.66 0.08403 1.06137
v 0.98 0.08403 1.06137
v 0.98 0.30403 0.90154
v 0.98 0.36114 1.07729
v 0.98 0.23354 1.17
v 0.66 0.36114 1.07729
v 0.66 0.23354 1.17
v 0.66 0.44 1.32
v 0.98 0.23354 1.17
v 0.98 0.36114 1.07729
v 0.98 0.44 1.32
v 0.66 0.30403 0.90154
v 0.66 0.57597 0.90154
v 0.98 0.57597 0.90154
v 0.98 0.30403 0.90154
v 0.66 0.36114 1.07729
v 0.66 0.51886 1.07729
v 0.66 0.57597 0.90154
v 0.66 0.30403 0.90154
v 0.98 0.30403 0.90154
v 0.98 0.57597 0.90154
v 0.98 0.51886 1.07729
v 0.98 0.36114 1.07729
v 0.66 0.51886 1.07729
v 0.66 0.36114 1.07729
v 0.66 0.44 1.32
v 0.98 0.36114 1.07729
v 0.98 0.51886 1.07729
v 0.98 0.44 1.32
v 0.66 0.57597 0.90154
v 0.66 0.79597 1.06137
v 0.98 0.79597 1.06137
v 0.98 0.57597 0.90154
v 0.66 0.51886 1.07729
v 0.66 0.64646 1.17
v 0.66 0.79597 1.06137
v 0.66 0.57597 0.90154
v 0.98 0.57597 0.90154
v 0.98 0.79597 1.06137
v 0.98 0.64646 1.17
v 0.98 0.51886 1.07729
v 0.66 0.64646 1.17
v 0.66 0.51886 1.07729
v 0.66 0.44 1.32
v 0.98 0.51886 1.07729
v 0.98 0.64646 1.17
v 0.98 0.44 1.32
v 0.98 0.79597 1.06137
v 0.98 0.88 1.32
v 0.66 0.88 1.32
v 0.66 0.79597 1.06137
v 0.66 0.64646 1.17
v 0.66 0.6952 1.32
v 0.66 0.88 1.32
v 0.66 0.79597 1.06137
v 0.98 0.79597 1.06137
v 0.98 0.88 1.32
v 0.98 0.6952 1.32
v 0.98 0.64646 1.17
v 0.66 0.6952 1.32
v 0.66 0.64646 1.17
v 0.66 0.44 1.32
v 0.98 0.64646 1.17
v 0.98 0.6952 1.32
v 0.98 0.44 1.32
v 0.66 0.88 -1.32
v 0.66 0.79597 -1.06137
v 0.98 0.79597 -1.06137
v 0.98 0.88 -1.32
v 0.66 0.6952 -1.32
v 0.66 0.64646 -1.17
v 0.66 0.79597 -1.06137
v 0.66 0.88 -1.32
v 0.98 0.88 -1.32
v 0.98 0.79597 -1.06137
v 0.98 0.64646 -1.17
v 0.98 0.6952 -1.32
v 0.66 0.64646 -1.17
v 0.66 0.6952 -1.32
v 0.66 0.44 -1.32
v 0.98 0.6952 -1.32
v 0.98 0.64646 -1.17
v 0.98 0.44 -1.32
v 0.66 0.79597 -1.06137
v 0.66 0.57597 -0.90154
v 0.98 0.57597 -0.90154
v 0.98 0.79597 -1.06137
v 0.66 0.64646 -1.17
v 0.66 0.51886 -1.07729
v 0.66 0.57597 -0.90154
v 0.66 0.79597 -1.06137
v 0.98 0.79597 -1.06137
v 0.98 0.57597 -0.90154
v 0.98 0.51886 -1.07729
v 0.98 0.64646 -1.17
v 0.66 0.51886 -1.07729
v 0.66 0.64646 -1.17
v 0.66 0.44 -1.32
v 0.98 0.64646 -1.17
v 0.98 0.51886 -1.07729
v 0.98 0.44 -1.32
v 0.66 0.57597 -0.90154
v 0.66 0.30403 -0.90154
v 0.98 0.30403 -0.90154
v 0.98 0.57597 -0.90154
v 0.66 0.51886 -1.07729
v 0.66 0.36114 -1.07729
v 0.66 0.30403 -0.90154
v 0.66 0.57597 -0.90154
v 0.98 0.57597 -0.90154
v 0.98 0.30403 -0.90154
v 0.98 0.36114 -1.07729
v 0.98 0.51886 -1.07729
v 0.66 0.36114 -1.07729
v 0.66 0.51886 -1.07729
v 0.66 0.44 -1.32
v 0.98 0.51886 -1.07729
v 0.98 0.36114 -1.07729
v 0.98 0.44 -1.32
v 0.66 0.30403 -0.90154
v 0.66 0.08403 -1.06137
v 0.98 0.08403 -1.06137
v 0.98 0.30403 -0.90154
v 0.66 0.36114 -1.07729
v 0.66 0.23354 -1.17
v 0.66 0.08403 -1.06137
v 0.66 0.30403 -0.90154
v 0.98 0.30403 -0.90154
v 0.98 0.08403 -1.06137
v 0.98 0.23354 -1.17
v 0.98 0.36114 -1.07729
v 0.66 0.23354 -1.17
v 0.66 0.36114 -1.07729
v 0.66 0.44 -1.32
v 0.98 0.36114 -1.07729
v 0.98 0.23354 -1.17
v 0.98 0.44 -1.32
v 0.66 0.08403 -1.06137
v 0.66 0 -1.32
v 0.98 0 -1.32
v 0.98 0.08403 -1.06137
v 0.66 0.23354 -1.17
v 0.66 0.1848 -1.32
v 0.66 0 -1.32
v 0.66 0.08403 -1.06137
v 0.98 0.08403 -1.06137
v 0.98 0 -1.32
v 0.98 0.1848 -1.32
v 0.98 0.23354 -1.17
v 0.66 0.1848 -1.32
v 0.66 0.23354 -1.17
v 0.66 0.44 -1.32
v 0.98 0.23354 -1.17
v 0.98 0.1848 -1.32
v 0.98 0.44 -1.32
v 0.66 0 -1.32
v 0.66 0.08403 -1.57863
v 0.98 0.08403 -1.57863
v 0.98 0 -1.32
v 0.66 0.1848 -1.32
v 0.66 0.23354 -1.47
v 0.66 0.08403 -1.57863
v 0.66 0 -1.32
v 0.98 0 -1.32
v 0.98 0.08403 -1.57863
v 0.98 0.23354 -1.47
v 0.98 0.1848 -1.32
v 0.66 0.23354 -1.47
v 0.66 0.1848 -1.32
v 0.66 0.44 -1.32
v 0.98 0.1848 -1.32
v 0.98 0.23354 -1.47
v 0.98 0.44 -1.32
v 0.66 0.08403 -1.57863
v 0.66 0.30403 -1.73846
v 0.98 0.30403 -1.73846
v 0.98 0.08403 -1.57863
v 0.66 0.23354 -1.47
v 0.66 0.36114 -1.56271
v 0.66 0.30403 -1.73846
v 0.66 0.08403 -1.57863
v 0.98 0.08403 -1.57863
v 0.98 0.30403 -1.73846
v 0.98 0.36114 -1.56271
v 0.98 0.23354 -1.47
v 0.66 0.36114 -1.56271
v 0.66 0.23354 -1.47
v 0.66 0.44 -1.32
v 0.98 0.23354 -1.47
v 0.98 0.36114 -1.56271
v 0.98 0.44 -1.32
v 0.66 0.30403 -1.73846
v 0.66 0.57597 -1.73846
v 0.98 0.57597 -1.73846
v 0.98 0.30403 -1.73846
v 0.66 0.36114 -1.56271
v 0.66 0.51886 -1.56271
v 0.66 0.57597 -1.73846
v 0.66 0.30403 -1.73846
v 0.98 0.30403 -1.73846
v 0.98 0.57597 -1.73846
v 0.98 0.51886 -1.56271
v 0.98 0.36114 -1.56271
v 0.66 0.51886 -1.56271
v 0.66 0.36114 -1.56271
v 0.66 0.44 -1.32
v 0.98 0.36114 -1.56271
v 0.98 0.51886 -1.56271
v 0.98 0.44 -1.32
v 0.66 0.57597 -1.73846
v 0.66 0.79597 -1.57863
v 0.98 0.79597 -1.57863
v 0.98 0.57597 -1.73846
v 0.66 0.51886 -1.56271
v 0.66 0.64646 -1.47
v 0.66 0.79597 -1.57863
v 0.66 0.57597 -1.73846
v 0.98 0.57597 -1.73846
v 0.98 0.79597 -1.57863
v 0.98 0.64646 -1.47
v 0.98 0.51886 -1.56271
v 0.66 0.64646 -1.47
v 0.66 0.51886 -1.56271
v 0.66 0.44 -1.32
v 0.98 0.51886 -1.56271
v 0.98 0.64646 -1.47
v 0.98 0.44 -1.32
v 0.98 0.79597 -1.57863
v 0.98 0.88 -1.32
v 0.66 0.88 -1.32
v 0.66 0.79597 -1.57863
v 0.66 0.64646 -1.47
v 0.66 0.6952 -1.32
v 0.66 0.88 -1.32
v 0.66 0.79597 -1.57863
v 0.98 0.79597 -1.57863
v 0.98 0.88 -1.32
v 0.98 0.6952 -1.32
v 0.98 0.64646 -1.47
v 0.66 0.6952 -1.32
v 0.66 0.64646 -1.47
v 0.66 0.44 -1.32
v 0.98 0.64646 -1.47
v 0.98 0.6952 -1.32
v 0.98 0.44 -1.32
vn 0 -1 0
vn 0 1 0
vn 0 0.11684 0.99315
vn 0 0.11684 -0.99315
vn -0.99315 -0.11684 0
vn 0.99315 -0.11684 0
vn 0 -1 0
vn 0 1 0
vn 0 0.49614 0.86824
vn 0 0.53217 -0.84664
vn -0.95399 0.29983 0
vn 0.95399 0.29983 0
vn 0.95399 0.29983 0
vn -0.95399 0.29983 0
vn 0 0.49614 0.86824
vn 0 0.53217 -0.84664
vn 0 0 -1
vn 0 0 1
vn -1 0 0
vn 1 0 0
vn 0 -1 0
vn 0 1 0
vn 0 0 -1
vn 0 0 1
vn -1 0 0
vn 1 0 0
vn 0 -1 0
vn 0 1 0
vn 0 0 -1
vn 0 0 1
vn -1 0 0
vn 1 0 0
vn 0 -1 0
vn 0 1 0
vn 0 0 -1
vn 0 0 1
vn -1 0 0
vn 1 0 0
vn 0 -1 0
vn 0 1 0
vn 0 0 -1
vn 0 0 1
vn -1 0 0
vn 1 0 0
vn 0 -1 0
vn 0 1 0
vn 0 0 -1
vn 0 0 1
vn -1 0 0
vn 1 0 0
vn 0 -1 0
vn 0 1 0
vn 0 0 -1
vn 0 0 1
vn -1 0 0
vn 1 0 0
vn 0 -1 0
vn 0 1 0
vn 0 0 -1
vn 0 0 1
vn -1 0 0
vn 1 0 0
vn 0 -1 0
vn 0 1 0
vn 0 0 -1
vn 0 0 1
vn -1 0 0
vn 1 0 0
vn 0 -1 0
vn 0 1 0
vn 0 0 -1
vn 0 0 1
vn -1 0 0
vn 1 0 0
vn 0 -1 0
vn 0 1 0
vn 0 0 -1
vn 0 0 1
vn -1 0 0
vn 1 0 0
vn 0 -1 0
vn 0 1 0
vn 0 0.95106 0.30902
vn -1 0 0
vn 1 0 0
vn -1 0 0
vn 1 0 0
vn 0 0.58779 0.80902
vn -1 0 0
vn 1 0 0
vn -1 0 0
vn 1 0 0
vn 0 0 1
vn -1 0 0
vn 1 0 0
vn -1 0 0
vn 1 0 0
vn 0 -0.58779 0.80902
vn -1 0 0
vn 1 0 0
vn -1 0 0
vn 1 0 0
vn 0 -0.95106 0.30902
vn -1 0 0
vn 1 0 0
vn -1 0 0
vn 1 0 0
vn 0 -0.95106 -0.30902
vn -1 0 0
vn 1 0 0
vn -1 0 0
vn 1 0 0
vn 0 -0.58779 -0.80902
vn -1 0 0
vn 1 0 0
vn -1 0 0
vn 1 0 0
vn 0 0 -1
vn -1 0 0
vn 1 0 0
vn -1 0 0
vn 1 0 0
vn 0 0.58779 -0.80902
vn -1 0 0
vn 1 0 0
vn -1 0 0
vn 1 0 0
vn 0 -0.95106 0.30902
vn -1 0 0
vn 1 0 0
vn -1 0 0
vn 1 0 0
vn 0 0.95106 0.30902
vn -1 0 0
vn 1 0 0
vn -1 0 0
vn 1 0 0
vn 0 0.58779 0.80902
vn -1 0 0
vn 1 0 0
vn -1 0 0
vn 1 0 0
vn 0 0 1
vn -1 0 0
vn 1 0 0
vn -1 0 0
vn 1 0 0
vn 0 -0.58779 0.80902
vn -1 0 0
vn 1 0 0
vn -1 0 0
vn 1 0 0
vn 0 -0.95106 0.30902
vn -1 0 0
vn 1 0 0
vn -1 0 0
vn 1 0 0
vn 0 -0.95106 -0.30902
vn -1 0 0
vn 1 0 0
vn -1 0 0
vn 1 0 0
vn 0 -0.58779 -0.80902
vn -1 0 0
vn 1 0 0
vn -1 0 0
vn 1 0 0
vn 0 0 -1
vn -1 0 0
vn 1 0 0
vn -1 0 0
vn 1 0 0
vn 0 0.58779 -0.80902
vn -1 0 0
vn 1 0 0
vn -1 0 0
vn 1 0 0
vn 0 -0.95106 0.30902
vn -1 0 0
vn 1 0 0
vn -1 0 0
vn 1 0 0
vn 0 0.95106 0.30902
vn -1 0 0
vn 1 0 0
vn -1 0 0
vn 1 0 0
vn 0 0.58779 0.80902
vn -1 0 0
vn 1 0 0
vn -1 0 0
vn 1 0 0
vn 0 0 1
vn -1 0 0
vn 1 0 0
vn -1 0 0
vn 1 0 0
vn 0 -0.58779 0.80902
vn -1 0 0
vn 1 0 0
vn -1 0 0
vn 1 0 0
vn 0 -0.95106 0.30902
vn -1 0 0
vn 1 0 0
vn -1 0 0
vn 1 0 0
vn 0 -0.95106 -0.30902
vn -1 0 0
vn 1 0 0
vn -1 0 0
vn 1 0 0
vn 0 -0.58779 -0.80902
vn -1 0 0
vn 1 0 0
vn -1 0 0
vn 1 0 0
vn 0 0 -1
vn -1 0 0
vn 1 0 0
vn -1 0 0
vn 1 0 0
vn 0 0.58779 -0.80902
vn -1 0 0
vn 1 0 0
vn -1 0 0
vn 1 0 0
vn 0 -0.95106 0.30902
vn -1 0 0
vn 1 0 0
vn -1 0 0
vn 1 0 0
vn 0 0.95106 0.30902
vn -1 0 0
vn 1 0 0
vn -1 0 0
vn 1 0 0
vn 0 0.58779 0.80902
vn -1 0 0
vn 1 0 0
vn -1 0 0
vn 1 0 0
vn 0 0 1
vn -1 0 0
vn 1 0 0
vn -1 0 0
vn 1 0 0
vn 0 -0.58779 0.80902
vn -1 0 0
vn 1 0 0
vn -1 0 0
vn 1 0 0
vn 0 -0.95106 0.30902
vn -1 0 0
vn 1 0 0
vn -1 0 0
vn 1 0 0
vn 0 -0.95106 -0.30902
vn -1 0 0
vn 1 0 0
vn -1 0 0
vn 1 0 0
vn 0 -0.58779 -0.80902
vn -1 0 0
vn 1 0 0
vn -1 0 0
vn 1 0 0
vn 0 0 -1
vn -1 0 0
vn 1 0 0
vn -1 0 0
vn 1 0 0
vn 0 0.58779 -0.80902
vn -1 0 0
vn 1 0 0
vn -1 0 0
vn 1 0 0
vn 0 -0.95106 0.30902
vn -1 0 0
vn 1 0 0
vn -1 0 0
vn 1 0 0
usemtl car_body
f 1//1 2//1 3//1 4//1
f 5//2 6//2 7//2 8//2
f 9//3 10//3 11//3 12//3
f 13//4 14//4 15//4 16//4
f 17//5 18//5 19//5 20//5
f 21//6 22//6 23//6 24//6
f 25//7 26//7 27//7 28//7
f 29//8 30//8 31//8 32//8
f 33//9 34//9 35//9 36//9
f 37//10 38//10 39//10 40//10
f 41//11 42//11 43//11 44//11
f 45//12 46//12 47//12 48//12
usemtl car_glass
f 49//13 50//13 51//13 52//13
f 53//14 54//14 55//14 56//14
f 57//15 58//15 59//15 60//15
f 61//16 62//16 63//16 64//16
usemtl car_trim
f 65//17 66//17 67//17 68//17
f 69//18 70//18 71//18 72//18
f 73//19 74//19 75//19 76//19
f 77//20 78//20 79//20 80//20
f 81//21 82//21 83//21 84//21
f 85//22 86//22 87//22 88//22
f 89//23 90//23 91//23 92//23
f 93//24 94//24 95//24 96//24
f 97//25 98//25 99//25 100//25
f 101//26 102//26 103//26 104//26
f 105//27 106//27 107//27 108//27
f 109//28 110//28 111//28 112//28
f 113//29 114//29 115//29 116//29
f 117//30 118//30 119//30 120//30
f 121//31 122//31 123//31 124//31
f 125//32 126//32 127//32 128//32
f 129//33 130//33 131//33 132//33
f 133//34 134//34 135//34 136//34
f 281//71 282//71 283//71 284//71
f 285//72 286//72 287//72 288//72
f 289//73 290//73 291//73 292//73
f 293//74 294//74 295//74 296//74
f 297//75 298//75 299//75 300//75
f 301//76 302//76 303//76 304//76
f 305//77 306//77 307//77 308//77
f 309//78 310//78 311//78 312//78
f 313//79 314//79 315//79 316//79
f 317//80 318//80 319//80 320//80
f 321//81 322//81 323//81 324//81
f 325//82 326//82 327//82 328//82
usemtl car_headlight
f 137//35 138//35 139//35 140//35
f 141//36 142//36 143//36 144//36
f 145//37 146//37 147//37 148//37
f 149//38 150//38 151//38 152//38
f 153//39 154//39 155//39 156//39
f 157//40 158//40 159//40 160//40
f 161//41 162//41 163//41 164//41
f 165//42 166//42 167//42 168//42
f 169//43 170//43 171//43 172//43
f 173//44 174//44 175//44 176//44
f 177//45 178//45 179//45 180//45
f 181//46 182//46 183//46 184//46
usemtl car_taillight
f 185//47 186//47 187//47 188//47
f 189//48 190//48 191//48 192//48
f 193//49 194//49 195//49 196//49
f 197//50 198//50 199//50 200//50
f 201//51 202//51 203//51 204//51
f 205//52 206//52 207//52 208//52
f 209//53 210//53 211//53 212//53
f 213//54 214//54 215//54 216//54
f 217//55 218//55 219//55 220//55
f 221//56 222//56 223//56 224//56
f 225//57 226//57 227//57 228//57
f 229//58 230//58 231//58 232//58
usemtl car_plate
f 233//59 234//59 235//59 236//59
f 237//60 238//60 239//60 240//60
f 241//61 242//61 243//61 244//61
f 245//62 246//62 247//62 248//62
f 249//63 250//63 251//63 252//63
f 253//64 254//64 255//64 256//64
f 257//65 258//65 259//65 260//65
f 261//66 262//66 263//66 264//66
f 265//67 266//67 267//67 268//67
f 269//68 270//68 271//68 272//68
f 273//69 274//69 275//69 276//69
f 277//70 278//70 279//70 280//70
usemtl car_tire
f 329//83 330//83 331//83 332//83
f 333//84 334//84 335//84 336//84
f 337//85 338//85 339//85 340//85
f 347//88 348//88 349//88 350//88
f 351//89 352//89 353//89 354//89
f 355//90 356//90 357//90 358//90
f 365//93 366//93 367//93 368//93
f 369//94 370//94 371//94 372//94
f 373//95 374//95 375//95 376//95
f 383//98 384//98 385//98 386//98
f 387//99 388//99 389//99 390//99
f 391//100 392//100 393//100 394//100
f 401//103 402//103 403//103 404//103
f 405//104 406//104 407//104 408//104
f 409//105 410//105 411//105 412//105
f 419//108 420//108 421//108 422//108
f 423//109 424//109 425//109 426//109
f 427//110 428//110 429//110 430//110
f 437//113 438//113 439//113 440//113
f 441//114 442//114 443//114 444//114
f 445//115 446//115 447//115 448//115
f 455//118 456//118 457//118 458//118
f 459//119 460//119 461//119 462//119
f 463//120 464//120 465//120 466//120
f 473//123 474//123 475//123 476//123
f 477//124 478//124 479//124 480//124
f 481//125 482//125 483//125 484//125
f 491//128 492//128 493//128 494//128
f 495//129 496//129 497//129 498//129
f 499//130 500//130 501//130 502//130
f 509//133 510//133 511//133 512//133
f 513//134 514//134 515//134 516//134
f 517//135 518//135 519//135 520//135
f 527//138 528//138 529//138 530//138
f 531//139 532//139 533//139 534//139
f 535//140 536//140 537//140 538//140
f 545//143 546//143 547//143 548//143
f 549//144 550//144 551//144 552//144
f 553//145 554//145 555//145 556//145
f 563//148 564//148 565//148 566//148
f 567//149 568//149 569//149 570//149
f 571//150 572//150 573//150 574//150
f 581//153 582//153 583//153 584//153
f 585//154 586//154 587//154 588//154
f 589//155 590//155 591//155 592//155
f 599//158 600//158 601//158 602//158
f 603//159 604//159 605//159 606//159
f 607//160 608//160 609//160 610//160
f 617//163 618//163 619//163 620//163
f 621//164 622//164 623//164 624//164
f 625//165 626//165 627//165 628//165
f 635//168 636//168 637//168 638//168
f 639//169 640//169 641//169 642//169
f 643//170 644//170 645//170 646//170
f 653//173 654//173 655//173 656//173
f 657//174 658//174 659//174 660//174
f 661//175 662//175 663//175 664//175
f 671//178 672//178 673//178 674//178
f 675//179 676//179 677//179 678//179
f 679//180 680//180 681//180 682//180
f 689//183 690//183 691//183 692//183
f 693//184 694//184 695//184 696//184
f 697//185 698//185 699//185 700//185
f 707//188 708//188 709//188 710//188
f 711//189 712//189 713//189 714//189
f 715//190 716//190 717//190 718//190
f 725//193 726//193 727//193 728//193
f 729//194 730//194 731//194 732//194
f 733//195 734//195 735//195 736//195
f 743//198 744//198 745//198 746//198
f 747//199 748//199 749//199 750//199
f 751//200 752//200 753//200 754//200
f 761//203 762//203 763//203 764//203
f 765//204 766//204 767//204 768//204
f 769//205 770//205 771//205 772//205
f 779//208 780//208 781//208 782//208
f 783//209 784//209 785//209 786//209
f 787//210 788//210 789//210 790//210
f 797//213 798//213 799//213 800//213
f 801//214 802//214 803//214 804//214
f 805//215 806//215 807//215 808//215
f 815//218 816//218 817//218 818//218
f 819//219 820//219 821//219 822//219
f 823//220 824//220 825//220 826//220
f 833//223 834//223 835//223 836//223
f 837//224 838//224 839//224 840//224
f 841//225 842//225 843//225 844//225
f 851//228 852//228 853//228 854//228
f 855//229 856//229 857//229 858//229
f 859//230 860//230 861//230 862//230
f 869//233 870//233 871//233 872//233
f 873//234 874//234 875//234 876//234
f 877//235 878//235 879//235 880//235
f 887//238 888//238 889//238 890//238
f 891//239 892//239 893//239 894//239
f 895//240 896//240 897//240 898//240
f 905//243 906//243 907//243 908//243
f 909//244 910//244 911//244 912//244
f 913//245 914//245 915//245 916//245
f 923//248 924//248 925//248 926//248
f 927//249 928//249 929//249 930//249
f 931//250 932//250 933//250 934//250
f 941//253 942//253 943//253 944//253
f 945//254 946//254 947//254 948//254
f 949//255 950//255 951//255 952//255
f 959//258 960//258 961//258 962//258
f 963//259 964//259 965//259 966//259
f 967//260 968//260 969//260 970//260
f 977//263 978//263 979//263 980//263
f 981//264 982//264 983//264 984//264
f 985//265 986//265 987//265 988//265
f 995//268 996//268 997//268 998//268
f 999//269 1000//269 1001//269 1002//269
f 1003//270 1004//270 1005//270 1006//270
f 1013//273 1014//273 1015//273 1016//273
f 1017//274 1018//274 1019//274 1020//274
f 1021//275 1022//275 1023//275 1024//275
f 1031//278 1032//278 1033//278 1034//278
f 1035//279 1036//279 1037//279 1038//279
f 1039//280 1040//280 1041//280 1042//280
usemtl car_rim
f 341//86 342//86 343//86
f 344//87 345//87 346//87
f 359//91 360//91 361//91
f 362//92 363//92 364//92
f 377//96 378//96 379//96
f 380//97 381//97 382//97
f 395//101 396//101 397//101
f 398//102 399//102 400//102
f 413//106 414//106 415//106
f 416//107 417//107 418//107
f 431//111 432//111 433//111
f 434//112 435//112 436//112
f 449//116 450//116 451//116
f 452//117 453//117 454//117
f 467//121 468//121 469//121
f 470//122 471//122 472//122
f 485//126 486//126 487//126
f 488//127 489//127 490//127
f 503//131 504//131 505//131
f 506//132 507//132 508//132
f 521//136 522//136 523//136
f 524//137 525//137 526//137
f 539//141 540//141 541//141
f 542//142 543//142 544//142
f 557//146 558//146 559//146
f 560//147 561//147 562//147
f 575//151 576//151 577//151
f 578//152 579//152 580//152
f 593//156 594//156 595//156
f 596//157 597//157 598//157
f 611//161 612//161 613//161
f 614//162 615//162 616//162
f 629//166 630//166 631//166
f 632//167 633//167 634//167
f 647//171 648//171 649//171
f 650//172 651//172 652//172
f 665//176 666//176 667//176
f 668//177 669//177 670//177
f 683//181 684//181 685//181
f 686//182 687//182 688//182
f 701//186 702//186 703//186
f 704//187 705//187 706//187
f 719//191 720//191 721//191
f 722//192 723//192 724//192
f 737//196 738//196 739//196
f 740//197 741//197 742//197
f 755//201 756//201 757//201
f 758//202 759//202 760//202
f 773//206 774//206 775//206
f 776//207 777//207 778//207
f 791//211 792//211 793//211
f 794//212 795//212 796//212
f 809//216 810//216 811//216
f 812//217 813//217 814//217
f 827//221 828//221 829//221
f 830//222 831//222 832//222
f 845//226 846//226 847//226
f 848//227 849//227 850//227
f 863//231 864//231 865//231
f 866//232 867//232 868//232
f 881//236 882//236 883//236
f 884//237 885//237 886//237
f 899//241 900//241 901//241
f 902//242 903//242 904//242
f 917//246 918//246 919//246
f 920//247 921//247 922//247
f 935//251 936//251 937//251
f 938//252 939//252 940//252
f 953//256 954//256 955//256
f 956//257 957//257 958//257
f 971//261 972//261 973//261
f 974//262 975//262 976//262
f 989//266 990//266 991//266
f 992//267 993//267 994//267
f 1007//271 1008//271 1009//271
f 1010//272 1011//272 1012//272
f 1025//276 1026//276 1027//276
f 1028//277 1029//277 1030//277
f 1043//281 1044//281 1045//281
f 1046//282 1047//282 1048//282
