mtllib construction_cone.mtl
o construction_cone
v -1.15 0 -1.15
v 1.15 0 -1.15
v 1.15 0.16 -1.15
v -1.15 0.16 -1.15
v -1.15 0 1.15
v 1.15 0 1.15
v 1.15 0.16 1.15
v -1.15 0.16 1.15
v 0.75 0.1 0
v 0.75 1.6 0
v 0.7133 0.1 0.2318
v 0.7133 1.6 0.2318
v 0.6068 0.1 0.4408
v 0.6068 1.6 0.4408
v 0.4408 0.1 0.6068
v 0.4408 1.6 0.6068
v 0.2318 0.1 0.7133
v 0.2318 1.6 0.7133
v 0 0.1 0.75
v 0 1.6 0.75
v -0.2318 0.1 0.7133
v -0.2318 1.6 0.7133
v -0.4408 0.1 0.6068
v -0.4408 1.6 0.6068
v -0.6068 0.1 0.4408
v -0.6068 1.6 0.4408
v -0.7133 0.1 0.2318
v -0.7133 1.6 0.2318
v -0.75 0.1 0
v -0.75 1.6 0
v -0.7133 0.1 -0.2318
v -0.7133 1.6 -0.2318
v -0.6068 0.1 -0.4408
v -0.6068 1.6 -0.4408
v -0.4408 0.1 -0.6068
v -0.4408 1.6 -0.6068
v -0.2318 0.1 -0.7133
v -0.2318 1.6 -0.7133
v 0 0.1 -0.75
v 0 1.6 -0.75
v 0.2318 0.1 -0.7133
v 0.2318 1.6 -0.7133
v 0.4408 0.1 -0.6068
v 0.4408 1.6 -0.6068
v 0.6068 0.1 -0.4408
v 0.6068 1.6 -0.4408
v 0.7133 0.1 -0.2318
v 0.7133 1.6 -0.2318
v 0 0.1 0
v 0 1.6 0
v 0.38 1.46 0
v 0.38 1.64 0
v 0.3614 1.46 0.1174
v 0.3614 1.64 0.1174
v 0.3074 1.46 0.2234
v 0.3074 1.64 0.2234
v 0.2234 1.46 0.3074
v 0.2234 1.64 0.3074
v 0.1174 1.46 0.3614
v 0.1174 1.64 0.3614
v 0 1.46 0.38
v 0 1.64 0.38
v -0.1174 1.46 0.3614
v -0.1174 1.64 0.3614
v -0.2234 1.46 0.3074
v -0.2234 1.64 0.3074
v -0.3074 1.46 0.2234
v -0.3074 1.64 0.2234
v -0.3614 1.46 0.1174
v -0.3614 1.64 0.1174
v -0.38 1.46 0
v -0.38 1.64 0
v -0.3614 1.46 -0.1174
v -0.3614 1.64 -0.1174
v -0.3074 1.46 -0.2234
v -0.3074 1.64 -0.2234
v -0.2234 1.46 -0.3074
v -0.2234 1.64 -0.3074
v -0.1174 1.46 -0.3614
v -0.1174 1.64 -0.3614
v 0 1.46 -0.38
v 0 1.64 -0.38
v 0.1174 1.46 -0.3614
v 0.1174 1.64 -0.3614
v 0.2234 1.46 -0.3074
v 0.2234 1.64 -0.3074
v 0.3074 1.46 -0.2234
v 0.3074 1.64 -0.2234
v 0.3614 1.46 -0.1174
v 0.3614 1.64 -0.1174
v 0 1.46 0
v 0 1.64 0
v 0.22 1.6 0
v 0.22 2.5 0
v 0.2092 1.6 0.068
v 0.2092 2.5 0.068
v 0.178 1.6 0.1293
v 0.178 2.5 0.1293
v 0.1293 1.6 0.178
v 0.1293 2.5 0.178
v 0.068 1.6 0.2092
v 0.068 2.5 0.2092
v 0 1.6 0.22
v 0 2.5 0.22
v -0.068 1.6 0.2092
v -0.068 2.5 0.2092
v -0.1293 1.6 0.178
v -0.1293 2.5 0.178
v -0.178 1.6 0.1293
v -0.178 2.5 0.1293
v -0.2092 1.6 0.068
v -0.2092 2.5 0.068
v -0.22 1.6 0
v -0.22 2.5 0
v -0.2092 1.6 -0.068
v -0.2092 2.5 -0.068
v -0.178 1.6 -0.1293
v -0.178 2.5 -0.1293
v -0.1293 1.6 -0.178
v -0.1293 2.5 -0.178
v -0.068 1.6 -0.2092
v -0.068 2.5 -0.2092
v 0 1.6 -0.22
v 0 2.5 -0.22
v 0.068 1.6 -0.2092
v 0.068 2.5 -0.2092
v 0.1293 1.6 -0.178
v 0.1293 2.5 -0.178
v 0.178 1.6 -0.1293
v 0.178 2.5 -0.1293
v 0.2092 1.6 -0.068
v 0.2092 2.5 -0.068
v 0 1.6 0
v 0 2.5 0
vt 0 0
vt 1 0
vt 1 1
vt 0 1
vt 0 0
vt 1 0
vt 1 1
vt 0 1
vt 0 0
vt 1 0
vt 1 1
vt 0 1
vt 0 0
vt 1 0
vt 1 1
vt 0 1
vt 0 0
vt 1 0
vt 1 1
vt 0 1
vt 0 0
vt 1 0
vt 1 1
vt 0 1
vt 0 0
vt 1 0
vt 1 1
vt 0 1
vt 0 0
vt 1 0
vt 1 1
vt 0 1
vt 0 0
vt 1 0
vt 1 1
vt 0 1
vt 0 0
vt 1 0
vt 1 1
vt 0 1
vt 0 0
vt 1 0
vt 1 1
vt 0 1
vt 0 0
vt 1 0
vt 1 1
vt 0 1
vt 0 0
vt 1 0
vt 1 1
vt 0 1
vt 0 0
vt 1 0
vt 1 1
vt 0 1
vt 0 0
vt 1 0
vt 1 1
vt 0 1
vt 0 0
vt 1 0
vt 1 1
vt 0 1
vt 0 0
vt 1 0
vt 1 1
vt 0 1
vt 0 0
vt 1 0
vt 1 1
vt 0 1
vt 0 0
vt 1 0
vt 1 1
vt 0 1
vt 0 0
vt 1 0
vt 1 1
vt 0 1
vt 0 0
vt 1 0
vt 1 1
vt 0 1
vt 0 0
vt 1 0
vt 1 1
vt 0 1
vt 0 0
vt 1 0
vt 1 1
vt 0 1
vt 0 0
vt 1 0
vt 1 1
vt 0 1
vt 0 0
vt 1 0
vt 1 1
vt 0 1
vt 0 0
vt 1 0
vt 1 1
vt 0 1
vt 0 0
vt 1 0
vt 1 1
vt 0 1
vt 0 0
vt 1 0
vt 1 1
vt 0 1
vt 0 0
vt 1 0
vt 1 1
vt 0 1
vt 0 0
vt 1 0
vt 1 1
vt 0 1
vt 0 0
vt 1 0
vt 1 1
vt 0 1
vt 0 0
vt 1 0
vt 1 1
vt 0 1
vt 0 0
vt 1 0
vt 1 1
vt 0 1
vt 0 0
vt 1 0
vt 1 1
vt 0 1
vt 0 0
vt 1 0
vt 1 1
vt 0 1
vt 0 0
vt 1 0
vt 1 1
vt 0 1
vt 0 0
vt 1 0
vt 1 1
vt 0 1
vt 0 0
vt 1 0
vt 1 1
vt 0 1
vt 0 0
vt 1 0
vt 1 1
vt 0 1
vt 0 0
vt 1 0
vt 1 1
vt 0 1
vt 0 0
vt 1 0
vt 1 1
vt 0 1
vt 0 0
vt 1 0
vt 1 1
vt 0 1
vt 0 0
vt 1 0
vt 1 1
vt 0 1
vt 0 0
vt 1 0
vt 1 1
vt 0 1
vt 0 0
vt 1 0
vt 1 1
vt 0 1
vt 0 0
vt 1 0
vt 1 1
vt 0 1
vt 0 0
vt 1 0
vt 1 1
vt 0 1
vt 0 0
vt 1 0
vt 1 1
vt 0 1
vt 0 0
vt 1 0
vt 1 1
vt 0 1
vt 0 0
vt 1 0
vt 1 1
vt 0 1
vt 0 0
vt 1 0
vt 1 1
vt 0 1
vt 0 0
vt 1 0
vt 1 1
vt 0 1
vt 0 0
vt 1 0
vt 1 1
vt 0 1
vt 0 0
vt 1 0
vt 1 1
vt 0 1
vt 0 0
vt 1 0
vt 1 1
vt 0 1
vt 0 0
vt 1 0
vt 1 1
vt 0 1
vt 0 0
vt 1 0
vt 1 1
vt 0 1
vt 0 0
vt 1 0
vt 1 1
vt 0 1
vt 0 0
vt 1 0
vt 1 1
vt 0 1
vt 0 0
vt 1 0
vt 1 1
vt 0 1
vt 0 0
vt 1 0
vt 1 1
vt 0 1
vt 0 0
vt 1 0
vt 1 1
vt 0 1
vt 0 0
vt 1 0
vt 1 1
vt 0 1
vt 0 0
vt 1 0
vt 1 1
vt 0 1
vt 0 0
vt 1 0
vt 1 1
vt 0 1
vt 0 0
vt 1 0
vt 1 1
vt 0 1
vt 0 0
vt 1 0
vt 1 1
vt 0 1
vt 0 0
vt 1 0
vt 1 1
vt 0 1
vt 0 0
vt 1 0
vt 1 1
vt 0 1
vt 0 0
vt 1 0
vt 1 1
vt 0 1
vt 0 0
vt 1 0
vt 1 1
vt 0 1
vt 0 0
vt 1 0
vt 1 1
vt 0 1
vt 0 0
vt 1 0
vt 1 1
vt 0 1
vt 0 0
vt 1 0
vt 1 1
vt 0 1
vt 0 0
vt 1 0
vt 1 1
vt 0 1
vt 0 0
vt 1 0
vt 1 1
vt 0 1
vt 0 0
vt 1 0
vt 1 1
vt 0 1
vt 0 0
vt 1 0
vt 1 1
vt 0 1
vt 0 0
vt 1 0
vt 1 1
vt 0 1
vt 0 0
vt 1 0
vt 1 1
vt 0 1
vt 0 0
vt 1 0
vt 1 1
vt 0 1
vt 0 0
vt 1 0
vt 1 1
vt 0 1
vt 0 0
vt 1 0
vt 1 1
vt 0 1
vt 0 0
vt 1 0
vt 1 1
vt 0 1
vt 0 0
vt 1 0
vt 1 1
vt 0 1
vt 0 0
vt 1 0
vt 1 1
vt 0 1
vt 0 0
vt 1 0
vt 1 1
vt 0 1
vt 0 0
vt 1 0
vt 1 1
vt 0 1
vt 0 0
vt 1 0
vt 1 1
vt 0 1
vt 0 0
vt 1 0
vt 1 1
vt 0 1
vt 0 0
vt 1 0
vt 1 1
vt 0 1
vt 0 0
vt 1 0
vt 1 1
vt 0 1
vt 0 0
vt 1 0
vt 1 1
vt 0 1
vt 0 0
vt 1 0
vt 1 1
vt 0 1
vt 0 0
vt 1 0
vt 1 1
vt 0 1
vt 0 0
vt 1 0
vt 1 1
vt 0 1
vt 0 0
vt 1 0
vt 1 1
vt 0 1
vt 0 0
vt 1 0
vt 1 1
vt 0 1
vt 0 0
vt 1 0
vt 1 1
vt 0 1
vt 0 0
vt 1 0
vt 1 1
vt 0 1
vt 0 0
vt 1 0
vt 1 1
vt 0 1
vt 0 0
vt 1 0
vt 1 1
vt 0 1
vt 0 0
vt 1 0
vt 1 1
vt 0 1
vt 0 0
vt 1 0
vt 1 1
vt 0 1
vt 0 0
vt 1 0
vt 1 1
vt 0 1
vt 0 0
vt 1 0
vt 1 1
vt 0 1
vt 0 0
vt 1 0
vt 1 1
vt 0 1
vt 0 0
vt 1 0
vt 1 1
vt 0 1
vt 0 0
vt 1 0
vt 1 1
vt 0 1
vt 0 0
vt 1 0
vt 1 1
vt 0 1
vt 0 0
vt 1 0
vt 1 1
vt 0 1
vt 0 0
vt 1 0
vt 1 1
vt 0 1
vt 0 0
vt 1 0
vt 1 1
vt 0 1
vt 0 0
vt 1 0
vt 1 1
vt 0 1
vt 0 0
vt 1 0
vt 1 1
vt 0 1
vt 0 0
vt 1 0
vt 1 1
vt 0 1
vt 0 0
vt 1 0
vt 1 1
vt 0 1
vt 0 0
vt 1 0
vt 1 1
vt 0 1
vt 0 0
vt 1 0
vt 1 1
vt 0 1
vt 0 0
vt 1 0
vt 1 1
vt 0 1
vt 0 0
vt 1 0
vt 1 1
vt 0 1
vt 0 0
vt 1 0
vt 1 1
vt 0 1
vt 0 0
vt 1 0
vt 1 1
vt 0 1
vt 0 0
vt 1 0
vt 1 1
vt 0 1
vt 0 0
vt 1 0
vt 1 1
vt 0 1
vt 0 0
vt 1 0
vt 1 1
vt 0 1
vt 0 0
vt 1 0
vt 1 1
vt 0 1
vt 0 0
vt 1 0
vt 1 1
vt 0 1
vt 0 0
vt 1 0
vt 1 1
vt 0 1
vt 0 0
vt 1 0
vt 1 1
vt 0 1
vt 0 0
vt 1 0
vt 1 1
vt 0 1
vt 0 0
vt 1 0
vt 1 1
vt 0 1
vt 0 0
vt 1 0
vt 1 1
vt 0 1
vt 0 0
vt 1 0
vt 1 1
vt 0 1
vt 0 0
vt 1 0
vt 1 1
vt 0 1
vt 0 0
vt 1 0
vt 1 1
vt 0 1
vt 0 0
vt 1 0
vt 1 1
vt 0 1
vt 0 0
vt 1 0
vt 1 1
vt 0 1
vt 0 0
vt 1 0
vt 1 1
vt 0 1
vt 0 0
vt 1 0
vt 1 1
vt 0 1
vt 0 0
vt 1 0
vt 1 1
vt 0 1
vt 0 0
vt 1 0
vt 1 1
vt 0 1
vt 0 0
vt 1 0
vt 1 1
vt 0 1
vt 0 0
vt 1 0
vt 1 1
vt 0 1
vt 0 0
vt 1 0
vt 1 1
vt 0 1
vt 0 0
vt 1 0
vt 1 1
vt 0 1
vt 0 0
vt 1 0
vt 1 1
vt 0 1
vt 0 0
vt 1 0
vt 1 1
vt 0 1
vt 0 0
vt 1 0
vt 1 1
vt 0 1
vt 0 0
vt 1 0
vt 1 1
vt 0 1
vt 0 0
vt 1 0
vt 1 1
vt 0 1
vt 0 0
vt 1 0
vt 1 1
vt 0 1
vt 0 0
vt 1 0
vt 1 1
vt 0 1
vt 0 0
vt 1 0
vt 1 1
vt 0 1
vt 0 0
vt 1 0
vt 1 1
vt 0 1
vt 0 0
vt 1 0
vt 1 1
vt 0 1
vt 0 0
vt 1 0
vt 1 1
vt 0 1
vt 0 0
vt 1 0
vt 1 1
vt 0 1
vt 0 0
vt 1 0
vt 1 1
vt 0 1
vt 0 0
vt 1 0
vt 1 1
vt 0 1
vt 0 0
vt 1 0
vt 1 1
vt 0 1
vt 0 0
vt 1 0
vt 1 1
vt 0 1
vt 0 0
vt 1 0
vt 1 1
vt 0 1
vt 0 0
vt 1 0
vt 1 1
vt 0 1
vt 0 0
vt 1 0
vt 1 1
vt 0 1
vt 0 0
vt 1 0
vt 1 1
vt 0 1
vt 0 0
vt 1 0
vt 1 1
vt 0 1
vt 0 0
vt 1 0
vt 1 1
vt 0 1
vt 0 0
vt 1 0
vt 1 1
vt 0 1
vt 0 0
vt 1 0
vt 1 1
vt 0 1
vt 0 0
vt 1 0
vt 1 1
vt 0 1
vt 0 0
vt 1 0
vt 1 1
vt 0 1
vt 0 0
vt 1 0
vt 1 1
vt 0 1
vt 0 0
vt 1 0
vt 1 1
vt 0 1
vt 0 0
vt 1 0
vt 1 1
vt 0 1
vt 0 0
vt 1 0
vt 1 1
vt 0 1
vt 0 0
vt 1 0
vt 1 1
vt 0 1
vt 0 0
vt 1 0
vt 1 1
vt 0 1
vt 0 0
vt 1 0
vt 1 1
vt 0 1
vt 0 0
vt 1 0
vt 1 1
vt 0 1
vt 0 0
vt 1 0
vt 1 1
vt 0 1
vt 0 0
vt 1 0
vt 1 1
vt 0 1
vt 0 0
vt 1 0
vt 1 1
vt 0 1
vt 0 0
vt 1 0
vt 1 1
vt 0 1
vt 0 0
vt 1 0
vt 1 1
vt 0 1
vt 0 0
vt 1 0
vt 1 1
vt 0 1
usemtl mat_dark
f 1/1 2/2 3/3 4/4
f 6/5 5/6 8/7 7/8
f 5/9 1/10 4/11 8/12
f 2/13 6/14 7/15 3/16
f 4/17 3/18 7/19 8/20
f 5/21 6/22 2/23 1/24
usemtl mat_orange
f 9/25 11/26 12/27 10/28
f 49/29 9/30 11/31 49/32
f 50/33 12/34 10/35 50/36
f 11/37 13/38 14/39 12/40
f 49/41 11/42 13/43 49/44
f 50/45 14/46 12/47 50/48
f 13/49 15/50 16/51 14/52
f 49/53 13/54 15/55 49/56
f 50/57 16/58 14/59 50/60
f 15/61 17/62 18/63 16/64
f 49/65 15/66 17/67 49/68
f 50/69 18/70 16/71 50/72
f 17/73 19/74 20/75 18/76
f 49/77 17/78 19/79 49/80
f 50/81 20/82 18/83 50/84
f 19/85 21/86 22/87 20/88
f 49/89 19/90 21/91 49/92
f 50/93 22/94 20/95 50/96
f 21/97 23/98 24/99 22/100
f 49/101 21/102 23/103 49/104
f 50/105 24/106 22/107 50/108
f 23/109 25/110 26/111 24/112
f 49/113 23/114 25/115 49/116
f 50/117 26/118 24/119 50/120
f 25/121 27/122 28/123 26/124
f 49/125 25/126 27/127 49/128
f 50/129 28/130 26/131 50/132
f 27/133 29/134 30/135 28/136
f 49/137 27/138 29/139 49/140
f 50/141 30/142 28/143 50/144
f 29/145 31/146 32/147 30/148
f 49/149 29/150 31/151 49/152
f 50/153 32/154 30/155 50/156
f 31/157 33/158 34/159 32/160
f 49/161 31/162 33/163 49/164
f 50/165 34/166 32/167 50/168
f 33/169 35/170 36/171 34/172
f 49/173 33/174 35/175 49/176
f 50/177 36/178 34/179 50/180
f 35/181 37/182 38/183 36/184
f 49/185 35/186 37/187 49/188
f 50/189 38/190 36/191 50/192
f 37/193 39/194 40/195 38/196
f 49/197 37/198 39/199 49/200
f 50/201 40/202 38/203 50/204
f 39/205 41/206 42/207 40/208
f 49/209 39/210 41/211 49/212
f 50/213 42/214 40/215 50/216
f 41/217 43/218 44/219 42/220
f 49/221 41/222 43/223 49/224
f 50/225 44/226 42/227 50/228
f 43/229 45/230 46/231 44/232
f 49/233 43/234 45/235 49/236
f 50/237 46/238 44/239 50/240
f 45/241 47/242 48/243 46/244
f 49/245 45/246 47/247 49/248
f 50/249 48/250 46/251 50/252
f 47/253 9/254 10/255 48/256
f 49/257 47/258 9/259 49/260
f 50/261 10/262 48/263 50/264
usemtl mat_white
f 51/265 53/266 54/267 52/268
f 91/269 51/270 53/271 91/272
f 92/273 54/274 52/275 92/276
f 53/277 55/278 56/279 54/280
f 91/281 53/282 55/283 91/284
f 92/285 56/286 54/287 92/288
f 55/289 57/290 58/291 56/292
f 91/293 55/294 57/295 91/296
f 92/297 58/298 56/299 92/300
f 57/301 59/302 60/303 58/304
f 91/305 57/306 59/307 91/308
f 92/309 60/310 58/311 92/312
f 59/313 61/314 62/315 60/316
f 91/317 59/318 61/319 91/320
f 92/321 62/322 60/323 92/324
f 61/325 63/326 64/327 62/328
f 91/329 61/330 63/331 91/332
f 92/333 64/334 62/335 92/336
f 63/337 65/338 66/339 64/340
f 91/341 63/342 65/343 91/344
f 92/345 66/346 64/347 92/348
f 65/349 67/350 68/351 66/352
f 91/353 65/354 67/355 91/356
f 92/357 68/358 66/359 92/360
f 67/361 69/362 70/363 68/364
f 91/365 67/366 69/367 91/368
f 92/369 70/370 68/371 92/372
f 69/373 71/374 72/375 70/376
f 91/377 69/378 71/379 91/380
f 92/381 72/382 70/383 92/384
f 71/385 73/386 74/387 72/388
f 91/389 71/390 73/391 91/392
f 92/393 74/394 72/395 92/396
f 73/397 75/398 76/399 74/400
f 91/401 73/402 75/403 91/404
f 92/405 76/406 74/407 92/408
f 75/409 77/410 78/411 76/412
f 91/413 75/414 77/415 91/416
f 92/417 78/418 76/419 92/420
f 77/421 79/422 80/423 78/424
f 91/425 77/426 79/427 91/428
f 92/429 80/430 78/431 92/432
f 79/433 81/434 82/435 80/436
f 91/437 79/438 81/439 91/440
f 92/441 82/442 80/443 92/444
f 81/445 83/446 84/447 82/448
f 91/449 81/450 83/451 91/452
f 92/453 84/454 82/455 92/456
f 83/457 85/458 86/459 84/460
f 91/461 83/462 85/463 91/464
f 92/465 86/466 84/467 92/468
f 85/469 87/470 88/471 86/472
f 91/473 85/474 87/475 91/476
f 92/477 88/478 86/479 92/480
f 87/481 89/482 90/483 88/484
f 91/485 87/486 89/487 91/488
f 92/489 90/490 88/491 92/492
f 89/493 51/494 52/495 90/496
f 91/497 89/498 51/499 91/500
f 92/501 52/502 90/503 92/504
usemtl mat_orange
f 93/505 95/506 96/507 94/508
f 133/509 93/510 95/511 133/512
f 134/513 96/514 94/515 134/516
f 95/517 97/518 98/519 96/520
f 133/521 95/522 97/523 133/524
f 134/525 98/526 96/527 134/528
f 97/529 99/530 100/531 98/532
f 133/533 97/534 99/535 133/536
f 134/537 100/538 98/539 134/540
f 99/541 101/542 102/543 100/544
f 133/545 99/546 101/547 133/548
f 134/549 102/550 100/551 134/552
f 101/553 103/554 104/555 102/556
f 133/557 101/558 103/559 133/560
f 134/561 104/562 102/563 134/564
f 103/565 105/566 106/567 104/568
f 133/569 103/570 105/571 133/572
f 134/573 106/574 104/575 134/576
f 105/577 107/578 108/579 106/580
f 133/581 105/582 107/583 133/584
f 134/585 108/586 106/587 134/588
f 107/589 109/590 110/591 108/592
f 133/593 107/594 109/595 133/596
f 134/597 110/598 108/599 134/600
f 109/601 111/602 112/603 110/604
f 133/605 109/606 111/607 133/608
f 134/609 112/610 110/611 134/612
f 111/613 113/614 114/615 112/616
f 133/617 111/618 113/619 133/620
f 134/621 114/622 112/623 134/624
f 113/625 115/626 116/627 114/628
f 133/629 113/630 115/631 133/632
f 134/633 116/634 114/635 134/636
f 115/637 117/638 118/639 116/640
f 133/641 115/642 117/643 133/644
f 134/645 118/646 116/647 134/648
f 117/649 119/650 120/651 118/652
f 133/653 117/654 119/655 133/656
f 134/657 120/658 118/659 134/660
f 119/661 121/662 122/663 120/664
f 133/665 119/666 121/667 133/668
f 134/669 122/670 120/671 134/672
f 121/673 123/674 124/675 122/676
f 133/677 121/678 123/679 133/680
f 134/681 124/682 122/683 134/684
f 123/685 125/686 126/687 124/688
f 133/689 123/690 125/691 133/692
f 134/693 126/694 124/695 134/696
f 125/697 127/698 128/699 126/700
f 133/701 125/702 127/703 133/704
f 134/705 128/706 126/707 134/708
f 127/709 129/710 130/711 128/712
f 133/713 127/714 129/715 133/716
f 134/717 130/718 128/719 134/720
f 129/721 131/722 132/723 130/724
f 133/725 129/726 131/727 133/728
f 134/729 132/730 130/731 134/732
f 131/733 93/734 94/735 132/736
f 133/737 131/738 93/739 133/740
f 134/741 94/742 132/743 134/744
