mtllib planter_box.mtl
o planter_box
v -2.9 0 -1.1
v 2.9 0 -1.1
v 2.9 1.5 -1.1
v -2.9 1.5 -1.1
v -2.9 0 1.1
v 2.9 0 1.1
v 2.9 1.5 1.1
v -2.9 1.5 1.1
v -2.6 1.48 -0.8
v 2.6 1.48 -0.8
v 2.6 1.68 -0.8
v -2.6 1.68 -0.8
v -2.6 1.48 0.8
v 2.6 1.48 0.8
v 2.6 1.68 0.8
v -2.6 1.68 0.8
v -1.55 1.65 0
v -1.55 2.75 0
v -1.6818 1.65 0.3182
v -1.6818 2.75 0.3182
v -2 1.65 0.45
v -2 2.75 0.45
v -2.3182 1.65 0.3182
v -2.3182 2.75 0.3182
v -2.45 1.65 0
v -2.45 2.75 0
v -2.3182 1.65 -0.3182
v -2.3182 2.75 -0.3182
v -2 1.65 -0.45
v -2 2.75 -0.45
v -1.6818 1.65 -0.3182
v -1.6818 2.75 -0.3182
v -2 1.65 0
v -2 2.75 0
v -0.55 1.65 0
v -0.55 2.75 0
v -0.6818 1.65 0.3182
v -0.6818 2.75 0.3182
v -1 1.65 0.45
v -1 2.75 0.45
v -1.3182 1.65 0.3182
v -1.3182 2.75 0.3182
v -1.45 1.65 0
v -1.45 2.75 0
v -1.3182 1.65 -0.3182
v -1.3182 2.75 -0.3182
v -1 1.65 -0.45
v -1 2.75 -0.45
v -0.6818 1.65 -0.3182
v -0.6818 2.75 -0.3182
v -1 1.65 0
v -1 2.75 0
v 0.45 1.65 0
v 0.45 2.75 0
v 0.3182 1.65 0.3182
v 0.3182 2.75 0.3182
v 0 1.65 0.45
v 0 2.75 0.45
v -0.3182 1.65 0.3182
v -0.3182 2.75 0.3182
v -0.45 1.65 0
v -0.45 2.75 0
v -0.3182 1.65 -0.3182
v -0.3182 2.75 -0.3182
v 0 1.65 -0.45
v 0 2.75 -0.45
v 0.3182 1.65 -0.3182
v 0.3182 2.75 -0.3182
v 0 1.65 0
v 0 2.75 0
v 1.45 1.65 0
v 1.45 2.75 0
v 1.3182 1.65 0.3182
v 1.3182 2.75 0.3182
v 1 1.65 0.45
v 1 2.75 0.45
v 0.6818 1.65 0.3182
v 0.6818 2.75 0.3182
v 0.55 1.65 0
v 0.55 2.75 0
v 0.6818 1.65 -0.3182
v 0.6818 2.75 -0.3182
v 1 1.65 -0.45
v 1 2.75 -0.45
v 1.3182 1.65 -0.3182
v 1.3182 2.75 -0.3182
v 1 1.65 0
v 1 2.75 0
v 2.45 1.65 0
v 2.45 2.75 0
v 2.3182 1.65 0.3182
v 2.3182 2.75 0.3182
v 2 1.65 0.45
v 2 2.75 0.45
v 1.6818 1.65 0.3182
v 1.6818 2.75 0.3182
v 1.55 1.65 0
v 1.55 2.75 0
v 1.6818 1.65 -0.3182
v 1.6818 2.75 -0.3182
v 2 1.65 -0.45
v 2 2.75 -0.45
v 2.3182 1.65 -0.3182
v 2.3182 2.75 -0.3182
v 2 1.65 0
v 2 2.75 0
vt 0 0
vt 1 0
vt 1 1
vt 0 1
vt 0 0
vt 1 0
vt 1 1
vt 0 1
vt 0 0
vt 1 0
vt 1 1
vt 0 1
vt 0 0
vt 1 0
vt 1 1
vt 0 1
vt 0 0
vt 1 0
vt 1 1
vt 0 1
vt 0 0
vt 1 0
vt 1 1
vt 0 1
vt 0 0
vt 1 0
vt 1 1
vt 0 1
vt 0 0
vt 1 0
vt 1 1
vt 0 1
vt 0 0
vt 1 0
vt 1 1
vt 0 1
vt 0 0
vt 1 0
vt 1 1
vt 0 1
vt 0 0
vt 1 0
vt 1 1
vt 0 1
vt 0 0
vt 1 0
vt 1 1
vt 0 1
vt 0 0
vt 1 0
vt 1 1
vt 0 1
vt 0 0
vt 1 0
vt 1 1
vt 0 1
vt 0 0
vt 1 0
vt 1 1
vt 0 1
vt 0 0
vt 1 0
vt 1 1
vt 0 1
vt 0 0
vt 1 0
vt 1 1
vt 0 1
vt 0 0
vt 1 0
vt 1 1
vt 0 1
vt 0 0
vt 1 0
vt 1 1
vt 0 1
vt 0 0
vt 1 0
vt 1 1
vt 0 1
vt 0 0
vt 1 0
vt 1 1
vt 0 1
vt 0 0
vt 1 0
vt 1 1
vt 0 1
vt 0 0
vt 1 0
vt 1 1
vt 0 1
vt 0 0
vt 1 0
vt 1 1
vt 0 1
vt 0 0
vt 1 0
vt 1 1
vt 0 1
vt 0 0
vt 1 0
vt 1 1
vt 0 1
vt 0 0
vt 1 0
vt 1 1
vt 0 1
vt 0 0
vt 1 0
vt 1 1
vt 0 1
vt 0 0
vt 1 0
vt 1 1
vt 0 1
vt 0 0
vt 1 0
vt 1 1
vt 0 1
vt 0 0
vt 1 0
vt 1 1
vt 0 1
vt 0 0
vt 1 0
vt 1 1
vt 0 1
vt 0 0
vt 1 0
vt 1 1
vt 0 1
vt 0 0
vt 1 0
vt 1 1
vt 0 1
vt 0 0
vt 1 0
vt 1 1
vt 0 1
vt 0 0
vt 1 0
vt 1 1
vt 0 1
vt 0 0
vt 1 0
vt 1 1
vt 0 1
vt 0 0
vt 1 0
vt 1 1
vt 0 1
vt 0 0
vt 1 0
vt 1 1
vt 0 1
vt 0 0
vt 1 0
vt 1 1
vt 0 1
vt 0 0
vt 1 0
vt 1 1
vt 0 1
vt 0 0
vt 1 0
vt 1 1
vt 0 1
vt 0 0
vt 1 0
vt 1 1
vt 0 1
vt 0 0
vt 1 0
vt 1 1
vt 0 1
vt 0 0
vt 1 0
vt 1 1
vt 0 1
vt 0 0
vt 1 0
vt 1 1
vt 0 1
vt 0 0
vt 1 0
vt 1 1
vt 0 1
vt 0 0
vt 1 0
vt 1 1
vt 0 1
vt 0 0
vt 1 0
vt 1 1
vt 0 1
vt 0 0
vt 1 0
vt 1 1
vt 0 1
vt 0 0
vt 1 0
vt 1 1
vt 0 1
vt 0 0
vt 1 0
vt 1 1
vt 0 1
vt 0 0
vt 1 0
vt 1 1
vt 0 1
vt 0 0
vt 1 0
vt 1 1
vt 0 1
vt 0 0
vt 1 0
vt 1 1
vt 0 1
vt 0 0
vt 1 0
vt 1 1
vt 0 1
vt 0 0
vt 1 0
vt 1 1
vt 0 1
vt 0 0
vt 1 0
vt 1 1
vt 0 1
vt 0 0
vt 1 0
vt 1 1
vt 0 1
vt 0 0
vt 1 0
vt 1 1
vt 0 1
vt 0 0
vt 1 0
vt 1 1
vt 0 1
vt 0 0
vt 1 0
vt 1 1
vt 0 1
vt 0 0
vt 1 0
vt 1 1
vt 0 1
vt 0 0
vt 1 0
vt 1 1
vt 0 1
vt 0 0
vt 1 0
vt 1 1
vt 0 1
vt 0 0
vt 1 0
vt 1 1
vt 0 1
vt 0 0
vt 1 0
vt 1 1
vt 0 1
vt 0 0
vt 1 0
vt 1 1
vt 0 1
vt 0 0
vt 1 0
vt 1 1
vt 0 1
vt 0 0
vt 1 0
vt 1 1
vt 0 1
vt 0 0
vt 1 0
vt 1 1
vt 0 1
vt 0 0
vt 1 0
vt 1 1
vt 0 1
vt 0 0
vt 1 0
vt 1 1
vt 0 1
vt 0 0
vt 1 0
vt 1 1
vt 0 1
vt 0 0
vt 1 0
vt 1 1
vt 0 1
vt 0 0
vt 1 0
vt 1 1
vt 0 1
vt 0 0
vt 1 0
vt 1 1
vt 0 1
vt 0 0
vt 1 0
vt 1 1
vt 0 1
vt 0 0
vt 1 0
vt 1 1
vt 0 1
vt 0 0
vt 1 0
vt 1 1
vt 0 1
vt 0 0
vt 1 0
vt 1 1
vt 0 1
vt 0 0
vt 1 0
vt 1 1
vt 0 1
vt 0 0
vt 1 0
vt 1 1
vt 0 1
vt 0 0
vt 1 0
vt 1 1
vt 0 1
vt 0 0
vt 1 0
vt 1 1
vt 0 1
vt 0 0
vt 1 0
vt 1 1
vt 0 1
vt 0 0
vt 1 0
vt 1 1
vt 0 1
vt 0 0
vt 1 0
vt 1 1
vt 0 1
vt 0 0
vt 1 0
vt 1 1
vt 0 1
vt 0 0
vt 1 0
vt 1 1
vt 0 1
vt 0 0
vt 1 0
vt 1 1
vt 0 1
vt 0 0
vt 1 0
vt 1 1
vt 0 1
vt 0 0
vt 1 0
vt 1 1
vt 0 1
vt 0 0
vt 1 0
vt 1 1
vt 0 1
vt 0 0
vt 1 0
vt 1 1
vt 0 1
vt 0 0
vt 1 0
vt 1 1
vt 0 1
vt 0 0
vt 1 0
vt 1 1
vt 0 1
vt 0 0
vt 1 0
vt 1 1
vt 0 1
vt 0 0
vt 1 0
vt 1 1
vt 0 1
vt 0 0
vt 1 0
vt 1 1
vt 0 1
vt 0 0
vt 1 0
vt 1 1
vt 0 1
vt 0 0
vt 1 0
vt 1 1
vt 0 1
vt 0 0
vt 1 0
vt 1 1
vt 0 1
vt 0 0
vt 1 0
vt 1 1
vt 0 1
vt 0 0
vt 1 0
vt 1 1
vt 0 1
vt 0 0
vt 1 0
vt 1 1
vt 0 1
vt 0 0
vt 1 0
vt 1 1
vt 0 1
vt 0 0
vt 1 0
vt 1 1
vt 0 1
vt 0 0
vt 1 0
vt 1 1
vt 0 1
vt 0 0
vt 1 0
vt 1 1
vt 0 1
vt 0 0
vt 1 0
vt 1 1
vt 0 1
vt 0 0
vt 1 0
vt 1 1
vt 0 1
vt 0 0
vt 1 0
vt 1 1
vt 0 1
vt 0 0
vt 1 0
vt 1 1
vt 0 1
vt 0 0
vt 1 0
vt 1 1
vt 0 1
vt 0 0
vt 1 0
vt 1 1
vt 0 1
vt 0 0
vt 1 0
vt 1 1
vt 0 1
vt 0 0
vt 1 0
vt 1 1
vt 0 1
vt 0 0
vt 1 0
vt 1 1
vt 0 1
vt 0 0
vt 1 0
vt 1 1
vt 0 1
vt 0 0
vt 1 0
vt 1 1
vt 0 1
vt 0 0
vt 1 0
vt 1 1
vt 0 1
vt 0 0
vt 1 0
vt 1 1
vt 0 1
vt 0 0
vt 1 0
vt 1 1
vt 0 1
vt 0 0
vt 1 0
vt 1 1
vt 0 1
vt 0 0
vt 1 0
vt 1 1
vt 0 1
vt 0 0
vt 1 0
vt 1 1
vt 0 1
vt 0 0
vt 1 0
vt 1 1
vt 0 1
vt 0 0
vt 1 0
vt 1 1
vt 0 1
vt 0 0
vt 1 0
vt 1 1
vt 0 1
vt 0 0
vt 1 0
vt 1 1
vt 0 1
vt 0 0
vt 1 0
vt 1 1
vt 0 1
usemtl mat_texture
f 1/1 2/2 3/3 4/4
f 6/5 5/6 8/7 7/8
f 5/9 1/10 4/11 8/12
f 2/13 6/14 7/15 3/16
f 4/17 3/18 7/19 8/20
f 5/21 6/22 2/23 1/24
usemtl mat_dark
f 9/25 10/26 11/27 12/28
f 14/29 13/30 16/31 15/32
f 13/33 9/34 12/35 16/36
f 10/37 14/38 15/39 11/40
f 12/41 11/42 15/43 16/44
f 13/45 14/46 10/47 9/48
usemtl mat_green
f 17/49 19/50 20/51 18/52
f 33/53 17/54 19/55 33/56
f 34/57 20/58 18/59 34/60
f 19/61 21/62 22/63 20/64
f 33/65 19/66 21/67 33/68
f 34/69 22/70 20/71 34/72
f 21/73 23/74 24/75 22/76
f 33/77 21/78 23/79 33/80
f 34/81 24/82 22/83 34/84
f 23/85 25/86 26/87 24/88
f 33/89 23/90 25/91 33/92
f 34/93 26/94 24/95 34/96
f 25/97 27/98 28/99 26/100
f 33/101 25/102 27/103 33/104
f 34/105 28/106 26/107 34/108
f 27/109 29/110 30/111 28/112
f 33/113 27/114 29/115 33/116
f 34/117 30/118 28/119 34/120
f 29/121 31/122 32/123 30/124
f 33/125 29/126 31/127 33/128
f 34/129 32/130 30/131 34/132
f 31/133 17/134 18/135 32/136
f 33/137 31/138 17/139 33/140
f 34/141 18/142 32/143 34/144
f 35/145 37/146 38/147 36/148
f 51/149 35/150 37/151 51/152
f 52/153 38/154 36/155 52/156
f 37/157 39/158 40/159 38/160
f 51/161 37/162 39/163 51/164
f 52/165 40/166 38/167 52/168
f 39/169 41/170 42/171 40/172
f 51/173 39/174 41/175 51/176
f 52/177 42/178 40/179 52/180
f 41/181 43/182 44/183 42/184
f 51/185 41/186 43/187 51/188
f 52/189 44/190 42/191 52/192
f 43/193 45/194 46/195 44/196
f 51/197 43/198 45/199 51/200
f 52/201 46/202 44/203 52/204
f 45/205 47/206 48/207 46/208
f 51/209 45/210 47/211 51/212
f 52/213 48/214 46/215 52/216
f 47/217 49/218 50/219 48/220
f 51/221 47/222 49/223 51/224
f 52/225 50/226 48/227 52/228
f 49/229 35/230 36/231 50/232
f 51/233 49/234 35/235 51/236
f 52/237 36/238 50/239 52/240
f 53/241 55/242 56/243 54/244
f 69/245 53/246 55/247 69/248
f 70/249 56/250 54/251 70/252
f 55/253 57/254 58/255 56/256
f 69/257 55/258 57/259 69/260
f 70/261 58/262 56/263 70/264
f 57/265 59/266 60/267 58/268
f 69/269 57/270 59/271 69/272
f 70/273 60/274 58/275 70/276
f 59/277 61/278 62/279 60/280
f 69/281 59/282 61/283 69/284
f 70/285 62/286 60/287 70/288
f 61/289 63/290 64/291 62/292
f 69/293 61/294 63/295 69/296
f 70/297 64/298 62/299 70/300
f 63/301 65/302 66/303 64/304
f 69/305 63/306 65/307 69/308
f 70/309 66/310 64/311 70/312
f 65/313 67/314 68/315 66/316
f 69/317 65/318 67/319 69/320
f 70/321 68/322 66/323 70/324
f 67/325 53/326 54/327 68/328
f 69/329 67/330 53/331 69/332
f 70/333 54/334 68/335 70/336
f 71/337 73/338 74/339 72/340
f 87/341 71/342 73/343 87/344
f 88/345 74/346 72/347 88/348
f 73/349 75/350 76/351 74/352
f 87/353 73/354 75/355 87/356
f 88/357 76/358 74/359 88/360
f 75/361 77/362 78/363 76/364
f 87/365 75/366 77/367 87/368
f 88/369 78/370 76/371 88/372
f 77/373 79/374 80/375 78/376
f 87/377 77/378 79/379 87/380
f 88/381 80/382 78/383 88/384
f 79/385 81/386 82/387 80/388
f 87/389 79/390 81/391 87/392
f 88/393 82/394 80/395 88/396
f 81/397 83/398 84/399 82/400
f 87/401 81/402 83/403 87/404
f 88/405 84/406 82/407 88/408
f 83/409 85/410 86/411 84/412
f 87/413 83/414 85/415 87/416
f 88/417 86/418 84/419 88/420
f 85/421 71/422 72/423 86/424
f 87/425 85/426 71/427 87/428
f 88/429 72/430 86/431 88/432
f 89/433 91/434 92/435 90/436
f 105/437 89/438 91/439 105/440
f 106/441 92/442 90/443 106/444
f 91/445 93/446 94/447 92/448
f 105/449 91/450 93/451 105/452
f 106/453 94/454 92/455 106/456
f 93/457 95/458 96/459 94/460
f 105/461 93/462 95/463 105/464
f 106/465 96/466 94/467 106/468
f 95/469 97/470 98/471 96/472
f 105/473 95/474 97/475 105/476
f 106/477 98/478 96/479 106/480
f 97/481 99/482 100/483 98/484
f 105/485 97/486 99/487 105/488
f 106/489 100/490 98/491 106/492
f 99/493 101/494 102/495 100/496
f 105/497 99/498 101/499 105/500
f 106/501 102/502 100/503 106/504
f 101/505 103/506 104/507 102/508
f 105/509 101/510 103/511 105/512
f 106/513 104/514 102/515 106/516
f 103/517 89/518 90/519 104/520
f 105/521 103/522 89/523 105/524
f 106/525 90/526 104/527 106/528
