mtllib fire_hydrant.mtl
o fire_hydrant
v 0.48 0 0
v 0.48 0.8 0
v 0.4511 0 0.1642
v 0.4511 0.8 0.1642
v 0.3677 0 0.3085
v 0.3677 0.8 0.3085
v 0.24 0 0.4157
v 0.24 0.8 0.4157
v 0.0834 0 0.4727
v 0.0834 0.8 0.4727
v -0.0834 0 0.4727
v -0.0834 0.8 0.4727
v -0.24 0 0.4157
v -0.24 0.8 0.4157
v -0.3677 0 0.3085
v -0.3677 0.8 0.3085
v -0.4511 0 0.1642
v -0.4511 0.8 0.1642
v -0.48 0 0
v -0.48 0.8 0
v -0.4511 0 -0.1642
v -0.4511 0.8 -0.1642
v -0.3677 0 -0.3085
v -0.3677 0.8 -0.3085
v -0.24 0 -0.4157
v -0.24 0.8 -0.4157
v -0.0834 0 -0.4727
v -0.0834 0.8 -0.4727
v 0.0834 0 -0.4727
v 0.0834 0.8 -0.4727
v 0.24 0 -0.4157
v 0.24 0.8 -0.4157
v 0.3677 0 -0.3085
v 0.3677 0.8 -0.3085
v 0.4511 0 -0.1642
v 0.4511 0.8 -0.1642
v 0 0 0
v 0 0.8 0
v 0.34 0.55 0
v 0.34 2.35 0
v 0.3195 0.55 0.1163
v 0.3195 2.35 0.1163
v 0.2605 0.55 0.2185
v 0.2605 2.35 0.2185
v 0.17 0.55 0.2944
v 0.17 2.35 0.2944
v 0.059 0.55 0.3348
v 0.059 2.35 0.3348
v -0.059 0.55 0.3348
v -0.059 2.35 0.3348
v -0.17 0.55 0.2944
v -0.17 2.35 0.2944
v -0.2605 0.55 0.2185
v -0.2605 2.35 0.2185
v -0.3195 0.55 0.1163
v -0.3195 2.35 0.1163
v -0.34 0.55 0
v -0.34 2.35 0
v -0.3195 0.55 -0.1163
v -0.3195 2.35 -0.1163
v -0.2605 0.55 -0.2185
v -0.2605 2.35 -0.2185
v -0.17 0.55 -0.2944
v -0.17 2.35 -0.2944
v -0.059 0.55 -0.3348
v -0.059 2.35 -0.3348
v 0.059 0.55 -0.3348
v 0.059 2.35 -0.3348
v 0.17 0.55 -0.2944
v 0.17 2.35 -0.2944
v 0.2605 0.55 -0.2185
v 0.2605 2.35 -0.2185
v 0.3195 0.55 -0.1163
v 0.3195 2.35 -0.1163
v 0 0.55 0
v 0 2.35 0
v 0.46 2.26 0
v 0.46 2.64 0
v 0.4323 2.26 0.1573
v 0.4323 2.64 0.1573
v 0.3524 2.26 0.2957
v 0.3524 2.64 0.2957
v 0.23 2.26 0.3984
v 0.23 2.64 0.3984
v 0.0799 2.26 0.453
v 0.0799 2.64 0.453
v -0.0799 2.26 0.453
v -0.0799 2.64 0.453
v -0.23 2.26 0.3984
v -0.23 2.64 0.3984
v -0.3524 2.26 0.2957
v -0.3524 2.64 0.2957
v -0.4323 2.26 0.1573
v -0.4323 2.64 0.1573
v -0.46 2.26 0
v -0.46 2.64 0
v -0.4323 2.26 -0.1573
v -0.4323 2.64 -0.1573
v -0.3524 2.26 -0.2957
v -0.3524 2.64 -0.2957
v -0.23 2.26 -0.3984
v -0.23 2.64 -0.3984
v -0.0799 2.26 -0.453
v -0.0799 2.64 -0.453
v 0.0799 2.26 -0.453
v 0.0799 2.64 -0.453
v 0.23 2.26 -0.3984
v 0.23 2.64 -0.3984
v 0.3524 2.26 -0.2957
v 0.3524 2.64 -0.2957
v 0.4323 2.26 -0.1573
v 0.4323 2.64 -0.1573
v 0 2.26 0
v 0 2.64 0
v -0.4 1.55 -0.35
v -0.4 1.55 0.35
v -0.4218 1.6455 -0.35
v -0.4218 1.6455 0.35
v -0.4828 1.722 -0.35
v -0.4828 1.722 0.35
v -0.571 1.7645 -0.35
v -0.571 1.7645 0.35
v -0.669 1.7645 -0.35
v -0.669 1.7645 0.35
v -0.7572 1.722 -0.35
v -0.7572 1.722 0.35
v -0.8182 1.6455 -0.35
v -0.8182 1.6455 0.35
v -0.84 1.55 -0.35
v -0.84 1.55 0.35
v -0.8182 1.4545 -0.35
v -0.8182 1.4545 0.35
v -0.7572 1.378 -0.35
v -0.7572 1.378 0.35
v -0.669 1.3355 -0.35
v -0.669 1.3355 0.35
v -0.571 1.3355 -0.35
v -0.571 1.3355 0.35
v -0.4828 1.378 -0.35
v -0.4828 1.378 0.35
v -0.4218 1.4545 -0.35
v -0.4218 1.4545 0.35
v -0.62 1.55 -0.35
v -0.62 1.55 0.35
v 0.84 1.55 -0.35
v 0.84 1.55 0.35
v 0.8182 1.6455 -0.35
v 0.8182 1.6455 0.35
v 0.7572 1.722 -0.35
v 0.7572 1.722 0.35
v 0.669 1.7645 -0.35
v 0.669 1.7645 0.35
v 0.571 1.7645 -0.35
v 0.571 1.7645 0.35
v 0.4828 1.722 -0.35
v 0.4828 1.722 0.35
v 0.4218 1.6455 -0.35
v 0.4218 1.6455 0.35
v 0.4 1.55 -0.35
v 0.4 1.55 0.35
v 0.4218 1.4545 -0.35
v 0.4218 1.4545 0.35
v 0.4828 1.378 -0.35
v 0.4828 1.378 0.35
v 0.571 1.3355 -0.35
v 0.571 1.3355 0.35
v 0.669 1.3355 -0.35
v 0.669 1.3355 0.35
v 0.7572 1.378 -0.35
v 0.7572 1.378 0.35
v 0.8182 1.4545 -0.35
v 0.8182 1.4545 0.35
v 0.62 1.55 -0.35
v 0.62 1.55 0.35
vt 0 0
vt 1 0
vt 1 1
vt 0 1
vt 0 0
vt 1 0
vt 1 1
vt 0 1
vt 0 0
vt 1 0
vt 1 1
vt 0 1
vt 0 0
vt 1 0
vt 1 1
vt 0 1
vt 0 0
vt 1 0
vt 1 1
vt 0 1
vt 0 0
vt 1 0
vt 1 1
vt 0 1
vt 0 0
vt 1 0
vt 1 1
vt 0 1
vt 0 0
vt 1 0
vt 1 1
vt 0 1
vt 0 0
vt 1 0
vt 1 1
vt 0 1
vt 0 0
vt 1 0
vt 1 1
vt 0 1
vt 0 0
vt 1 0
vt 1 1
vt 0 1
vt 0 0
vt 1 0
vt 1 1
vt 0 1
vt 0 0
vt 1 0
vt 1 1
vt 0 1
vt 0 0
vt 1 0
vt 1 1
vt 0 1
vt 0 0
vt 1 0
vt 1 1
vt 0 1
vt 0 0
vt 1 0
vt 1 1
vt 0 1
vt 0 0
vt 1 0
vt 1 1
vt 0 1
vt 0 0
vt 1 0
vt 1 1
vt 0 1
vt 0 0
vt 1 0
vt 1 1
vt 0 1
vt 0 0
vt 1 0
vt 1 1
vt 0 1
vt 0 0
vt 1 0
vt 1 1
vt 0 1
vt 0 0
vt 1 0
vt 1 1
vt 0 1
vt 0 0
vt 1 0
vt 1 1
vt 0 1
vt 0 0
vt 1 0
vt 1 1
vt 0 1
vt 0 0
vt 1 0
vt 1 1
vt 0 1
vt 0 0
vt 1 0
vt 1 1
vt 0 1
vt 0 0
vt 1 0
vt 1 1
vt 0 1
vt 0 0
vt 1 0
vt 1 1
vt 0 1
vt 0 0
vt 1 0
vt 1 1
vt 0 1
vt 0 0
vt 1 0
vt 1 1
vt 0 1
vt 0 0
vt 1 0
vt 1 1
vt 0 1
vt 0 0
vt 1 0
vt 1 1
vt 0 1
vt 0 0
vt 1 0
vt 1 1
vt 0 1
vt 0 0
vt 1 0
vt 1 1
vt 0 1
vt 0 0
vt 1 0
vt 1 1
vt 0 1
vt 0 0
vt 1 0
vt 1 1
vt 0 1
vt 0 0
vt 1 0
vt 1 1
vt 0 1
vt 0 0
vt 1 0
vt 1 1
vt 0 1
vt 0 0
vt 1 0
vt 1 1
vt 0 1
vt 0 0
vt 1 0
vt 1 1
vt 0 1
vt 0 0
vt 1 0
vt 1 1
vt 0 1
vt 0 0
vt 1 0
vt 1 1
vt 0 1
vt 0 0
vt 1 0
vt 1 1
vt 0 1
vt 0 0
vt 1 0
vt 1 1
vt 0 1
vt 0 0
vt 1 0
vt 1 1
vt 0 1
vt 0 0
vt 1 0
vt 1 1
vt 0 1
vt 0 0
vt 1 0
vt 1 1
vt 0 1
vt 0 0
vt 1 0
vt 1 1
vt 0 1
vt 0 0
vt 1 0
vt 1 1
vt 0 1
vt 0 0
vt 1 0
vt 1 1
vt 0 1
vt 0 0
vt 1 0
vt 1 1
vt 0 1
vt 0 0
vt 1 0
vt 1 1
vt 0 1
vt 0 0
vt 1 0
vt 1 1
vt 0 1
vt 0 0
vt 1 0
vt 1 1
vt 0 1
vt 0 0
vt 1 0
vt 1 1
vt 0 1
vt 0 0
vt 1 0
vt 1 1
vt 0 1
vt 0 0
vt 1 0
vt 1 1
vt 0 1
vt 0 0
vt 1 0
vt 1 1
vt 0 1
vt 0 0
vt 1 0
vt 1 1
vt 0 1
vt 0 0
vt 1 0
vt 1 1
vt 0 1
vt 0 0
vt 1 0
vt 1 1
vt 0 1
vt 0 0
vt 1 0
vt 1 1
vt 0 1
vt 0 0
vt 1 0
vt 1 1
vt 0 1
vt 0 0
vt 1 0
vt 1 1
vt 0 1
vt 0 0
vt 1 0
vt 1 1
vt 0 1
vt 0 0
vt 1 0
vt 1 1
vt 0 1
vt 0 0
vt 1 0
vt 1 1
vt 0 1
vt 0 0
vt 1 0
vt 1 1
vt 0 1
vt 0 0
vt 1 0
vt 1 1
vt 0 1
vt 0 0
vt 1 0
vt 1 1
vt 0 1
vt 0 0
vt 1 0
vt 1 1
vt 0 1
vt 0 0
vt 1 0
vt 1 1
vt 0 1
vt 0 0
vt 1 0
vt 1 1
vt 0 1
vt 0 0
vt 1 0
vt 1 1
vt 0 1
vt 0 0
vt 1 0
vt 1 1
vt 0 1
vt 0 0
vt 1 0
vt 1 1
vt 0 1
vt 0 0
vt 1 0
vt 1 1
vt 0 1
vt 0 0
vt 1 0
vt 1 1
vt 0 1
vt 0 0
vt 1 0
vt 1 1
vt 0 1
vt 0 0
vt 1 0
vt 1 1
vt 0 1
vt 0 0
vt 1 0
vt 1 1
vt 0 1
vt 0 0
vt 1 0
vt 1 1
vt 0 1
vt 0 0
vt 1 0
vt 1 1
vt 0 1
vt 0 0
vt 1 0
vt 1 1
vt 0 1
vt 0 0
vt 1 0
vt 1 1
vt 0 1
vt 0 0
vt 1 0
vt 1 1
vt 0 1
vt 0 0
vt 1 0
vt 1 1
vt 0 1
vt 0 0
vt 1 0
vt 1 1
vt 0 1
vt 0 0
vt 1 0
vt 1 1
vt 0 1
vt 0 0
vt 1 0
vt 1 1
vt 0 1
vt 0 0
vt 1 0
vt 1 1
vt 0 1
vt 0 0
vt 1 0
vt 1 1
vt 0 1
vt 0 0
vt 1 0
vt 1 1
vt 0 1
vt 0 0
vt 1 0
vt 1 1
vt 0 1
vt 0 0
vt 1 0
vt 1 1
vt 0 1
vt 0 0
vt 1 0
vt 1 1
vt 0 1
vt 0 0
vt 1 0
vt 1 1
vt 0 1
vt 0 0
vt 1 0
vt 1 1
vt 0 1
vt 0 0
vt 1 0
vt 1 1
vt 0 1
vt 0 0
vt 1 0
vt 1 1
vt 0 1
vt 0 0
vt 1 0
vt 1 1
vt 0 1
vt 0 0
vt 1 0
vt 1 1
vt 0 1
vt 0 0
vt 1 0
vt 1 1
vt 0 1
vt 0 0
vt 1 0
vt 1 1
vt 0 1
vt 0 0
vt 1 0
vt 1 1
vt 0 1
vt 0 0
vt 1 0
vt 1 1
vt 0 1
vt 0 0
vt 1 0
vt 1 1
vt 0 1
vt 0 0
vt 1 0
vt 1 1
vt 0 1
vt 0 0
vt 1 0
vt 1 1
vt 0 1
vt 0 0
vt 1 0
vt 1 1
vt 0 1
vt 0 0
vt 1 0
vt 1 1
vt 0 1
vt 0 0
vt 1 0
vt 1 1
vt 0 1
vt 0 0
vt 1 0
vt 1 1
vt 0 1
vt 0 0
vt 1 0
vt 1 1
vt 0 1
vt 0 0
vt 1 0
vt 1 1
vt 0 1
vt 0 0
vt 1 0
vt 1 1
vt 0 1
vt 0 0
vt 1 0
vt 1 1
vt 0 1
vt 0 0
vt 1 0
vt 1 1
vt 0 1
vt 0 0
vt 1 0
vt 1 1
vt 0 1
vt 0 0
vt 1 0
vt 1 1
vt 0 1
vt 0 0
vt 1 0
vt 1 1
vt 0 1
vt 0 0
vt 1 0
vt 1 1
vt 0 1
vt 0 0
vt 1 0
vt 1 1
vt 0 1
vt 0 0
vt 1 0
vt 1 1
vt 0 1
vt 0 0
vt 1 0
vt 1 1
vt 0 1
vt 0 0
vt 1 0
vt 1 1
vt 0 1
vt 0 0
vt 1 0
vt 1 1
vt 0 1
vt 0 0
vt 1 0
vt 1 1
vt 0 1
vt 0 0
vt 1 0
vt 1 1
vt 0 1
vt 0 0
vt 1 0
vt 1 1
vt 0 1
vt 0 0
vt 1 0
vt 1 1
vt 0 1
vt 0 0
vt 1 0
vt 1 1
vt 0 1
vt 0 0
vt 1 0
vt 1 1
vt 0 1
vt 0 0
vt 1 0
vt 1 1
vt 0 1
vt 0 0
vt 1 0
vt 1 1
vt 0 1
vt 0 0
vt 1 0
vt 1 1
vt 0 1
vt 0 0
vt 1 0
vt 1 1
vt 0 1
vt 0 0
vt 1 0
vt 1 1
vt 0 1
vt 0 0
vt 1 0
vt 1 1
vt 0 1
vt 0 0
vt 1 0
vt 1 1
vt 0 1
vt 0 0
vt 1 0
vt 1 1
vt 0 1
vt 0 0
vt 1 0
vt 1 1
vt 0 1
vt 0 0
vt 1 0
vt 1 1
vt 0 1
vt 0 0
vt 1 0
vt 1 1
vt 0 1
vt 0 0
vt 1 0
vt 1 1
vt 0 1
vt 0 0
vt 1 0
vt 1 1
vt 0 1
vt 0 0
vt 1 0
vt 1 1
vt 0 1
vt 0 0
vt 1 0
vt 1 1
vt 0 1
vt 0 0
vt 1 0
vt 1 1
vt 0 1
vt 0 0
vt 1 0
vt 1 1
vt 0 1
vt 0 0
vt 1 0
vt 1 1
vt 0 1
vt 0 0
vt 1 0
vt 1 1
vt 0 1
vt 0 0
vt 1 0
vt 1 1
vt 0 1
vt 0 0
vt 1 0
vt 1 1
vt 0 1
vt 0 0
vt 1 0
vt 1 1
vt 0 1
vt 0 0
vt 1 0
vt 1 1
vt 0 1
vt 0 0
vt 1 0
vt 1 1
vt 0 1
vt 0 0
vt 1 0
vt 1 1
vt 0 1
vt 0 0
vt 1 0
vt 1 1
vt 0 1
vt 0 0
vt 1 0
vt 1 1
vt 0 1
vt 0 0
vt 1 0
vt 1 1
vt 0 1
vt 0 0
vt 1 0
vt 1 1
vt 0 1
vt 0 0
vt 1 0
vt 1 1
vt 0 1
vt 0 0
vt 1 0
vt 1 1
vt 0 1
vt 0 0
vt 1 0
vt 1 1
vt 0 1
vt 0 0
vt 1 0
vt 1 1
vt 0 1
vt 0 0
vt 1 0
vt 1 1
vt 0 1
vt 0 0
vt 1 0
vt 1 1
vt 0 1
vt 0 0
vt 1 0
vt 1 1
vt 0 1
vt 0 0
vt 1 0
vt 1 1
vt 0 1
vt 0 0
vt 1 0
vt 1 1
vt 0 1
vt 0 0
vt 1 0
vt 1 1
vt 0 1
vt 0 0
vt 1 0
vt 1 1
vt 0 1
vt 0 0
vt 1 0
vt 1 1
vt 0 1
vt 0 0
vt 1 0
vt 1 1
vt 0 1
vt 0 0
vt 1 0
vt 1 1
vt 0 1
vt 0 0
vt 1 0
vt 1 1
vt 0 1
vt 0 0
vt 1 0
vt 1 1
vt 0 1
vt 0 0
vt 1 0
vt 1 1
vt 0 1
vt 0 0
vt 1 0
vt 1 1
vt 0 1
vt 0 0
vt 1 0
vt 1 1
vt 0 1
vt 0 0
vt 1 0
vt 1 1
vt 0 1
vt 0 0
vt 1 0
vt 1 1
vt 0 1
vt 0 0
vt 1 0
vt 1 1
vt 0 1
vt 0 0
vt 1 0
vt 1 1
vt 0 1
vt 0 0
vt 1 0
vt 1 1
vt 0 1
vt 0 0
vt 1 0
vt 1 1
vt 0 1
vt 0 0
vt 1 0
vt 1 1
vt 0 1
vt 0 0
vt 1 0
vt 1 1
vt 0 1
vt 0 0
vt 1 0
vt 1 1
vt 0 1
vt 0 0
vt 1 0
vt 1 1
vt 0 1
vt 0 0
vt 1 0
vt 1 1
vt 0 1
vt 0 0
vt 1 0
vt 1 1
vt 0 1
vt 0 0
vt 1 0
vt 1 1
vt 0 1
vt 0 0
vt 1 0
vt 1 1
vt 0 1
vt 0 0
vt 1 0
vt 1 1
vt 0 1
vt 0 0
vt 1 0
vt 1 1
vt 0 1
vt 0 0
vt 1 0
vt 1 1
vt 0 1
vt 0 0
vt 1 0
vt 1 1
vt 0 1
vt 0 0
vt 1 0
vt 1 1
vt 0 1
vt 0 0
vt 1 0
vt 1 1
vt 0 1
vt 0 0
vt 1 0
vt 1 1
vt 0 1
vt 0 0
vt 1 0
vt 1 1
vt 0 1
vt 0 0
vt 1 0
vt 1 1
vt 0 1
vt 0 0
vt 1 0
vt 1 1
vt 0 1
vt 0 0
vt 1 0
vt 1 1
vt 0 1
vt 0 0
vt 1 0
vt 1 1
vt 0 1
vt 0 0
vt 1 0
vt 1 1
vt 0 1
vt 0 0
vt 1 0
vt 1 1
vt 0 1
vt 0 0
vt 1 0
vt 1 1
vt 0 1
vt 0 0
vt 1 0
vt 1 1
vt 0 1
vt 0 0
vt 1 0
vt 1 1
vt 0 1
vt 0 0
vt 1 0
vt 1 1
vt 0 1
vt 0 0
vt 1 0
vt 1 1
vt 0 1
vt 0 0
vt 1 0
vt 1 1
vt 0 1
vt 0 0
vt 1 0
vt 1 1
vt 0 1
vt 0 0
vt 1 0
vt 1 1
vt 0 1
vt 0 0
vt 1 0
vt 1 1
vt 0 1
vt 0 0
vt 1 0
vt 1 1
vt 0 1
vt 0 0
vt 1 0
vt 1 1
vt 0 1
vt 0 0
vt 1 0
vt 1 1
vt 0 1
vt 0 0
vt 1 0
vt 1 1
vt 0 1
vt 0 0
vt 1 0
vt 1 1
vt 0 1
vt 0 0
vt 1 0
vt 1 1
vt 0 1
vt 0 0
vt 1 0
vt 1 1
vt 0 1
vt 0 0
vt 1 0
vt 1 1
vt 0 1
vt 0 0
vt 1 0
vt 1 1
vt 0 1
vt 0 0
vt 1 0
vt 1 1
vt 0 1
vt 0 0
vt 1 0
vt 1 1
vt 0 1
vt 0 0
vt 1 0
vt 1 1
vt 0 1
vt 0 0
vt 1 0
vt 1 1
vt 0 1
vt 0 0
vt 1 0
vt 1 1
vt 0 1
vt 0 0
vt 1 0
vt 1 1
vt 0 1
vt 0 0
vt 1 0
vt 1 1
vt 0 1
vt 0 0
vt 1 0
vt 1 1
vt 0 1
vt 0 0
vt 1 0
vt 1 1
vt 0 1
vt 0 0
vt 1 0
vt 1 1
vt 0 1
vt 0 0
vt 1 0
vt 1 1
vt 0 1
vt 0 0
vt 1 0
vt 1 1
vt 0 1
vt 0 0
vt 1 0
vt 1 1
vt 0 1
vt 0 0
vt 1 0
vt 1 1
vt 0 1
vt 0 0
vt 1 0
vt 1 1
vt 0 1
vt 0 0
vt 1 0
vt 1 1
vt 0 1
vt 0 0
vt 1 0
vt 1 1
vt 0 1
vt 0 0
vt 1 0
vt 1 1
vt 0 1
vt 0 0
vt 1 0
vt 1 1
vt 0 1
usemtl mat_red
f 1/1 3/2 4/3 2/4
f 37/5 1/6 3/7 37/8
f 38/9 4/10 2/11 38/12
f 3/13 5/14 6/15 4/16
f 37/17 3/18 5/19 37/20
f 38/21 6/22 4/23 38/24
f 5/25 7/26 8/27 6/28
f 37/29 5/30 7/31 37/32
f 38/33 8/34 6/35 38/36
f 7/37 9/38 10/39 8/40
f 37/41 7/42 9/43 37/44
f 38/45 10/46 8/47 38/48
f 9/49 11/50 12/51 10/52
f 37/53 9/54 11/55 37/56
f 38/57 12/58 10/59 38/60
f 11/61 13/62 14/63 12/64
f 37/65 11/66 13/67 37/68
f 38/69 14/70 12/71 38/72
f 13/73 15/74 16/75 14/76
f 37/77 13/78 15/79 37/80
f 38/81 16/82 14/83 38/84
f 15/85 17/86 18/87 16/88
f 37/89 15/90 17/91 37/92
f 38/93 18/94 16/95 38/96
f 17/97 19/98 20/99 18/100
f 37/101 17/102 19/103 37/104
f 38/105 20/106 18/107 38/108
f 19/109 21/110 22/111 20/112
f 37/113 19/114 21/115 37/116
f 38/117 22/118 20/119 38/120
f 21/121 23/122 24/123 22/124
f 37/125 21/126 23/127 37/128
f 38/129 24/130 22/131 38/132
f 23/133 25/134 26/135 24/136
f 37/137 23/138 25/139 37/140
f 38/141 26/142 24/143 38/144
f 25/145 27/146 28/147 26/148
f 37/149 25/150 27/151 37/152
f 38/153 28/154 26/155 38/156
f 27/157 29/158 30/159 28/160
f 37/161 27/162 29/163 37/164
f 38/165 30/166 28/167 38/168
f 29/169 31/170 32/171 30/172
f 37/173 29/174 31/175 37/176
f 38/177 32/178 30/179 38/180
f 31/181 33/182 34/183 32/184
f 37/185 31/186 33/187 37/188
f 38/189 34/190 32/191 38/192
f 33/193 35/194 36/195 34/196
f 37/197 33/198 35/199 37/200
f 38/201 36/202 34/203 38/204
f 35/205 1/206 2/207 36/208
f 37/209 35/210 1/211 37/212
f 38/213 2/214 36/215 38/216
f 39/217 41/218 42/219 40/220
f 75/221 39/222 41/223 75/224
f 76/225 42/226 40/227 76/228
f 41/229 43/230 44/231 42/232
f 75/233 41/234 43/235 75/236
f 76/237 44/238 42/239 76/240
f 43/241 45/242 46/243 44/244
f 75/245 43/246 45/247 75/248
f 76/249 46/250 44/251 76/252
f 45/253 47/254 48/255 46/256
f 75/257 45/258 47/259 75/260
f 76/261 48/262 46/263 76/264
f 47/265 49/266 50/267 48/268
f 75/269 47/270 49/271 75/272
f 76/273 50/274 48/275 76/276
f 49/277 51/278 52/279 50/280
f 75/281 49/282 51/283 75/284
f 76/285 52/286 50/287 76/288
f 51/289 53/290 54/291 52/292
f 75/293 51/294 53/295 75/296
f 76/297 54/298 52/299 76/300
f 53/301 55/302 56/303 54/304
f 75/305 53/306 55/307 75/308
f 76/309 56/310 54/311 76/312
f 55/313 57/314 58/315 56/316
f 75/317 55/318 57/319 75/320
f 76/321 58/322 56/323 76/324
f 57/325 59/326 60/327 58/328
f 75/329 57/330 59/331 75/332
f 76/333 60/334 58/335 76/336
f 59/337 61/338 62/339 60/340
f 75/341 59/342 61/343 75/344
f 76/345 62/346 60/347 76/348
f 61/349 63/350 64/351 62/352
f 75/353 61/354 63/355 75/356
f 76/357 64/358 62/359 76/360
f 63/361 65/362 66/363 64/364
f 75/365 63/366 65/367 75/368
f 76/369 66/370 64/371 76/372
f 65/373 67/374 68/375 66/376
f 75/377 65/378 67/379 75/380
f 76/381 68/382 66/383 76/384
f 67/385 69/386 70/387 68/388
f 75/389 67/390 69/391 75/392
f 76/393 70/394 68/395 76/396
f 69/397 71/398 72/399 70/400
f 75/401 69/402 71/403 75/404
f 76/405 72/406 70/407 76/408
f 71/409 73/410 74/411 72/412
f 75/413 71/414 73/415 75/416
f 76/417 74/418 72/419 76/420
f 73/421 39/422 40/423 74/424
f 75/425 73/426 39/427 75/428
f 76/429 40/430 74/431 76/432
usemtl mat_yellow
f 77/433 79/434 80/435 78/436
f 113/437 77/438 79/439 113/440
f 114/441 80/442 78/443 114/444
f 79/445 81/446 82/447 80/448
f 113/449 79/450 81/451 113/452
f 114/453 82/454 80/455 114/456
f 81/457 83/458 84/459 82/460
f 113/461 81/462 83/463 113/464
f 114/465 84/466 82/467 114/468
f 83/469 85/470 86/471 84/472
f 113/473 83/474 85/475 113/476
f 114/477 86/478 84/479 114/480
f 85/481 87/482 88/483 86/484
f 113/485 85/486 87/487 113/488
f 114/489 88/490 86/491 114/492
f 87/493 89/494 90/495 88/496
f 113/497 87/498 89/499 113/500
f 114/501 90/502 88/503 114/504
f 89/505 91/506 92/507 90/508
f 113/509 89/510 91/511 113/512
f 114/513 92/514 90/515 114/516
f 91/517 93/518 94/519 92/520
f 113/521 91/522 93/523 113/524
f 114/525 94/526 92/527 114/528
f 93/529 95/530 96/531 94/532
f 113/533 93/534 95/535 113/536
f 114/537 96/538 94/539 114/540
f 95/541 97/542 98/543 96/544
f 113/545 95/546 97/547 113/548
f 114/549 98/550 96/551 114/552
f 97/553 99/554 100/555 98/556
f 113/557 97/558 99/559 113/560
f 114/561 100/562 98/563 114/564
f 99/565 101/566 102/567 100/568
f 113/569 99/570 101/571 113/572
f 114/573 102/574 100/575 114/576
f 101/577 103/578 104/579 102/580
f 113/581 101/582 103/583 113/584
f 114/585 104/586 102/587 114/588
f 103/589 105/590 106/591 104/592
f 113/593 103/594 105/595 113/596
f 114/597 106/598 104/599 114/600
f 105/601 107/602 108/603 106/604
f 113/605 105/606 107/607 113/608
f 114/609 108/610 106/611 114/612
f 107/613 109/614 110/615 108/616
f 113/617 107/618 109/619 113/620
f 114/621 110/622 108/623 114/624
f 109/625 111/626 112/627 110/628
f 113/629 109/630 111/631 113/632
f 114/633 112/634 110/635 114/636
f 111/637 77/638 78/639 112/640
f 113/641 111/642 77/643 113/644
f 114/645 78/646 112/647 114/648
usemtl mat_red
f 115/649 117/650 118/651 116/652
f 143/653 115/654 117/655 143/656
f 144/657 118/658 116/659 144/660
f 117/661 119/662 120/663 118/664
f 143/665 117/666 119/667 143/668
f 144/669 120/670 118/671 144/672
f 119/673 121/674 122/675 120/676
f 143/677 119/678 121/679 143/680
f 144/681 122/682 120/683 144/684
f 121/685 123/686 124/687 122/688
f 143/689 121/690 123/691 143/692
f 144/693 124/694 122/695 144/696
f 123/697 125/698 126/699 124/700
f 143/701 123/702 125/703 143/704
f 144/705 126/706 124/707 144/708
f 125/709 127/710 128/711 126/712
f 143/713 125/714 127/715 143/716
f 144/717 128/718 126/719 144/720
f 127/721 129/722 130/723 128/724
f 143/725 127/726 129/727 143/728
f 144/729 130/730 128/731 144/732
f 129/733 131/734 132/735 130/736
f 143/737 129/738 131/739 143/740
f 144/741 132/742 130/743 144/744
f 131/745 133/746 134/747 132/748
f 143/749 131/750 133/751 143/752
f 144/753 134/754 132/755 144/756
f 133/757 135/758 136/759 134/760
f 143/761 133/762 135/763 143/764
f 144/765 136/766 134/767 144/768
f 135/769 137/770 138/771 136/772
f 143/773 135/774 137/775 143/776
f 144/777 138/778 136/779 144/780
f 137/781 139/782 140/783 138/784
f 143/785 137/786 139/787 143/788
f 144/789 140/790 138/791 144/792
f 139/793 141/794 142/795 140/796
f 143/797 139/798 141/799 143/800
f 144/801 142/802 140/803 144/804
f 141/805 115/806 116/807 142/808
f 143/809 141/810 115/811 143/812
f 144/813 116/814 142/815 144/816
f 145/817 147/818 148/819 146/820
f 173/821 145/822 147/823 173/824
f 174/825 148/826 146/827 174/828
f 147/829 149/830 150/831 148/832
f 173/833 147/834 149/835 173/836
f 174/837 150/838 148/839 174/840
f 149/841 151/842 152/843 150/844
f 173/845 149/846 151/847 173/848
f 174/849 152/850 150/851 174/852
f 151/853 153/854 154/855 152/856
f 173/857 151/858 153/859 173/860
f 174/861 154/862 152/863 174/864
f 153/865 155/866 156/867 154/868
f 173/869 153/870 155/871 173/872
f 174/873 156/874 154/875 174/876
f 155/877 157/878 158/879 156/880
f 173/881 155/882 157/883 173/884
f 174/885 158/886 156/887 174/888
f 157/889 159/890 160/891 158/892
f 173/893 157/894 159/895 173/896
f 174/897 160/898 158/899 174/900
f 159/901 161/902 162/903 160/904
f 173/905 159/906 161/907 173/908
f 174/909 162/910 160/911 174/912
f 161/913 163/914 164/915 162/916
f 173/917 161/918 163/919 173/920
f 174/921 164/922 162/923 174/924
f 163/925 165/926 166/927 164/928
f 173/929 163/930 165/931 173/932
f 174/933 166/934 164/935 174/936
f 165/937 167/938 168/939 166/940
f 173/941 165/942 167/943 173/944
f 174/945 168/946 166/947 174/948
f 167/949 169/950 170/951 168/952
f 173/953 167/954 169/955 173/956
f 174/957 170/958 168/959 174/960
f 169/961 171/962 172/963 170/964
f 173/965 169/966 171/967 173/968
f 174/969 172/970 170/971 174/972
f 171/973 145/974 146/975 172/976
f 173/977 171/978 145/979 173/980
f 174/981 146/982 172/983 174/984
