mtllib traffic_light.mtl
o traffic_light
v 0.13 0 0
v 0.13 7.2 0
v 0.1201 0 0.0497
v 0.1201 7.2 0.0497
v 0.0919 0 0.0919
v 0.0919 7.2 0.0919
v 0.0497 0 0.1201
v 0.0497 7.2 0.1201
v 0 0 0.13
v 0 7.2 0.13
v -0.0497 0 0.1201
v -0.0497 7.2 0.1201
v -0.0919 0 0.0919
v -0.0919 7.2 0.0919
v -0.1201 0 0.0497
v -0.1201 7.2 0.0497
v -0.13 0 0
v -0.13 7.2 0
v -0.1201 0 -0.0497
v -0.1201 7.2 -0.0497
v -0.0919 0 -0.0919
v -0.0919 7.2 -0.0919
v -0.0497 0 -0.1201
v -0.0497 7.2 -0.1201
v 0 0 -0.13
v 0 7.2 -0.13
v 0.0497 0 -0.1201
v 0.0497 7.2 -0.1201
v 0.0919 0 -0.0919
v 0.0919 7.2 -0.0919
v 0.1201 0 -0.0497
v 0.1201 7.2 -0.0497
v 0 0 0
v 0 7.2 0
v -0.625 5.9 -0.375
v 0.625 5.9 -0.375
v 0.625 8.9 -0.375
v -0.625 8.9 -0.375
v -0.625 5.9 0.375
v 0.625 5.9 0.375
v 0.625 8.9 0.375
v -0.625 8.9 0.375
v -0.06 8.58 -0.42
v 0.06 8.58 -0.42
v -0.06 8.5631 -0.3242
v 0.06 8.5631 -0.3242
v -0.06 8.5145 -0.24
v 0.06 8.5145 -0.24
v -0.06 8.44 -0.1775
v 0.06 8.44 -0.1775
v -0.06 8.3486 -0.1443
v 0.06 8.3486 -0.1443
v -0.06 8.2514 -0.1443
v 0.06 8.2514 -0.1443
v -0.06 8.16 -0.1775
v 0.06 8.16 -0.1775
v -0.06 8.0855 -0.24
v 0.06 8.0855 -0.24
v -0.06 8.0369 -0.3242
v 0.06 8.0369 -0.3242
v -0.06 8.02 -0.42
v 0.06 8.02 -0.42
v -0.06 8.0369 -0.5158
v 0.06 8.0369 -0.5158
v -0.06 8.0855 -0.6
v 0.06 8.0855 -0.6
v -0.06 8.16 -0.6625
v 0.06 8.16 -0.6625
v -0.06 8.2514 -0.6957
v 0.06 8.2514 -0.6957
v -0.06 8.3486 -0.6957
v 0.06 8.3486 -0.6957
v -0.06 8.44 -0.6625
v 0.06 8.44 -0.6625
v -0.06 8.5145 -0.6
v 0.06 8.5145 -0.6
v -0.06 8.5631 -0.5158
v 0.06 8.5631 -0.5158
v -0.06 8.3 -0.42
v 0.06 8.3 -0.42
v -0.06 7.68 -0.42
v 0.06 7.68 -0.42
v -0.06 7.6631 -0.3242
v 0.06 7.6631 -0.3242
v -0.06 7.6145 -0.24
v 0.06 7.6145 -0.24
v -0.06 7.54 -0.1775
v 0.06 7.54 -0.1775
v -0.06 7.4486 -0.1443
v 0.06 7.4486 -0.1443
v -0.06 7.3514 -0.1443
v 0.06 7.3514 -0.1443
v -0.06 7.26 -0.1775
v 0.06 7.26 -0.1775
v -0.06 7.1855 -0.24
v 0.06 7.1855 -0.24
v -0.06 7.1369 -0.3242
v 0.06 7.1369 -0.3242
v -0.06 7.12 -0.42
v 0.06 7.12 -0.42
v -0.06 7.1369 -0.5158
v 0.06 7.1369 -0.5158
v -0.06 7.1855 -0.6
v 0.06 7.1855 -0.6
v -0.06 7.26 -0.6625
v 0.06 7.26 -0.6625
v -0.06 7.3514 -0.6957
v 0.06 7.3514 -0.6957
v -0.06 7.4486 -0.6957
v 0.06 7.4486 -0.6957
v -0.06 7.54 -0.6625
v 0.06 7.54 -0.6625
v -0.06 7.6145 -0.6
v 0.06 7.6145 -0.6
v -0.06 7.6631 -0.5158
v 0.06 7.6631 -0.5158
v -0.06 7.4 -0.42
v 0.06 7.4 -0.42
v -0.06 6.78 -0.42
v 0.06 6.78 -0.42
v -0.06 6.7631 -0.3242
v 0.06 6.7631 -0.3242
v -0.06 6.7145 -0.24
v 0.06 6.7145 -0.24
v -0.06 6.64 -0.1775
v 0.06 6.64 -0.1775
v -0.06 6.5486 -0.1443
v 0.06 6.5486 -0.1443
v -0.06 6.4514 -0.1443
v 0.06 6.4514 -0.1443
v -0.06 6.36 -0.1775
v 0.06 6.36 -0.1775
v -0.06 6.2855 -0.24
v 0.06 6.2855 -0.24
v -0.06 6.2369 -0.3242
v 0.06 6.2369 -0.3242
v -0.06 6.22 -0.42
v 0.06 6.22 -0.42
v -0.06 6.2369 -0.5158
v 0.06 6.2369 -0.5158
v -0.06 6.2855 -0.6
v 0.06 6.2855 -0.6
v -0.06 6.36 -0.6625
v 0.06 6.36 -0.6625
v -0.06 6.4514 -0.6957
v 0.06 6.4514 -0.6957
v -0.06 6.5486 -0.6957
v 0.06 6.5486 -0.6957
v -0.06 6.64 -0.6625
v 0.06 6.64 -0.6625
v -0.06 6.7145 -0.6
v 0.06 6.7145 -0.6
v -0.06 6.7631 -0.5158
v 0.06 6.7631 -0.5158
v -0.06 6.5 -0.42
v 0.06 6.5 -0.42
v -0.5 0 -0.5
v 0.5 0 -0.5
v 0.5 0.3 -0.5
v -0.5 0.3 -0.5
v -0.5 0 0.5
v 0.5 0 0.5
v 0.5 0.3 0.5
v -0.5 0.3 0.5
vt 0 0
vt 1 0
vt 1 1
vt 0 1
vt 0 0
vt 1 0
vt 1 1
vt 0 1
vt 0 0
vt 1 0
vt 1 1
vt 0 1
vt 0 0
vt 1 0
vt 1 1
vt 0 1
vt 0 0
vt 1 0
vt 1 1
vt 0 1
vt 0 0
vt 1 0
vt 1 1
vt 0 1
vt 0 0
vt 1 0
vt 1 1
vt 0 1
vt 0 0
vt 1 0
vt 1 1
vt 0 1
vt 0 0
vt 1 0
vt 1 1
vt 0 1
vt 0 0
vt 1 0
vt 1 1
vt 0 1
vt 0 0
vt 1 0
vt 1 1
vt 0 1
vt 0 0
vt 1 0
vt 1 1
vt 0 1
vt 0 0
vt 1 0
vt 1 1
vt 0 1
vt 0 0
vt 1 0
vt 1 1
vt 0 1
vt 0 0
vt 1 0
vt 1 1
vt 0 1
vt 0 0
vt 1 0
vt 1 1
vt 0 1
vt 0 0
vt 1 0
vt 1 1
vt 0 1
vt 0 0
vt 1 0
vt 1 1
vt 0 1
vt 0 0
vt 1 0
vt 1 1
vt 0 1
vt 0 0
vt 1 0
vt 1 1
vt 0 1
vt 0 0
vt 1 0
vt 1 1
vt 0 1
vt 0 0
vt 1 0
vt 1 1
vt 0 1
vt 0 0
vt 1 0
vt 1 1
vt 0 1
vt 0 0
vt 1 0
vt 1 1
vt 0 1
vt 0 0
vt 1 0
vt 1 1
vt 0 1
vt 0 0
vt 1 0
vt 1 1
vt 0 1
vt 0 0
vt 1 0
vt 1 1
vt 0 1
vt 0 0
vt 1 0
vt 1 1
vt 0 1
vt 0 0
vt 1 0
vt 1 1
vt 0 1
vt 0 0
vt 1 0
vt 1 1
vt 0 1
vt 0 0
vt 1 0
vt 1 1
vt 0 1
vt 0 0
vt 1 0
vt 1 1
vt 0 1
vt 0 0
vt 1 0
vt 1 1
vt 0 1
vt 0 0
vt 1 0
vt 1 1
vt 0 1
vt 0 0
vt 1 0
vt 1 1
vt 0 1
vt 0 0
vt 1 0
vt 1 1
vt 0 1
vt 0 0
vt 1 0
vt 1 1
vt 0 1
vt 0 0
vt 1 0
vt 1 1
vt 0 1
vt 0 0
vt 1 0
vt 1 1
vt 0 1
vt 0 0
vt 1 0
vt 1 1
vt 0 1
vt 0 0
vt 1 0
vt 1 1
vt 0 1
vt 0 0
vt 1 0
vt 1 1
vt 0 1
vt 0 0
vt 1 0
vt 1 1
vt 0 1
vt 0 0
vt 1 0
vt 1 1
vt 0 1
vt 0 0
vt 1 0
vt 1 1
vt 0 1
vt 0 0
vt 1 0
vt 1 1
vt 0 1
vt 0 0
vt 1 0
vt 1 1
vt 0 1
vt 0 0
vt 1 0
vt 1 1
vt 0 1
vt 0 0
vt 1 0
vt 1 1
vt 0 1
vt 0 0
vt 1 0
vt 1 1
vt 0 1
vt 0 0
vt 1 0
vt 1 1
vt 0 1
vt 0 0
vt 1 0
vt 1 1
vt 0 1
vt 0 0
vt 1 0
vt 1 1
vt 0 1
vt 0 0
vt 1 0
vt 1 1
vt 0 1
vt 0 0
vt 1 0
vt 1 1
vt 0 1
vt 0 0
vt 1 0
vt 1 1
vt 0 1
vt 0 0
vt 1 0
vt 1 1
vt 0 1
vt 0 0
vt 1 0
vt 1 1
vt 0 1
vt 0 0
vt 1 0
vt 1 1
vt 0 1
vt 0 0
vt 1 0
vt 1 1
vt 0 1
vt 0 0
vt 1 0
vt 1 1
vt 0 1
vt 0 0
vt 1 0
vt 1 1
vt 0 1
vt 0 0
vt 1 0
vt 1 1
vt 0 1
vt 0 0
vt 1 0
vt 1 1
vt 0 1
vt 0 0
vt 1 0
vt 1 1
vt 0 1
vt 0 0
vt 1 0
vt 1 1
vt 0 1
vt 0 0
vt 1 0
vt 1 1
vt 0 1
vt 0 0
vt 1 0
vt 1 1
vt 0 1
vt 0 0
vt 1 0
vt 1 1
vt 0 1
vt 0 0
vt 1 0
vt 1 1
vt 0 1
vt 0 0
vt 1 0
vt 1 1
vt 0 1
vt 0 0
vt 1 0
vt 1 1
vt 0 1
vt 0 0
vt 1 0
vt 1 1
vt 0 1
vt 0 0
vt 1 0
vt 1 1
vt 0 1
vt 0 0
vt 1 0
vt 1 1
vt 0 1
vt 0 0
vt 1 0
vt 1 1
vt 0 1
vt 0 0
vt 1 0
vt 1 1
vt 0 1
vt 0 0
vt 1 0
vt 1 1
vt 0 1
vt 0 0
vt 1 0
vt 1 1
vt 0 1
vt 0 0
vt 1 0
vt 1 1
vt 0 1
vt 0 0
vt 1 0
vt 1 1
vt 0 1
vt 0 0
vt 1 0
vt 1 1
vt 0 1
vt 0 0
vt 1 0
vt 1 1
vt 0 1
vt 0 0
vt 1 0
vt 1 1
vt 0 1
vt 0 0
vt 1 0
vt 1 1
vt 0 1
vt 0 0
vt 1 0
vt 1 1
vt 0 1
vt 0 0
vt 1 0
vt 1 1
vt 0 1
vt 0 0
vt 1 0
vt 1 1
vt 0 1
vt 0 0
vt 1 0
vt 1 1
vt 0 1
vt 0 0
vt 1 0
vt 1 1
vt 0 1
vt 0 0
vt 1 0
vt 1 1
vt 0 1
vt 0 0
vt 1 0
vt 1 1
vt 0 1
vt 0 0
vt 1 0
vt 1 1
vt 0 1
vt 0 0
vt 1 0
vt 1 1
vt 0 1
vt 0 0
vt 1 0
vt 1 1
vt 0 1
vt 0 0
vt 1 0
vt 1 1
vt 0 1
vt 0 0
vt 1 0
vt 1 1
vt 0 1
vt 0 0
vt 1 0
vt 1 1
vt 0 1
vt 0 0
vt 1 0
vt 1 1
vt 0 1
vt 0 0
vt 1 0
vt 1 1
vt 0 1
vt 0 0
vt 1 0
vt 1 1
vt 0 1
vt 0 0
vt 1 0
vt 1 1
vt 0 1
vt 0 0
vt 1 0
vt 1 1
vt 0 1
vt 0 0
vt 1 0
vt 1 1
vt 0 1
vt 0 0
vt 1 0
vt 1 1
vt 0 1
vt 0 0
vt 1 0
vt 1 1
vt 0 1
vt 0 0
vt 1 0
vt 1 1
vt 0 1
vt 0 0
vt 1 0
vt 1 1
vt 0 1
vt 0 0
vt 1 0
vt 1 1
vt 0 1
vt 0 0
vt 1 0
vt 1 1
vt 0 1
vt 0 0
vt 1 0
vt 1 1
vt 0 1
vt 0 0
vt 1 0
vt 1 1
vt 0 1
vt 0 0
vt 1 0
vt 1 1
vt 0 1
vt 0 0
vt 1 0
vt 1 1
vt 0 1
vt 0 0
vt 1 0
vt 1 1
vt 0 1
vt 0 0
vt 1 0
vt 1 1
vt 0 1
vt 0 0
vt 1 0
vt 1 1
vt 0 1
vt 0 0
vt 1 0
vt 1 1
vt 0 1
vt 0 0
vt 1 0
vt 1 1
vt 0 1
vt 0 0
vt 1 0
vt 1 1
vt 0 1
vt 0 0
vt 1 0
vt 1 1
vt 0 1
vt 0 0
vt 1 0
vt 1 1
vt 0 1
vt 0 0
vt 1 0
vt 1 1
vt 0 1
vt 0 0
vt 1 0
vt 1 1
vt 0 1
vt 0 0
vt 1 0
vt 1 1
vt 0 1
vt 0 0
vt 1 0
vt 1 1
vt 0 1
vt 0 0
vt 1 0
vt 1 1
vt 0 1
vt 0 0
vt 1 0
vt 1 1
vt 0 1
vt 0 0
vt 1 0
vt 1 1
vt 0 1
vt 0 0
vt 1 0
vt 1 1
vt 0 1
vt 0 0
vt 1 0
vt 1 1
vt 0 1
vt 0 0
vt 1 0
vt 1 1
vt 0 1
vt 0 0
vt 1 0
vt 1 1
vt 0 1
vt 0 0
vt 1 0
vt 1 1
vt 0 1
vt 0 0
vt 1 0
vt 1 1
vt 0 1
vt 0 0
vt 1 0
vt 1 1
vt 0 1
vt 0 0
vt 1 0
vt 1 1
vt 0 1
vt 0 0
vt 1 0
vt 1 1
vt 0 1
vt 0 0
vt 1 0
vt 1 1
vt 0 1
vt 0 0
vt 1 0
vt 1 1
vt 0 1
vt 0 0
vt 1 0
vt 1 1
vt 0 1
vt 0 0
vt 1 0
vt 1 1
vt 0 1
vt 0 0
vt 1 0
vt 1 1
vt 0 1
vt 0 0
vt 1 0
vt 1 1
vt 0 1
vt 0 0
vt 1 0
vt 1 1
vt 0 1
vt 0 0
vt 1 0
vt 1 1
vt 0 1
vt 0 0
vt 1 0
vt 1 1
vt 0 1
vt 0 0
vt 1 0
vt 1 1
vt 0 1
vt 0 0
vt 1 0
vt 1 1
vt 0 1
vt 0 0
vt 1 0
vt 1 1
vt 0 1
vt 0 0
vt 1 0
vt 1 1
vt 0 1
vt 0 0
vt 1 0
vt 1 1
vt 0 1
vt 0 0
vt 1 0
vt 1 1
vt 0 1
vt 0 0
vt 1 0
vt 1 1
vt 0 1
vt 0 0
vt 1 0
vt 1 1
vt 0 1
vt 0 0
vt 1 0
vt 1 1
vt 0 1
vt 0 0
vt 1 0
vt 1 1
vt 0 1
vt 0 0
vt 1 0
vt 1 1
vt 0 1
vt 0 0
vt 1 0
vt 1 1
vt 0 1
vt 0 0
vt 1 0
vt 1 1
vt 0 1
vt 0 0
vt 1 0
vt 1 1
vt 0 1
vt 0 0
vt 1 0
vt 1 1
vt 0 1
vt 0 0
vt 1 0
vt 1 1
vt 0 1
vt 0 0
vt 1 0
vt 1 1
vt 0 1
vt 0 0
vt 1 0
vt 1 1
vt 0 1
vt 0 0
vt 1 0
vt 1 1
vt 0 1
vt 0 0
vt 1 0
vt 1 1
vt 0 1
vt 0 0
vt 1 0
vt 1 1
vt 0 1
vt 0 0
vt 1 0
vt 1 1
vt 0 1
vt 0 0
vt 1 0
vt 1 1
vt 0 1
vt 0 0
vt 1 0
vt 1 1
vt 0 1
vt 0 0
vt 1 0
vt 1 1
vt 0 1
vt 0 0
vt 1 0
vt 1 1
vt 0 1
vt 0 0
vt 1 0
vt 1 1
vt 0 1
vt 0 0
vt 1 0
vt 1 1
vt 0 1
vt 0 0
vt 1 0
vt 1 1
vt 0 1
vt 0 0
vt 1 0
vt 1 1
vt 0 1
vt 0 0
vt 1 0
vt 1 1
vt 0 1
vt 0 0
vt 1 0
vt 1 1
vt 0 1
vt 0 0
vt 1 0
vt 1 1
vt 0 1
vt 0 0
vt 1 0
vt 1 1
vt 0 1
vt 0 0
vt 1 0
vt 1 1
vt 0 1
vt 0 0
vt 1 0
vt 1 1
vt 0 1
vt 0 0
vt 1 0
vt 1 1
vt 0 1
vt 0 0
vt 1 0
vt 1 1
vt 0 1
vt 0 0
vt 1 0
vt 1 1
vt 0 1
vt 0 0
vt 1 0
vt 1 1
vt 0 1
vt 0 0
vt 1 0
vt 1 1
vt 0 1
vt 0 0
vt 1 0
vt 1 1
vt 0 1
vt 0 0
vt 1 0
vt 1 1
vt 0 1
vt 0 0
vt 1 0
vt 1 1
vt 0 1
vt 0 0
vt 1 0
vt 1 1
vt 0 1
vt 0 0
vt 1 0
vt 1 1
vt 0 1
vt 0 0
vt 1 0
vt 1 1
vt 0 1
vt 0 0
vt 1 0
vt 1 1
vt 0 1
vt 0 0
vt 1 0
vt 1 1
vt 0 1
vt 0 0
vt 1 0
vt 1 1
vt 0 1
vt 0 0
vt 1 0
vt 1 1
vt 0 1
vt 0 0
vt 1 0
vt 1 1
vt 0 1
vt 0 0
vt 1 0
vt 1 1
vt 0 1
vt 0 0
vt 1 0
vt 1 1
vt 0 1
vt 0 0
vt 1 0
vt 1 1
vt 0 1
vt 0 0
vt 1 0
vt 1 1
vt 0 1
vt 0 0
vt 1 0
vt 1 1
vt 0 1
vt 0 0
vt 1 0
vt 1 1
vt 0 1
vt 0 0
vt 1 0
vt 1 1
vt 0 1
vt 0 0
vt 1 0
vt 1 1
vt 0 1
vt 0 0
vt 1 0
vt 1 1
vt 0 1
vt 0 0
vt 1 0
vt 1 1
vt 0 1
vt 0 0
vt 1 0
vt 1 1
vt 0 1
vt 0 0
vt 1 0
vt 1 1
vt 0 1
vt 0 0
vt 1 0
vt 1 1
vt 0 1
vt 0 0
vt 1 0
vt 1 1
vt 0 1
vt 0 0
vt 1 0
vt 1 1
vt 0 1
vt 0 0
vt 1 0
vt 1 1
vt 0 1
vt 0 0
vt 1 0
vt 1 1
vt 0 1
vt 0 0
vt 1 0
vt 1 1
vt 0 1
vt 0 0
vt 1 0
vt 1 1
vt 0 1
vt 0 0
vt 1 0
vt 1 1
vt 0 1
vt 0 0
vt 1 0
vt 1 1
vt 0 1
vt 0 0
vt 1 0
vt 1 1
vt 0 1
vt 0 0
vt 1 0
vt 1 1
vt 0 1
usemtl mat_dark
f 1/1 3/2 4/3 2/4
f 33/5 1/6 3/7 33/8
f 34/9 4/10 2/11 34/12
f 3/13 5/14 6/15 4/16
f 33/17 3/18 5/19 33/20
f 34/21 6/22 4/23 34/24
f 5/25 7/26 8/27 6/28
f 33/29 5/30 7/31 33/32
f 34/33 8/34 6/35 34/36
f 7/37 9/38 10/39 8/40
f 33/41 7/42 9/43 33/44
f 34/45 10/46 8/47 34/48
f 9/49 11/50 12/51 10/52
f 33/53 9/54 11/55 33/56
f 34/57 12/58 10/59 34/60
f 11/61 13/62 14/63 12/64
f 33/65 11/66 13/67 33/68
f 34/69 14/70 12/71 34/72
f 13/73 15/74 16/75 14/76
f 33/77 13/78 15/79 33/80
f 34/81 16/82 14/83 34/84
f 15/85 17/86 18/87 16/88
f 33/89 15/90 17/91 33/92
f 34/93 18/94 16/95 34/96
f 17/97 19/98 20/99 18/100
f 33/101 17/102 19/103 33/104
f 34/105 20/106 18/107 34/108
f 19/109 21/110 22/111 20/112
f 33/113 19/114 21/115 33/116
f 34/117 22/118 20/119 34/120
f 21/121 23/122 24/123 22/124
f 33/125 21/126 23/127 33/128
f 34/129 24/130 22/131 34/132
f 23/133 25/134 26/135 24/136
f 33/137 23/138 25/139 33/140
f 34/141 26/142 24/143 34/144
f 25/145 27/146 28/147 26/148
f 33/149 25/150 27/151 33/152
f 34/153 28/154 26/155 34/156
f 27/157 29/158 30/159 28/160
f 33/161 27/162 29/163 33/164
f 34/165 30/166 28/167 34/168
f 29/169 31/170 32/171 30/172
f 33/173 29/174 31/175 33/176
f 34/177 32/178 30/179 34/180
f 31/181 1/182 2/183 32/184
f 33/185 31/186 1/187 33/188
f 34/189 2/190 32/191 34/192
usemtl mat_texture
f 35/193 36/194 37/195 38/196
f 40/197 39/198 42/199 41/200
f 39/201 35/202 38/203 42/204
f 36/205 40/206 41/207 37/208
f 38/209 37/210 41/211 42/212
f 39/213 40/214 36/215 35/216
usemtl mat_red
f 43/217 45/218 46/219 44/220
f 79/221 43/222 45/223 79/224
f 80/225 46/226 44/227 80/228
f 45/229 47/230 48/231 46/232
f 79/233 45/234 47/235 79/236
f 80/237 48/238 46/239 80/240
f 47/241 49/242 50/243 48/244
f 79/245 47/246 49/247 79/248
f 80/249 50/250 48/251 80/252
f 49/253 51/254 52/255 50/256
f 79/257 49/258 51/259 79/260
f 80/261 52/262 50/263 80/264
f 51/265 53/266 54/267 52/268
f 79/269 51/270 53/271 79/272
f 80/273 54/274 52/275 80/276
f 53/277 55/278 56/279 54/280
f 79/281 53/282 55/283 79/284
f 80/285 56/286 54/287 80/288
f 55/289 57/290 58/291 56/292
f 79/293 55/294 57/295 79/296
f 80/297 58/298 56/299 80/300
f 57/301 59/302 60/303 58/304
f 79/305 57/306 59/307 79/308
f 80/309 60/310 58/311 80/312
f 59/313 61/314 62/315 60/316
f 79/317 59/318 61/319 79/320
f 80/321 62/322 60/323 80/324
f 61/325 63/326 64/327 62/328
f 79/329 61/330 63/331 79/332
f 80/333 64/334 62/335 80/336
f 63/337 65/338 66/339 64/340
f 79/341 63/342 65/343 79/344
f 80/345 66/346 64/347 80/348
f 65/349 67/350 68/351 66/352
f 79/353 65/354 67/355 79/356
f 80/357 68/358 66/359 80/360
f 67/361 69/362 70/363 68/364
f 79/365 67/366 69/367 79/368
f 80/369 70/370 68/371 80/372
f 69/373 71/374 72/375 70/376
f 79/377 69/378 71/379 79/380
f 80/381 72/382 70/383 80/384
f 71/385 73/386 74/387 72/388
f 79/389 71/390 73/391 79/392
f 80/393 74/394 72/395 80/396
f 73/397 75/398 76/399 74/400
f 79/401 73/402 75/403 79/404
f 80/405 76/406 74/407 80/408
f 75/409 77/410 78/411 76/412
f 79/413 75/414 77/415 79/416
f 80/417 78/418 76/419 80/420
f 77/421 43/422 44/423 78/424
f 79/425 77/426 43/427 79/428
f 80/429 44/430 78/431 80/432
usemtl mat_yellow
f 81/433 83/434 84/435 82/436
f 117/437 81/438 83/439 117/440
f 118/441 84/442 82/443 118/444
f 83/445 85/446 86/447 84/448
f 117/449 83/450 85/451 117/452
f 118/453 86/454 84/455 118/456
f 85/457 87/458 88/459 86/460
f 117/461 85/462 87/463 117/464
f 118/465 88/466 86/467 118/468
f 87/469 89/470 90/471 88/472
f 117/473 87/474 89/475 117/476
f 118/477 90/478 88/479 118/480
f 89/481 91/482 92/483 90/484
f 117/485 89/486 91/487 117/488
f 118/489 92/490 90/491 118/492
f 91/493 93/494 94/495 92/496
f 117/497 91/498 93/499 117/500
f 118/501 94/502 92/503 118/504
f 93/505 95/506 96/507 94/508
f 117/509 93/510 95/511 117/512
f 118/513 96/514 94/515 118/516
f 95/517 97/518 98/519 96/520
f 117/521 95/522 97/523 117/524
f 118/525 98/526 96/527 118/528
f 97/529 99/530 100/531 98/532
f 117/533 97/534 99/535 117/536
f 118/537 100/538 98/539 118/540
f 99/541 101/542 102/543 100/544
f 117/545 99/546 101/547 117/548
f 118/549 102/550 100/551 118/552
f 101/553 103/554 104/555 102/556
f 117/557 101/558 103/559 117/560
f 118/561 104/562 102/563 118/564
f 103/565 105/566 106/567 104/568
f 117/569 103/570 105/571 117/572
f 118/573 106/574 104/575 118/576
f 105/577 107/578 108/579 106/580
f 117/581 105/582 107/583 117/584
f 118/585 108/586 106/587 118/588
f 107/589 109/590 110/591 108/592
f 117/593 107/594 109/595 117/596
f 118/597 110/598 108/599 118/600
f 109/601 111/602 112/603 110/604
f 117/605 109/606 111/607 117/608
f 118/609 112/610 110/611 118/612
f 111/613 113/614 114/615 112/616
f 117/617 111/618 113/619 117/620
f 118/621 114/622 112/623 118/624
f 113/625 115/626 116/627 114/628
f 117/629 113/630 115/631 117/632
f 118/633 116/634 114/635 118/636
f 115/637 81/638 82/639 116/640
f 117/641 115/642 81/643 117/644
f 118/645 82/646 116/647 118/648
usemtl mat_green
f 119/649 121/650 122/651 120/652
f 155/653 119/654 121/655 155/656
f 156/657 122/658 120/659 156/660
f 121/661 123/662 124/663 122/664
f 155/665 121/666 123/667 155/668
f 156/669 124/670 122/671 156/672
f 123/673 125/674 126/675 124/676
f 155/677 123/678 125/679 155/680
f 156/681 126/682 124/683 156/684
f 125/685 127/686 128/687 126/688
f 155/689 125/690 127/691 155/692
f 156/693 128/694 126/695 156/696
f 127/697 129/698 130/699 128/700
f 155/701 127/702 129/703 155/704
f 156/705 130/706 128/707 156/708
f 129/709 131/710 132/711 130/712
f 155/713 129/714 131/715 155/716
f 156/717 132/718 130/719 156/720
f 131/721 133/722 134/723 132/724
f 155/725 131/726 133/727 155/728
f 156/729 134/730 132/731 156/732
f 133/733 135/734 136/735 134/736
f 155/737 133/738 135/739 155/740
f 156/741 136/742 134/743 156/744
f 135/745 137/746 138/747 136/748
f 155/749 135/750 137/751 155/752
f 156/753 138/754 136/755 156/756
f 137/757 139/758 140/759 138/760
f 155/761 137/762 139/763 155/764
f 156/765 140/766 138/767 156/768
f 139/769 141/770 142/771 140/772
f 155/773 139/774 141/775 155/776
f 156/777 142/778 140/779 156/780
f 141/781 143/782 144/783 142/784
f 155/785 141/786 143/787 155/788
f 156/789 144/790 142/791 156/792
f 143/793 145/794 146/795 144/796
f 155/797 143/798 145/799 155/800
f 156/801 146/802 144/803 156/804
f 145/805 147/806 148/807 146/808
f 155/809 145/810 147/811 155/812
f 156/813 148/814 146/815 156/816
f 147/817 149/818 150/819 148/820
f 155/821 147/822 149/823 155/824
f 156/825 150/826 148/827 156/828
f 149/829 151/830 152/831 150/832
f 155/833 149/834 151/835 155/836
f 156/837 152/838 150/839 156/840
f 151/841 153/842 154/843 152/844
f 155/845 151/846 153/847 155/848
f 156/849 154/850 152/851 156/852
f 153/853 119/854 120/855 154/856
f 155/857 153/858 119/859 155/860
f 156/861 120/862 154/863 156/864
usemtl mat_metal
f 157/865 158/866 159/867 160/868
f 162/869 161/870 164/871 163/872
f 161/873 157/874 160/875 164/876
f 158/877 162/878 163/879 159/880
f 160/881 159/882 163/883 164/884
f 161/885 162/886 158/887 157/888
