mtllib stop_sign.mtl
o stop_sign
v 0.1 0 0
v 0.1 4.4 0
v 0.0866 0 0.05
v 0.0866 4.4 0.05
v 0.05 0 0.0866
v 0.05 4.4 0.0866
v 0 0 0.1
v 0 4.4 0.1
v -0.05 0 0.0866
v -0.05 4.4 0.0866
v -0.0866 0 0.05
v -0.0866 4.4 0.05
v -0.1 0 0
v -0.1 4.4 0
v -0.0866 0 -0.05
v -0.0866 4.4 -0.05
v -0.05 0 -0.0866
v -0.05 4.4 -0.0866
v 0 0 -0.1
v 0 4.4 -0.1
v 0.05 0 -0.0866
v 0.05 4.4 -0.0866
v 0.0866 0 -0.05
v 0.0866 4.4 -0.05
v 0 0 0
v 0 4.4 0
v -0.07 6.05 -0.05
v 0.07 6.05 -0.05
v -0.07 5.6546 0.9046
v 0.07 5.6546 0.9046
v -0.07 4.7 1.3
v 0.07 4.7 1.3
v -0.07 3.7454 0.9046
v 0.07 3.7454 0.9046
v -0.07 3.35 -0.05
v 0.07 3.35 -0.05
v -0.07 3.7454 -1.0046
v 0.07 3.7454 -1.0046
v -0.07 4.7 -1.4
v 0.07 4.7 -1.4
v -0.07 5.6546 -1.0046
v 0.07 5.6546 -1.0046
v -0.07 4.7 -0.05
v 0.07 4.7 -0.05
v -0.03 5.75 -0.13
v 0.03 5.75 -0.13
v -0.03 5.4425 0.6125
v 0.03 5.4425 0.6125
v -0.03 4.7 0.92
v 0.03 4.7 0.92
v -0.03 3.9575 0.6125
v 0.03 3.9575 0.6125
v -0.03 3.65 -0.13
v 0.03 3.65 -0.13
v -0.03 3.9575 -0.8725
v 0.03 3.9575 -0.8725
v -0.03 4.7 -1.18
v 0.03 4.7 -1.18
v -0.03 5.4425 -0.8725
v 0.03 5.4425 -0.8725
v -0.03 4.7 -0.13
v 0.03 4.7 -0.13
vt 0 0
vt 1 0
vt 1 1
vt 0 1
vt 0 0
vt 1 0
vt 1 1
vt 0 1
vt 0 0
vt 1 0
vt 1 1
vt 0 1
vt 0 0
vt 1 0
vt 1 1
vt 0 1
vt 0 0
vt 1 0
vt 1 1
vt 0 1
vt 0 0
vt 1 0
vt 1 1
vt 0 1
vt 0 0
vt 1 0
vt 1 1
vt 0 1
vt 0 0
vt 1 0
vt 1 1
vt 0 1
vt 0 0
vt 1 0
vt 1 1
vt 0 1
vt 0 0
vt 1 0
vt 1 1
vt 0 1
vt 0 0
vt 1 0
vt 1 1
vt 0 1
vt 0 0
vt 1 0
vt 1 1
vt 0 1
vt 0 0
vt 1 0
vt 1 1
vt 0 1
vt 0 0
vt 1 0
vt 1 1
vt 0 1
vt 0 0
vt 1 0
vt 1 1
vt 0 1
vt 0 0
vt 1 0
vt 1 1
vt 0 1
vt 0 0
vt 1 0
vt 1 1
vt 0 1
vt 0 0
vt 1 0
vt 1 1
vt 0 1
vt 0 0
vt 1 0
vt 1 1
vt 0 1
vt 0 0
vt 1 0
vt 1 1
vt 0 1
vt 0 0
vt 1 0
vt 1 1
vt 0 1
vt 0 0
vt 1 0
vt 1 1
vt 0 1
vt 0 0
vt 1 0
vt 1 1
vt 0 1
vt 0 0
vt 1 0
vt 1 1
vt 0 1
vt 0 0
vt 1 0
vt 1 1
vt 0 1
vt 0 0
vt 1 0
vt 1 1
vt 0 1
vt 0 0
vt 1 0
vt 1 1
vt 0 1
vt 0 0
vt 1 0
vt 1 1
vt 0 1
vt 0 0
vt 1 0
vt 1 1
vt 0 1
vt 0 0
vt 1 0
vt 1 1
vt 0 1
vt 0 0
vt 1 0
vt 1 1
vt 0 1
vt 0 0
vt 1 0
vt 1 1
vt 0 1
vt 0 0
vt 1 0
vt 1 1
vt 0 1
vt 0 0
vt 1 0
vt 1 1
vt 0 1
vt 0 0
vt 1 0
vt 1 1
vt 0 1
vt 0 0
vt 1 0
vt 1 1
vt 0 1
vt 0 0
vt 1 0
vt 1 1
vt 0 1
vt 0 0
vt 1 0
vt 1 1
vt 0 1
vt 0 0
vt 1 0
vt 1 1
vt 0 1
vt 0 0
vt 1 0
vt 1 1
vt 0 1
vt 0 0
vt 1 0
vt 1 1
vt 0 1
vt 0 0
vt 1 0
vt 1 1
vt 0 1
vt 0 0
vt 1 0
vt 1 1
vt 0 1
vt 0 0
vt 1 0
vt 1 1
vt 0 1
vt 0 0
vt 1 0
vt 1 1
vt 0 1
vt 0 0
vt 1 0
vt 1 1
vt 0 1
vt 0 0
vt 1 0
vt 1 1
vt 0 1
vt 0 0
vt 1 0
vt 1 1
vt 0 1
vt 0 0
vt 1 0
vt 1 1
vt 0 1
vt 0 0
vt 1 0
vt 1 1
vt 0 1
vt 0 0
vt 1 0
vt 1 1
vt 0 1
vt 0 0
vt 1 0
vt 1 1
vt 0 1
vt 0 0
vt 1 0
vt 1 1
vt 0 1
vt 0 0
vt 1 0
vt 1 1
vt 0 1
vt 0 0
vt 1 0
vt 1 1
vt 0 1
vt 0 0
vt 1 0
vt 1 1
vt 0 1
vt 0 0
vt 1 0
vt 1 1
vt 0 1
vt 0 0
vt 1 0
vt 1 1
vt 0 1
vt 0 0
vt 1 0
vt 1 1
vt 0 1
vt 0 0
vt 1 0
vt 1 1
vt 0 1
vt 0 0
vt 1 0
vt 1 1
vt 0 1
vt 0 0
vt 1 0
vt 1 1
vt 0 1
vt 0 0
vt 1 0
vt 1 1
vt 0 1
vt 0 0
vt 1 0
vt 1 1
vt 0 1
vt 0 0
vt 1 0
vt 1 1
vt 0 1
vt 0 0
vt 1 0
vt 1 1
vt 0 1
vt 0 0
vt 1 0
vt 1 1
vt 0 1
vt 0 0
vt 1 0
vt 1 1
vt 0 1
vt 0 0
vt 1 0
vt 1 1
vt 0 1
vt 0 0
vt 1 0
vt 1 1
vt 0 1
vt 0 0
vt 1 0
vt 1 1
vt 0 1
vt 0 0
vt 1 0
vt 1 1
vt 0 1
vt 0 0
vt 1 0
vt 1 1
vt 0 1
vt 0 0
vt 1 0
vt 1 1
vt 0 1
vt 0 0
vt 1 0
vt 1 1
vt 0 1
vt 0 0
vt 1 0
vt 1 1
vt 0 1
vt 0 0
vt 1 0
vt 1 1
vt 0 1
vt 0 0
vt 1 0
vt 1 1
vt 0 1
vt 0 0
vt 1 0
vt 1 1
vt 0 1
vt 0 0
vt 1 0
vt 1 1
vt 0 1
vt 0 0
vt 1 0
vt 1 1
vt 0 1
vt 0 0
vt 1 0
vt 1 1
vt 0 1
vt 0 0
vt 1 0
vt 1 1
vt 0 1
vt 0 0
vt 1 0
vt 1 1
vt 0 1
usemtl mat_metal
f 1/1 3/2 4/3 2/4
f 25/5 1/6 3/7 25/8
f 26/9 4/10 2/11 26/12
f 3/13 5/14 6/15 4/16
f 25/17 3/18 5/19 25/20
f 26/21 6/22 4/23 26/24
f 5/25 7/26 8/27 6/28
f 25/29 5/30 7/31 25/32
f 26/33 8/34 6/35 26/36
f 7/37 9/38 10/39 8/40
f 25/41 7/42 9/43 25/44
f 26/45 10/46 8/47 26/48
f 9/49 11/50 12/51 10/52
f 25/53 9/54 11/55 25/56
f 26/57 12/58 10/59 26/60
f 11/61 13/62 14/63 12/64
f 25/65 11/66 13/67 25/68
f 26/69 14/70 12/71 26/72
f 13/73 15/74 16/75 14/76
f 25/77 13/78 15/79 25/80
f 26/81 16/82 14/83 26/84
f 15/85 17/86 18/87 16/88
f 25/89 15/90 17/91 25/92
f 26/93 18/94 16/95 26/96
f 17/97 19/98 20/99 18/100
f 25/101 17/102 19/103 25/104
f 26/105 20/106 18/107 26/108
f 19/109 21/110 22/111 20/112
f 25/113 19/114 21/115 25/116
f 26/117 22/118 20/119 26/120
f 21/121 23/122 24/123 22/124
f 25/125 21/126 23/127 25/128
f 26/129 24/130 22/131 26/132
f 23/133 1/134 2/135 24/136
f 25/137 23/138 1/139 25/140
f 26/141 2/142 24/143 26/144
usemtl mat_red
f 27/145 29/146 30/147 28/148
f 43/149 27/150 29/151 43/152
f 44/153 30/154 28/155 44/156
f 29/157 31/158 32/159 30/160
f 43/161 29/162 31/163 43/164
f 44/165 32/166 30/167 44/168
f 31/169 33/170 34/171 32/172
f 43/173 31/174 33/175 43/176
f 44/177 34/178 32/179 44/180
f 33/181 35/182 36/183 34/184
f 43/185 33/186 35/187 43/188
f 44/189 36/190 34/191 44/192
f 35/193 37/194 38/195 36/196
f 43/197 35/198 37/199 43/200
f 44/201 38/202 36/203 44/204
f 37/205 39/206 40/207 38/208
f 43/209 37/210 39/211 43/212
f 44/213 40/214 38/215 44/216
f 39/217 41/218 42/219 40/220
f 43/221 39/222 41/223 43/224
f 44/225 42/226 40/227 44/228
f 41/229 27/230 28/231 42/232
f 43/233 41/234 27/235 43/236
f 44/237 28/238 42/239 44/240
usemtl mat_texture
f 45/241 47/242 48/243 46/244
f 61/245 45/246 47/247 61/248
f 62/249 48/250 46/251 62/252
f 47/253 49/254 50/255 48/256
f 61/257 47/258 49/259 61/260
f 62/261 50/262 48/263 62/264
f 49/265 51/266 52/267 50/268
f 61/269 49/270 51/271 61/272
f 62/273 52/274 50/275 62/276
f 51/277 53/278 54/279 52/280
f 61/281 51/282 53/283 61/284
f 62/285 54/286 52/287 62/288
f 53/289 55/290 56/291 54/292
f 61/293 53/294 55/295 61/296
f 62/297 56/298 54/299 62/300
f 55/301 57/302 58/303 56/304
f 61/305 55/306 57/307 61/308
f 62/309 58/310 56/311 62/312
f 57/313 59/314 60/315 58/316
f 61/317 57/318 59/319 61/320
f 62/321 60/322 58/323 62/324
f 59/325 45/326 46/327 60/328
f 61/329 59/330 45/331 61/332
f 62/333 46/334 60/335 62/336
