mtllib bus_stop_shelter.mtl
o bus_stop_shelter
v -4.5 0 -2.075
v 4.5 0 -2.075
v 4.5 0.4 -2.075
v -4.5 0.4 -2.075
v -4.5 0 -1.725
v 4.5 0 -1.725
v 4.5 0.4 -1.725
v -4.5 0.4 -1.725
v -4.75 4.425 -2.225
v 4.75 4.425 -2.225
v 4.75 4.775 -2.225
v -4.75 4.775 -2.225
v -4.75 4.425 -1.875
v 4.75 4.425 -1.875
v 4.75 4.775 -1.875
v -4.75 4.775 -1.875
v -4.525 0 -2.2
v -4.275 0 -2.2
v -4.275 4.8 -2.2
v -4.525 4.8 -2.2
v -4.525 0 -1.9
v -4.275 0 -1.9
v -4.275 4.8 -1.9
v -4.525 4.8 -1.9
v 4.275 0 -2.2
v 4.525 0 -2.2
v 4.525 4.8 -2.2
v 4.275 4.8 -2.2
v 4.275 0 -1.9
v 4.525 0 -1.9
v 4.525 4.8 -1.9
v 4.275 4.8 -1.9
v -3.8 1 -2.22
v 3.8 1 -2.22
v 3.8 4.4 -2.22
v -3.8 4.4 -2.22
v -3.8 1 -2.1
v 3.8 1 -2.1
v 3.8 4.4 -2.1
v -3.8 4.4 -2.1
v -5 4.925 -2.65
v 5 4.925 -2.65
v 5 5.375 -2.65
v -5 5.375 -2.65
v -5 4.925 2.65
v 5 4.925 2.65
v 5 5.375 2.65
v -5 5.375 2.65
v -2.8 1.175 0.3
v 2.8 1.175 0.3
v 2.8 1.525 0.3
v -2.8 1.525 0.3
v -2.8 1.175 1.4
v 2.8 1.175 1.4
v 2.8 1.525 1.4
v -2.8 1.525 1.4
v -2.275 0.025 0.675
v -1.925 0.025 0.675
v -1.925 1.375 0.675
v -2.275 1.375 0.675
v -2.275 0.025 1.025
v -1.925 0.025 1.025
v -1.925 1.375 1.025
v -2.275 1.375 1.025
v 1.925 0.025 0.675
v 2.275 0.025 0.675
v 2.275 1.375 0.675
v 1.925 1.375 0.675
v 1.925 0.025 1.025
v 2.275 0.025 1.025
v 2.275 1.375 1.025
v 1.925 1.375 1.025
v -4.55 2.25 2.29
v -2.65 2.25 2.29
v -2.65 3.55 2.29
v -4.55 3.55 2.29
v -4.55 2.25 2.41
v -2.65 2.25 2.41
v -2.65 3.55 2.41
v -4.55 3.55 2.41
vt 0.02 0.7
vt 0.98 0.7
vt 0.98 0.98
vt 0.02 0.98
vt 0.02 0.7
vt 0.98 0.7
vt 0.98 0.98
vt 0.02 0.98
vt 0.02 0.7
vt 0.98 0.7
vt 0.98 0.98
vt 0.02 0.98
vt 0.02 0.7
vt 0.98 0.7
vt 0.98 0.98
vt 0.02 0.98
vt 0.02 0.7
vt 0.98 0.7
vt 0.98 0.98
vt 0.02 0.98
vt 0.02 0.7
vt 0.98 0.7
vt 0.98 0.98
vt 0.02 0.98
vt 0 0
vt 1 0
vt 1 1
vt 0 1
vt 0 0
vt 1 0
vt 1 1
vt 0 1
vt 0 0
vt 1 0
vt 1 1
vt 0 1
vt 0 0
vt 1 0
vt 1 1
vt 0 1
vt 0 0
vt 1 0
vt 1 1
vt 0 1
vt 0 0
vt 1 0
vt 1 1
vt 0 1
vt 0 0
vt 1 0
vt 1 1
vt 0 1
vt 0 0
vt 1 0
vt 1 1
vt 0 1
vt 0 0
vt 1 0
vt 1 1
vt 0 1
vt 0 0
vt 1 0
vt 1 1
vt 0 1
vt 0 0
vt 1 0
vt 1 1
vt 0 1
vt 0 0
vt 1 0
vt 1 1
vt 0 1
vt 0 0
vt 1 0
vt 1 1
vt 0 1
vt 0 0
vt 1 0
vt 1 1
vt 0 1
vt 0 0
vt 1 0
vt 1 1
vt 0 1
vt 0 0
vt 1 0
vt 1 1
vt 0 1
vt 0 0
vt 1 0
vt 1 1
vt 0 1
vt 0 0
vt 1 0
vt 1 1
vt 0 1
vt 0 0
vt 1 0
vt 1 1
vt 0 1
vt 0 0
vt 1 0
vt 1 1
vt 0 1
vt 0 0
vt 1 0
vt 1 1
vt 0 1
vt 0 0
vt 1 0
vt 1 1
vt 0 1
vt 0 0
vt 1 0
vt 1 1
vt 0 1
vt 0 0
vt 1 0
vt 1 1
vt 0 1
vt 0.02 0.02
vt 0.98 0.02
vt 0.98 0.26
vt 0.02 0.26
vt 0.02 0.02
vt 0.98 0.02
vt 0.98 0.26
vt 0.02 0.26
vt 0.02 0.02
vt 0.98 0.02
vt 0.98 0.26
vt 0.02 0.26
vt 0.02 0.02
vt 0.98 0.02
vt 0.98 0.26
vt 0.02 0.26
vt 0.02 0.02
vt 0.98 0.02
vt 0.98 0.26
vt 0.02 0.26
vt 0.02 0.02
vt 0.98 0.02
vt 0.98 0.26
vt 0.02 0.26
vt 0.02 0.3
vt 0.62 0.3
vt 0.62 0.58
vt 0.02 0.58
vt 0.02 0.3
vt 0.62 0.3
vt 0.62 0.58
vt 0.02 0.58
vt 0.02 0.3
vt 0.62 0.3
vt 0.62 0.58
vt 0.02 0.58
vt 0.02 0.3
vt 0.62 0.3
vt 0.62 0.58
vt 0.02 0.58
vt 0.02 0.3
vt 0.62 0.3
vt 0.62 0.58
vt 0.02 0.58
vt 0.02 0.3
vt 0.62 0.3
vt 0.62 0.58
vt 0.02 0.58
vt 0 0
vt 1 0
vt 1 1
vt 0 1
vt 0 0
vt 1 0
vt 1 1
vt 0 1
vt 0 0
vt 1 0
vt 1 1
vt 0 1
vt 0 0
vt 1 0
vt 1 1
vt 0 1
vt 0 0
vt 1 0
vt 1 1
vt 0 1
vt 0 0
vt 1 0
vt 1 1
vt 0 1
vt 0 0
vt 1 0
vt 1 1
vt 0 1
vt 0 0
vt 1 0
vt 1 1
vt 0 1
vt 0 0
vt 1 0
vt 1 1
vt 0 1
vt 0 0
vt 1 0
vt 1 1
vt 0 1
vt 0 0
vt 1 0
vt 1 1
vt 0 1
vt 0 0
vt 1 0
vt 1 1
vt 0 1
vt 0.66 0.3
vt 0.98 0.3
vt 0.98 0.68
vt 0.66 0.68
vt 0.66 0.3
vt 0.98 0.3
vt 0.98 0.68
vt 0.66 0.68
vt 0.66 0.3
vt 0.98 0.3
vt 0.98 0.68
vt 0.66 0.68
vt 0.66 0.3
vt 0.98 0.3
vt 0.98 0.68
vt 0.66 0.68
vt 0.66 0.3
vt 0.98 0.3
vt 0.98 0.68
vt 0.66 0.68
vt 0.66 0.3
vt 0.98 0.3
vt 0.98 0.68
vt 0.66 0.68
usemtl mat_texture
f 1/1 2/2 3/3 4/4
f 6/5 5/6 8/7 7/8
f 5/9 1/10 4/11 8/12
f 2/13 6/14 7/15 3/16
f 4/17 3/18 7/19 8/20
f 5/21 6/22 2/23 1/24
usemtl mat_metal
f 9/25 10/26 11/27 12/28
f 14/29 13/30 16/31 15/32
f 13/33 9/34 12/35 16/36
f 10/37 14/38 15/39 11/40
f 12/41 11/42 15/43 16/44
f 13/45 14/46 10/47 9/48
f 17/49 18/50 19/51 20/52
f 22/53 21/54 24/55 23/56
f 21/57 17/58 20/59 24/60
f 18/61 22/62 23/63 19/64
f 20/65 19/66 23/67 24/68
f 21/69 22/70 18/71 17/72
f 25/73 26/74 27/75 28/76
f 30/77 29/78 32/79 31/80
f 29/81 25/82 28/83 32/84
f 26/85 30/86 31/87 27/88
f 28/89 27/90 31/91 32/92
f 29/93 30/94 26/95 25/96
usemtl mat_glass
f 33/97 34/98 35/99 36/100
f 38/101 37/102 40/103 39/104
f 37/105 33/106 36/107 40/108
f 34/109 38/110 39/111 35/112
f 36/113 35/114 39/115 40/116
f 37/117 38/118 34/119 33/120
usemtl mat_texture
f 41/121 42/122 43/123 44/124
f 46/125 45/126 48/127 47/128
f 45/129 41/130 44/131 48/132
f 42/133 46/134 47/135 43/136
f 44/137 43/138 47/139 48/140
f 45/141 46/142 42/143 41/144
f 49/145 50/146 51/147 52/148
f 54/149 53/150 56/151 55/152
f 53/153 49/154 52/155 56/156
f 50/157 54/158 55/159 51/160
f 52/161 51/162 55/163 56/164
f 53/165 54/166 50/167 49/168
usemtl mat_metal
f 57/169 58/170 59/171 60/172
f 62/173 61/174 64/175 63/176
f 61/177 57/178 60/179 64/180
f 58/181 62/182 63/183 59/184
f 60/185 59/186 63/187 64/188
f 61/189 62/190 58/191 57/192
f 65/193 66/194 67/195 68/196
f 70/197 69/198 72/199 71/200
f 69/201 65/202 68/203 72/204
f 66/205 70/206 71/207 67/208
f 68/209 67/210 71/211 72/212
f 69/213 70/214 66/215 65/216
usemtl mat_texture
f 73/217 74/218 75/219 76/220
f 78/221 77/222 80/223 79/224
f 77/225 73/226 76/227 80/228
f 74/229 78/230 79/231 75/232
f 76/233 75/234 79/235 80/236
f 77/237 78/238 74/239 73/240
