mtllib utility_box.mtl
o utility_box
v -1.5 0 -0.7
v 1.5 0 -0.7
v 1.5 3.3 -0.7
v -1.5 3.3 -0.7
v -1.5 0 0.7
v 1.5 0 0.7
v 1.5 3.3 0.7
v -1.5 3.3 0.7
v -0.8 1.25 -0.79
v 0.8 1.25 -0.79
v 0.8 2.75 -0.79
v -0.8 2.75 -0.79
v -0.8 1.25 -0.71
v 0.8 1.25 -0.71
v 0.8 2.75 -0.71
v -0.8 2.75 -0.71
v -0.66 1.14 -0.84
v -0.44 1.14 -0.84
v -0.44 1.36 -0.84
v -0.66 1.36 -0.84
v -0.66 1.14 -0.76
v -0.44 1.14 -0.76
v -0.44 1.36 -0.76
v -0.66 1.36 -0.76
v 0.44 1.14 -0.84
v 0.66 1.14 -0.84
v 0.66 1.36 -0.84
v 0.44 1.36 -0.84
v 0.44 1.14 -0.76
v 0.66 1.14 -0.76
v 0.66 1.36 -0.76
v 0.44 1.36 -0.76
vt 0 0
vt 1 0
vt 1 1
vt 0 1
vt 0 0
vt 1 0
vt 1 1
vt 0 1
vt 0 0
vt 1 0
vt 1 1
vt 0 1
vt 0 0
vt 1 0
vt 1 1
vt 0 1
vt 0 0
vt 1 0
vt 1 1
vt 0 1
vt 0 0
vt 1 0
vt 1 1
vt 0 1
vt 0 0
vt 1 0
vt 1 1
vt 0 1
vt 0 0
vt 1 0
vt 1 1
vt 0 1
vt 0 0
vt 1 0
vt 1 1
vt 0 1
vt 0 0
vt 1 0
vt 1 1
vt 0 1
vt 0 0
vt 1 0
vt 1 1
vt 0 1
vt 0 0
vt 1 0
vt 1 1
vt 0 1
vt 0 0
vt 1 0
vt 1 1
vt 0 1
vt 0 0
vt 1 0
vt 1 1
vt 0 1
vt 0 0
vt 1 0
vt 1 1
vt 0 1
vt 0 0
vt 1 0
vt 1 1
vt 0 1
vt 0 0
vt 1 0
vt 1 1
vt 0 1
vt 0 0
vt 1 0
vt 1 1
vt 0 1
vt 0 0
vt 1 0
vt 1 1
vt 0 1
vt 0 0
vt 1 0
vt 1 1
vt 0 1
vt 0 0
vt 1 0
vt 1 1
vt 0 1
vt 0 0
vt 1 0
vt 1 1
vt 0 1
vt 0 0
vt 1 0
vt 1 1
vt 0 1
vt 0 0
vt 1 0
vt 1 1
vt 0 1
usemtl mat_texture
f 1/1 2/2 3/3 4/4
f 6/5 5/6 8/7 7/8
f 5/9 1/10 4/11 8/12
f 2/13 6/14 7/15 3/16
f 4/17 3/18 7/19 8/20
f 5/21 6/22 2/23 1/24
usemtl mat_metal
f 9/25 10/26 11/27 12/28
f 14/29 13/30 16/31 15/32
f 13/33 9/34 12/35 16/36
f 10/37 14/38 15/39 11/40
f 12/41 11/42 15/43 16/44
f 13/45 14/46 10/47 9/48
usemtl mat_yellow
f 17/49 18/50 19/51 20/52
f 22/53 21/54 24/55 23/56
f 21/57 17/58 20/59 24/60
f 18/61 22/62 23/63 19/64
f 20/65 19/66 23/67 24/68
f 21/69 22/70 18/71 17/72
usemtl mat_red
f 25/73 26/74 27/75 28/76
f 30/77 29/78 32/79 31/80
f 29/81 25/82 28/83 32/84
f 26/85 30/86 31/87 27/88
f 28/89 27/90 31/91 32/92
f 29/93 30/94 26/95 25/96
